<svg width="20" height="20" viewBox="0 0 20 20" fill="none" xmlns="http://www.w3.org/2000/svg">
<g clip-path="url(#clip0_12257_3554)">
<path fill-rule="evenodd" clip-rule="evenodd" d="M6.11496 8.5309L6.77954 7.71348L4.26352 5.99893C4.18613 5.94593 4.09841 5.91 4.00612 5.89336C3.91382 5.87672 3.81905 5.87979 3.72804 5.90236C3.63703 5.92493 3.55182 5.96657 3.47804 6.02443C3.40424 6.08228 3.34354 6.15514 3.29991 6.23814L2.57422 7.62841L2.5822 7.64234L4.35722 8.80268C4.63201 8.98253 4.96368 9.05432 5.28826 9.0041C5.61283 8.95396 5.90733 8.78532 6.11496 8.5309ZM13.899 8.53068L13.2344 7.71326L15.7511 5.99871C15.8284 5.94614 15.9159 5.91043 16.008 5.89393C16.1001 5.8775 16.1946 5.88064 16.2854 5.90329C16.3761 5.92586 16.4611 5.96736 16.5348 6.025C16.6084 6.08271 16.669 6.15528 16.7126 6.238L17.4357 7.62819L17.4277 7.64219L15.6566 8.80246C15.3819 8.98239 15.0502 9.0541 14.7257 9.00396C14.4011 8.95375 14.1066 8.78518 13.899 8.53068Z" fill="#A25700"/>
<g style="mix-blend-mode:soft-light">
<path fill-rule="evenodd" clip-rule="evenodd" d="M4.26352 5.99893C4.18613 5.94593 4.09841 5.91 4.00612 5.89336C3.91382 5.87672 3.81905 5.87979 3.72804 5.90236C3.63703 5.92493 3.55182 5.96657 3.47804 6.02443C3.40424 6.08228 3.34354 6.15514 3.29991 6.23814L2.57422 7.62841L2.5822 7.64234L4.35722 8.80268C4.63201 8.98253 4.96368 9.05432 5.28826 9.0041C5.61283 8.95396 5.90733 8.78532 6.11496 8.5309L6.77954 7.71348L4.26352 5.99893ZM6.65762 7.73126L4.21659 6.06778C4.14891 6.0215 4.07204 5.98993 3.99132 5.97536C3.91061 5.96079 3.82772 5.9635 3.74812 5.98321C3.66852 6.003 3.594 6.03936 3.52946 6.09C3.46496 6.14064 3.41189 6.20428 3.37373 6.27685C3.37374 6.27678 3.37371 6.27685 3.37373 6.27685L2.67965 7.60655L4.40281 8.73296C4.66038 8.90153 4.9713 8.96882 5.27552 8.92175C5.57975 8.87475 5.85578 8.71675 6.0504 8.47818L6.65762 7.73126ZM13.9635 8.47804L13.3562 7.73112L15.7979 6.06764C15.8656 6.02164 15.9421 5.99036 16.0226 5.976C16.1032 5.96157 16.1859 5.96436 16.2653 5.98414C16.3446 6.00386 16.4189 6.04014 16.4834 6.09057C16.5477 6.141 16.6006 6.20443 16.6388 6.27664C16.6388 6.27671 16.6388 6.27657 16.6388 6.27664L17.3303 7.60634L15.611 8.73275C15.3535 8.90139 15.0426 8.96861 14.7384 8.92161C14.4342 8.87453 14.1581 8.71647 13.9635 8.47804ZM15.6566 8.80246C15.3819 8.98239 15.0502 9.0541 14.7257 9.00396C14.4011 8.95375 14.1066 8.78518 13.899 8.53068L13.2344 7.71326L15.7511 5.99871C15.8284 5.94614 15.9159 5.91043 16.008 5.89393C16.1001 5.8775 16.1946 5.88064 16.2854 5.90329C16.3761 5.92586 16.4611 5.96736 16.5348 6.025C16.6084 6.08271 16.669 6.15528 16.7126 6.238L17.4357 7.62819L17.4277 7.64219L15.6566 8.80246Z" fill="white" fill-opacity="0.5"/>
</g>
<g style="mix-blend-mode:soft-light">
<path fill-rule="evenodd" clip-rule="evenodd" d="M6.11496 8.5309L6.77954 7.71348L4.26352 5.99893C4.18613 5.94593 4.09841 5.91 4.00612 5.89336C3.91382 5.87672 3.81905 5.87979 3.72804 5.90236C3.63703 5.92493 3.55182 5.96657 3.47804 6.02443C3.40424 6.08229 3.34354 6.15514 3.29991 6.23814L2.57422 7.62841L2.5822 7.64234L4.35722 8.80268C4.63201 8.98253 4.96368 9.05432 5.28826 9.00411C5.61283 8.95396 5.90733 8.78532 6.11496 8.5309ZM13.899 8.53068L13.2344 7.71326L15.7511 5.99872C15.8284 5.94614 15.9159 5.91043 16.008 5.89393C16.1001 5.8775 16.1946 5.88065 16.2854 5.90329C16.3761 5.92586 16.4611 5.96736 16.5348 6.025C16.6084 6.08271 16.669 6.15528 16.7126 6.238L17.4357 7.62819L17.4277 7.64219L15.6566 8.80247C15.3819 8.98239 15.0502 9.05411 14.7257 9.00396C14.4011 8.95375 14.1066 8.78518 13.899 8.53068Z" fill="url(#paint0_linear_12257_3554)"/>
</g>
<g filter="url(#filter0_i_12257_3554)">
<path d="M19.9902 7.17573L18.998 13.1295L18.9787 13.2452L18.9695 13.3029L18.9123 13.6445L18.8957 13.7455L18.887 13.798L18.8286 14.1482L18.8086 14.2666L18.7987 14.3257L18.7508 14.614L18.7322 14.727L18.7229 14.7842L18.5621 15.7478L18.5455 15.8468H1.39997L1.32156 15.355L1.23849 14.836L1.22985 14.7802L1.21191 14.6705L1.16206 14.3616L1.15276 14.3024L1.13349 14.1828L1.08232 13.8672L1.07501 13.8199L1.0564 13.703L0.997258 13.3415L0.987951 13.283L0.969344 13.1674L0.00906346 7.16445C-0.0122149 7.03695 0.00416349 6.90595 0.0561914 6.78767C0.108212 6.66931 0.193633 6.56867 0.301974 6.49817C0.410316 6.4276 0.536878 6.39024 0.666155 6.39053C0.795439 6.39081 0.921816 6.42881 1.02982 6.49988L2.58155 7.5193L4.35259 8.67964C4.62738 8.8595 4.95905 8.93128 5.28363 8.88107C5.60821 8.83093 5.9027 8.66229 6.11034 8.40786L6.7749 7.59044L9.23373 4.58134C9.32723 4.46684 9.44501 4.37448 9.57858 4.31113C9.71215 4.24777 9.85815 4.21484 10.0059 4.21484C10.1538 4.21484 10.2998 4.24777 10.4334 4.31113C10.5669 4.37448 10.6847 4.46684 10.7781 4.58134L13.2337 7.59044L13.8982 8.40786C14.1059 8.66229 14.4004 8.83093 14.7249 8.88107C15.0495 8.93128 15.3812 8.8595 15.656 8.67964L17.4363 7.51401L18.9648 6.51053C19.0729 6.43796 19.1999 6.39867 19.3301 6.3976C19.4602 6.39653 19.5879 6.43374 19.6971 6.5046C19.8064 6.57545 19.8924 6.67688 19.9445 6.79617C19.9966 6.91545 20.0124 7.04745 19.9902 7.17573Z" fill="#FF9B00"/>
</g>
<g style="mix-blend-mode:overlay">
<path d="M19.9902 7.17573L18.998 13.1295L18.9787 13.2452L18.9695 13.3029L18.9123 13.6445L18.8957 13.7455L18.887 13.798L18.8285 14.1483L18.8086 14.2666L18.7987 14.3257L18.7508 14.6141L18.7322 14.727L18.7229 14.7842L18.5621 15.7478L18.5455 15.8468H1.39997L1.32156 15.355L1.23849 14.836L1.22985 14.7803L1.21191 14.6705L1.16206 14.3616L1.15276 14.3024L1.13349 14.1828L1.08232 13.8672L1.07501 13.8199L1.0564 13.703L0.997258 13.3415L0.987951 13.283L0.969344 13.1674L0.00906346 7.16445C-0.0122149 7.03695 0.00416349 6.90602 0.0561914 6.78767C0.108212 6.66931 0.193633 6.56867 0.301974 6.49817C0.410316 6.4276 0.536878 6.39024 0.666155 6.39053C0.795439 6.39081 0.921816 6.42881 1.02982 6.49988L2.58155 7.5193L4.35259 8.67964C4.62738 8.8595 4.95905 8.93128 5.28363 8.88107C5.6082 8.83093 5.9027 8.66229 6.11034 8.40786L6.7749 7.59044L9.23373 4.58134C9.32723 4.46684 9.44501 4.37448 9.57858 4.31113C9.71215 4.24777 9.85815 4.21484 10.0059 4.21484C10.1538 4.21484 10.2998 4.24777 10.4334 4.31113C10.5669 4.37448 10.6847 4.46684 10.7781 4.58134L13.2337 7.59044L13.8982 8.40786C14.1059 8.66229 14.4004 8.83093 14.7249 8.88107C15.0495 8.93128 15.3812 8.8595 15.656 8.67964L17.4363 7.51401L18.9648 6.51053C19.0729 6.43796 19.1999 6.39867 19.3301 6.3976C19.4602 6.39653 19.5879 6.43374 19.6971 6.5046C19.8063 6.57545 19.8924 6.67688 19.9445 6.79617C19.9965 6.91552 20.0124 7.04745 19.9902 7.17573Z" fill="url(#paint1_linear_12257_3554)"/>
</g>
<g style="mix-blend-mode:overlay" opacity="0.3">
<path d="M19.9902 7.17573L18.998 13.1295L18.9787 13.2452L18.9695 13.3029L18.9123 13.6445L18.8957 13.7455L18.887 13.798L18.8285 14.1483L18.8086 14.2666L18.7987 14.3257L18.7508 14.6141L18.7322 14.727L18.7229 14.7842L18.5621 15.7478L18.5455 15.8468H1.39997L1.32156 15.355L1.23849 14.836L1.22985 14.7803L1.21191 14.6705L1.16206 14.3616L1.15276 14.3024L1.13349 14.1828L1.08232 13.8672L1.07501 13.8199L1.0564 13.703L0.997258 13.3415L0.987951 13.283L0.969344 13.1674L0.00906346 7.16445C-0.0122149 7.03695 0.00416349 6.90602 0.0561914 6.78767C0.108212 6.66931 0.193633 6.56867 0.301974 6.49817C0.410316 6.4276 0.536878 6.39024 0.666155 6.39053C0.795439 6.39081 0.921816 6.42881 1.02982 6.49988L2.58155 7.5193L4.35259 8.67964C4.62738 8.8595 4.95905 8.93128 5.28363 8.88107C5.6082 8.83093 5.9027 8.66229 6.11034 8.40786L6.7749 7.59044L9.23373 4.58134C9.32723 4.46684 9.44501 4.37448 9.57858 4.31113C9.71215 4.24777 9.85815 4.21484 10.0059 4.21484C10.1538 4.21484 10.2998 4.24777 10.4334 4.31113C10.5669 4.37448 10.6847 4.46684 10.7781 4.58134L13.2337 7.59044L13.8982 8.40786C14.1059 8.66229 14.4004 8.83093 14.7249 8.88107C15.0495 8.93128 15.3812 8.8595 15.656 8.67964L17.4363 7.51401L18.9648 6.51053C19.0729 6.43796 19.1999 6.39867 19.3301 6.3976C19.4602 6.39653 19.5879 6.43374 19.6971 6.5046C19.8063 6.57545 19.8924 6.67688 19.9445 6.79617C19.9965 6.91552 20.0124 7.04745 19.9902 7.17573Z" fill="url(#paint2_linear_12257_3554)"/>
</g>
<g style="mix-blend-mode:overlay">
<path d="M19.9902 7.17573L19.943 7.45887C19.9037 7.37087 19.8457 7.29252 19.7731 7.22923C19.7005 7.16587 19.615 7.11909 19.5225 7.09209C19.43 7.06516 19.3328 7.05859 19.2375 7.07288C19.1422 7.08723 19.0512 7.12209 18.9707 7.17509L17.4423 8.17858L15.6586 9.3442C15.3839 9.52406 15.0522 9.59584 14.7276 9.54563C14.403 9.49542 14.1085 9.32685 13.9009 9.07235L13.1194 8.32279L10.6645 5.2459C10.2658 4.75677 9.73879 4.75677 9.34008 5.2459L6.93104 8.26829L6.23462 9.14485C5.80464 9.67184 4.92211 9.71634 4.35259 9.3442L2.58155 8.18386L1.02982 7.1678C0.949052 7.11452 0.857632 7.07959 0.761947 7.0653C0.666262 7.05109 0.568621 7.05788 0.47585 7.0853C0.383073 7.11273 0.297396 7.16002 0.224811 7.22395C0.152219 7.28794 0.0944695 7.36694 0.0555843 7.45551L0.00906346 7.16445C-0.0122149 7.03695 0.00416349 6.90595 0.0561914 6.78759C0.108212 6.66931 0.193633 6.56867 0.301974 6.49817C0.410316 6.4276 0.536878 6.39017 0.666155 6.39053C0.795439 6.39081 0.921816 6.42881 1.02982 6.49988L2.58155 7.5193L4.35259 8.67964C4.62738 8.8595 4.95905 8.93128 5.28363 8.88107C5.6082 8.83092 5.9027 8.66228 6.11034 8.40786L6.7749 7.59044L9.23373 4.58134C9.32723 4.46684 9.44501 4.37448 9.57858 4.31113C9.71215 4.24777 9.85815 4.21484 10.0059 4.21484C10.1538 4.21484 10.2998 4.24777 10.4334 4.31113C10.5669 4.37448 10.6847 4.46684 10.7781 4.58134L13.2337 7.59044L13.8982 8.40786C14.1059 8.66228 14.4004 8.83092 14.7249 8.88107C15.0495 8.93128 15.3812 8.8595 15.656 8.67964L17.4363 7.51401L18.9648 6.51053C19.0729 6.43788 19.1999 6.39867 19.3301 6.3976C19.4602 6.39653 19.5879 6.43374 19.6971 6.5046C19.8063 6.57545 19.8924 6.67688 19.9445 6.79616C19.9965 6.91545 20.0124 7.04745 19.9902 7.17573Z" fill="white"/>
</g>
<g style="mix-blend-mode:soft-light" opacity="0.5">
<path fill-rule="evenodd" clip-rule="evenodd" d="M18.9111 13.6464L18.9683 13.3048C17.7428 12.2688 13.729 11.7285 10.0008 11.7285C7.65025 11.7285 5.41072 11.9285 3.69551 12.292C2.1584 12.6176 1.37755 12.9998 0.996094 13.3427L1.05524 13.7056L1.07385 13.8225L1.08116 13.8697C1.16888 13.669 1.60616 13.1426 3.77991 12.6821C5.46854 12.3266 7.67618 12.1272 10.0022 12.1272C14.9052 12.1272 18.3748 12.9839 18.8859 13.7999L18.8945 13.7474L18.9111 13.6464ZM18.7496 14.6157L18.7974 14.3273C17.5826 13.4302 14.097 12.8341 10.0021 12.8308C5.85259 12.8308 2.32913 13.4435 1.16018 14.3592L1.21002 14.6682L1.22796 14.7779L1.2366 14.8337C1.27256 14.7912 1.3119 14.7516 1.35422 14.7154C2.35305 13.8575 5.99015 13.2335 10.0021 13.2335C14.014 13.2335 17.6511 13.8555 18.6513 14.7194C18.676 14.7402 18.6995 14.7624 18.7217 14.7859L18.731 14.7287L18.7496 14.6157Z" fill="white"/>
</g>
<g style="mix-blend-mode:hard-light">
<path fill-rule="evenodd" clip-rule="evenodd" d="M18.9781 13.2465L18.9974 13.1308C17.8099 12.0782 13.7594 11.5293 9.99874 11.5293C7.64819 11.5293 5.40863 11.7293 3.69342 12.0928C2.12042 12.4264 1.33957 12.8191 0.96875 13.1687L0.987357 13.2843L0.996657 13.3428L1.05581 13.7043L1.06843 13.7077C1.11561 13.5455 1.45454 12.976 3.78047 12.4822C5.46911 12.1267 7.67677 11.9274 10.0027 11.9274C14.9975 11.9274 18.5043 12.8165 18.9117 13.6458L18.9688 13.3043L18.9781 13.2465ZM18.8081 14.2684L18.828 14.1501C17.6411 13.241 14.1316 12.6349 10.0027 12.6336C5.82002 12.6336 2.27264 13.2536 1.13293 14.184L1.15154 14.3003L1.16084 14.3594L1.21068 14.6685C1.25279 14.6124 1.30117 14.5613 1.35489 14.5163C2.35371 13.6583 5.99082 13.0336 10.0027 13.0336C14.0146 13.0336 17.6517 13.6556 18.6519 14.5196C18.6869 14.5493 18.7198 14.5815 18.7503 14.616L18.7981 14.3275L18.8081 14.2684Z" fill="#A15700"/>
</g>
<path d="M10.0005 17.7763C14.7351 17.7763 18.5733 16.9134 18.5733 15.8491C18.5733 14.7847 14.7351 13.9219 10.0005 13.9219C5.26589 13.9219 1.42773 14.7847 1.42773 15.8491C1.42773 16.9134 5.26589 17.7763 10.0005 17.7763Z" fill="#A15700"/>
<path d="M10.0005 17.7763C14.7351 17.7763 18.5733 16.9134 18.5733 15.8491C18.5733 14.7847 14.7351 13.9219 10.0005 13.9219C5.26589 13.9219 1.42773 14.7847 1.42773 15.8491C1.42773 16.9134 5.26589 17.7763 10.0005 17.7763Z" fill="url(#paint3_linear_12257_3554)" style="mix-blend-mode:overlay"/>
<path d="M10.0016 17.1444C14.1123 17.1444 17.4446 16.6088 17.4446 15.9482C17.4446 15.2875 14.1123 14.752 10.0016 14.752C5.89094 14.752 2.55859 15.2875 2.55859 15.9482C2.55859 16.6088 5.89094 17.1444 10.0016 17.1444Z" fill="#A15700"/>
<path d="M10.0016 17.1444C14.1123 17.1444 17.4446 16.6088 17.4446 15.9482C17.4446 15.2875 14.1123 14.752 10.0016 14.752C5.89094 14.752 2.55859 15.2875 2.55859 15.9482C2.55859 16.6088 5.89094 17.1444 10.0016 17.1444Z" fill="url(#paint4_linear_12257_3554)" fill-opacity="0.6" style="mix-blend-mode:soft-light"/>
<g style="mix-blend-mode:overlay">
<g style="mix-blend-mode:soft-light">
<path fill-rule="evenodd" clip-rule="evenodd" d="M8.64387 7.35739L9.55714 6.15591C9.77057 5.87512 10.1929 5.87512 10.4063 6.15591L11.3196 7.35739C11.4673 7.55167 11.4643 7.82146 11.3122 8.01238L10.3989 9.15923C10.1854 9.42736 9.77807 9.42736 9.5645 9.15923L8.6513 8.01238C8.49923 7.82146 8.49623 7.55167 8.64387 7.35739ZM8.90922 7.5591L9.8225 6.35761C9.90257 6.25232 10.0609 6.25232 10.141 6.35761L11.0543 7.5591C11.1096 7.63196 11.1085 7.7331 11.0515 7.80474L10.1382 8.95159C10.0581 9.05216 9.90535 9.05216 9.82528 8.95159L8.91201 7.80474C8.85501 7.7331 8.85386 7.63196 8.90922 7.5591Z" fill="white"/>
</g>
</g>
<path d="M9.82122 6.35831L8.90794 7.5598C8.85258 7.63265 8.85373 7.7338 8.91073 7.80544L9.824 8.95228C9.90407 9.05285 10.0569 9.05285 10.1369 8.95228L11.0502 7.80544C11.1072 7.7338 11.1083 7.63265 11.053 7.5598L10.1397 6.35831C10.0596 6.25296 9.90129 6.25296 9.82122 6.35831Z" fill="#FF9F0A"/>
<g style="mix-blend-mode:overlay">
<path d="M9.82122 6.35831L8.90794 7.5598C8.85258 7.63265 8.85373 7.7338 8.91073 7.80544L9.824 8.95228C9.90407 9.05285 10.0569 9.05285 10.1369 8.95228L11.0502 7.80544C11.1072 7.7338 11.1083 7.63265 11.053 7.5598L10.1397 6.35831C10.0596 6.25296 9.90129 6.25296 9.82122 6.35831Z" fill="url(#paint5_linear_12257_3554)"/>
</g>
</g>
<defs>
<filter id="filter0_i_12257_3554" x="0" y="3.50057" width="20" height="12.3471" filterUnits="userSpaceOnUse" color-interpolation-filters="sRGB">
<feFlood flood-opacity="0" result="BackgroundImageFix"/>
<feBlend mode="normal" in="SourceGraphic" in2="BackgroundImageFix" result="shape"/>
<feColorMatrix in="SourceAlpha" type="matrix" values="0 0 0 0 0 0 0 0 0 0 0 0 0 0 0 0 0 0 127 0" result="hardAlpha"/>
<feOffset dy="-0.714277"/>
<feGaussianBlur stdDeviation="0.714277"/>
<feComposite in2="hardAlpha" operator="arithmetic" k2="-1" k3="1"/>
<feColorMatrix type="matrix" values="0 0 0 0 1 0 0 0 0 1 0 0 0 0 1 0 0 0 1 0"/>
<feBlend mode="overlay" in2="shape" result="effect1_innerShadow_12257_3554"/>
</filter>
<linearGradient id="paint0_linear_12257_3554" x1="2.50118" y1="6.00407" x2="17.501" y2="6.00407" gradientUnits="userSpaceOnUse">
<stop stop-color="white" stop-opacity="0"/>
<stop offset="0.182094" stop-color="white"/>
<stop offset="0.83449" stop-color="white"/>
<stop offset="1" stop-color="white" stop-opacity="0"/>
</linearGradient>
<linearGradient id="paint1_linear_12257_3554" x1="-1.66614" y1="10.0481" x2="21.6669" y2="10.0481" gradientUnits="userSpaceOnUse">
<stop stop-color="white"/>
<stop offset="0.249953" stop-color="white" stop-opacity="0"/>
<stop offset="0.494792" stop-color="white"/>
<stop offset="0.72541" stop-color="white" stop-opacity="0"/>
<stop offset="1" stop-color="white"/>
</linearGradient>
<linearGradient id="paint2_linear_12257_3554" x1="10.0004" y1="4.21484" x2="10.0004" y2="13.7981" gradientUnits="userSpaceOnUse">
<stop stop-color="white"/>
<stop offset="1" stop-color="white" stop-opacity="0"/>
</linearGradient>
<linearGradient id="paint3_linear_12257_3554" x1="1.25043" y1="16.2991" x2="18.7502" y2="16.2991" gradientUnits="userSpaceOnUse">
<stop stop-color="white"/>
<stop offset="1" stop-color="white" stop-opacity="0"/>
</linearGradient>
<linearGradient id="paint4_linear_12257_3554" x1="2.91819" y1="16.3" x2="17.5014" y2="16.3" gradientUnits="userSpaceOnUse">
<stop/>
<stop offset="0.203125" stop-opacity="0"/>
<stop offset="0.484375"/>
<stop offset="0.770833" stop-opacity="0"/>
<stop offset="1"/>
</linearGradient>
<linearGradient id="paint5_linear_12257_3554" x1="9.28051" y1="6.58217" x2="10.7805" y2="8.11543" gradientUnits="userSpaceOnUse">
<stop stop-color="white"/>
<stop offset="1" stop-color="white" stop-opacity="0"/>
</linearGradient>
<clipPath id="clip0_12257_3554">
<rect width="20" height="20" fill="white"/>
</clipPath>
</defs>
</svg>
