<svg width="20" height="20" viewBox="0 0 20 20" fill="none" xmlns="http://www.w3.org/2000/svg">
<g clip-path="url(#clip0_10967_3512)">
<mask id="mask0_10967_3512" style="mask-type:luminance" maskUnits="userSpaceOnUse" x="0" y="0" width="20" height="20">
<path d="M20 0H0V20H20V0Z" fill="white"/>
</mask>
<g mask="url(#mask0_10967_3512)">
<path fill-rule="evenodd" clip-rule="evenodd" d="M6.11496 7.52895L6.77955 6.71153L4.26352 4.99698C4.18613 4.94398 4.09841 4.90806 4.00612 4.89141C3.91382 4.87477 3.81905 4.87784 3.72804 4.90041C3.63703 4.92298 3.55182 4.96463 3.47804 5.02248C3.40424 5.08034 3.34354 5.1532 3.29991 5.23619L2.57422 6.62646L2.5822 6.64039L4.35722 7.80073C4.63201 7.98059 4.96368 8.05237 5.28826 8.00216C5.61283 7.95202 5.90733 7.78338 6.11496 7.52895ZM13.899 7.52874L13.2344 6.71132L15.7511 4.99677C15.8284 4.9442 15.9159 4.90848 16.008 4.89199C16.1001 4.87556 16.1946 4.8787 16.2854 4.90134C16.3761 4.92391 16.4611 4.96541 16.5348 5.02305C16.6084 5.08077 16.669 5.15334 16.7126 5.23605L17.4357 6.62625L17.4277 6.64025L15.6566 7.80052C15.3819 7.98045 15.0502 8.05216 14.7257 8.00202C14.4011 7.9518 14.1066 7.78323 13.899 7.52874Z" fill="#6F3500"/>
<g style="mix-blend-mode:soft-light">
<path fill-rule="evenodd" clip-rule="evenodd" d="M4.26352 4.99698C4.18613 4.94398 4.09841 4.90806 4.00612 4.89141C3.91382 4.87477 3.81905 4.87784 3.72804 4.90041C3.63703 4.92298 3.55182 4.96463 3.47804 5.02248C3.40424 5.08034 3.34354 5.1532 3.29991 5.23619L2.57422 6.62646L2.5822 6.64039L4.35722 7.80073C4.63201 7.98059 4.96368 8.05237 5.28826 8.00216C5.61283 7.95202 5.90733 7.78338 6.11496 7.52895L6.77955 6.71153L4.26352 4.99698ZM6.65762 6.72932L4.21659 5.06584C4.14891 5.01955 4.07204 4.98798 3.99132 4.97341C3.91061 4.95884 3.82772 4.96156 3.74812 4.98127C3.66852 5.00106 3.594 5.03741 3.52946 5.08805C3.46496 5.1387 3.41189 5.20234 3.37373 5.27491C3.37371 5.27491 3.37374 5.27484 3.37373 5.27491L2.67965 6.60461L4.40281 7.73102C4.66038 7.89959 4.9713 7.96688 5.27552 7.9198C5.57975 7.8728 5.85578 7.71481 6.0504 7.47624L6.65762 6.72932ZM13.9635 7.4761L13.3562 6.72918L15.7979 5.0657C15.8656 5.0197 15.9421 4.98841 16.0226 4.97406C16.1032 4.95963 16.1859 4.96241 16.2653 4.9822C16.3446 5.00191 16.4189 5.0382 16.4834 5.08863C16.5477 5.13905 16.6006 5.20248 16.6388 5.27469C16.6388 5.27462 16.6388 5.27477 16.6388 5.27469L17.3303 6.60439L15.611 7.73081C15.3535 7.89945 15.0426 7.96666 14.7384 7.91966C14.4342 7.87259 14.1581 7.71452 13.9635 7.4761ZM15.6566 7.80052C15.3819 7.98045 15.0502 8.05216 14.7257 8.00202C14.4011 7.9518 14.1066 7.78323 13.899 7.52874L13.2344 6.71132L15.7511 4.99677C15.8284 4.9442 15.9159 4.90848 16.008 4.89199C16.1001 4.87556 16.1946 4.8787 16.2854 4.90134C16.3761 4.92391 16.4611 4.96541 16.5348 5.02305C16.6084 5.08077 16.669 5.15334 16.7126 5.23605L17.4357 6.62625L17.4277 6.64025L15.6566 7.80052Z" fill="white" fill-opacity="0.5"/>
</g>
<g style="mix-blend-mode:soft-light">
<path fill-rule="evenodd" clip-rule="evenodd" d="M6.11496 7.52895L6.77955 6.71153L4.26352 4.99698C4.18613 4.94398 4.09841 4.90806 4.00612 4.89141C3.91382 4.87477 3.81905 4.87784 3.72804 4.90041C3.63703 4.92298 3.55182 4.96463 3.47804 5.02248C3.40424 5.08034 3.34354 5.1532 3.29991 5.23619L2.57422 6.62646L2.5822 6.64039L4.35722 7.80073C4.63201 7.98059 4.96368 8.05237 5.28826 8.00216C5.61283 7.95202 5.90733 7.78338 6.11496 7.52895ZM13.899 7.52874L13.2344 6.71132L15.7511 4.99677C15.8284 4.9442 15.9159 4.90848 16.008 4.89199C16.1001 4.87556 16.1946 4.8787 16.2854 4.90134C16.3761 4.92391 16.4611 4.96541 16.5348 5.02305C16.6084 5.08077 16.669 5.15334 16.7126 5.23605L17.4357 6.62625L17.4277 6.64025L15.6566 7.80052C15.3819 7.98045 15.0502 8.05216 14.7257 8.00202C14.4011 7.9518 14.1066 7.78323 13.899 7.52874Z" fill="url(#paint0_linear_10967_3512)"/>
</g>
<g filter="url(#filter0_i_10967_3512)">
<path d="M19.9902 6.17573L18.998 12.1295L18.9787 12.2451L18.9695 12.3029L18.9123 12.6445L18.8957 12.7455L18.887 12.798L18.8286 13.1482L18.8086 13.2666L18.7987 13.3257L18.7508 13.6141L18.7322 13.7271L18.7229 13.7842L18.5621 14.7478L18.5455 14.8468H1.39997L1.32156 14.355L1.23849 13.8361L1.22985 13.7802L1.21191 13.6706L1.16206 13.3616L1.15276 13.3024L1.13349 13.1828L1.08232 12.8671L1.07501 12.8199L1.0564 12.703L0.997258 12.3415L0.987951 12.283L0.969344 12.1674L0.00906346 6.16445C-0.0122149 6.03695 0.00416349 5.90595 0.0561914 5.78767C0.108212 5.66931 0.193633 5.56867 0.301974 5.49817C0.410316 5.4276 0.536878 5.39024 0.666155 5.39053C0.795439 5.39082 0.921816 5.42881 1.02982 5.49989L2.58155 6.5193L4.35259 7.67964C4.62738 7.8595 4.95905 7.93128 5.28363 7.88107C5.60821 7.83093 5.9027 7.66229 6.11034 7.40786L6.7749 6.59044L9.23373 3.58134C9.32723 3.46684 9.44501 3.37448 9.57858 3.31113C9.71215 3.24777 9.85815 3.21484 10.0059 3.21484C10.1538 3.21484 10.2998 3.24777 10.4334 3.31113C10.5669 3.37448 10.6847 3.46684 10.7781 3.58134L13.2337 6.59044L13.8982 7.40786C14.1059 7.66229 14.4004 7.83093 14.7249 7.88107C15.0495 7.93128 15.3812 7.8595 15.656 7.67964L17.4363 6.51402L18.9648 5.51053C19.0729 5.43796 19.1999 5.39867 19.3301 5.3976C19.4602 5.39653 19.5879 5.43374 19.6971 5.5046C19.8064 5.57546 19.8924 5.67688 19.9444 5.79617C19.9966 5.91545 20.0124 6.04745 19.9902 6.17573Z" fill="#9C4302"/>
</g>
<g style="mix-blend-mode:overlay">
<path d="M19.9902 6.17573L18.998 12.1295L18.9787 12.2451L18.9695 12.3029L18.9123 12.6445L18.8957 12.7455L18.887 12.798L18.8285 13.1483L18.8086 13.2666L18.7987 13.3257L18.7508 13.6141L18.7322 13.7271L18.7229 13.7842L18.5621 14.7478L18.5455 14.8468H1.39997L1.32156 14.355L1.23849 13.8361L1.22985 13.7803L1.21191 13.6706L1.16206 13.3616L1.15276 13.3024L1.13349 13.1828L1.08232 12.8671L1.07501 12.8199L1.0564 12.703L0.997258 12.3415L0.987951 12.283L0.969344 12.1674L0.00906346 6.16445C-0.0122149 6.03695 0.00416349 5.90602 0.0561914 5.78767C0.108212 5.66931 0.193633 5.56867 0.301974 5.49817C0.410316 5.4276 0.536878 5.39024 0.666155 5.39053C0.795439 5.39082 0.921816 5.42881 1.02982 5.49989L2.58155 6.5193L4.35259 7.67964C4.62738 7.8595 4.95905 7.93128 5.28363 7.88107C5.6082 7.83093 5.9027 7.66229 6.11034 7.40786L6.7749 6.59044L9.23373 3.58134C9.32723 3.46684 9.44501 3.37448 9.57858 3.31113C9.71215 3.24777 9.85815 3.21484 10.0059 3.21484C10.1538 3.21484 10.2998 3.24777 10.4334 3.31113C10.5669 3.37448 10.6847 3.46684 10.7781 3.58134L13.2337 6.59044L13.8982 7.40786C14.1059 7.66229 14.4004 7.83093 14.7249 7.88107C15.0495 7.93128 15.3812 7.8595 15.656 7.67964L17.4363 6.51402L18.9648 5.51053C19.0729 5.43796 19.1999 5.39867 19.3301 5.3976C19.4602 5.39653 19.5879 5.43374 19.6971 5.5046C19.8063 5.57546 19.8924 5.67688 19.9444 5.79617C19.9965 5.91552 20.0124 6.04745 19.9902 6.17573Z" fill="url(#paint1_linear_10967_3512)"/>
</g>
<g style="mix-blend-mode:overlay" opacity="0.3">
<path d="M19.9902 6.17573L18.998 12.1295L18.9787 12.2451L18.9695 12.3029L18.9123 12.6445L18.8957 12.7455L18.887 12.798L18.8285 13.1483L18.8086 13.2666L18.7987 13.3257L18.7508 13.6141L18.7322 13.7271L18.7229 13.7842L18.5621 14.7478L18.5455 14.8468H1.39997L1.32156 14.355L1.23849 13.8361L1.22985 13.7803L1.21191 13.6706L1.16206 13.3616L1.15276 13.3024L1.13349 13.1828L1.08232 12.8671L1.07501 12.8199L1.0564 12.703L0.997258 12.3415L0.987951 12.283L0.969344 12.1674L0.00906346 6.16445C-0.0122149 6.03695 0.00416349 5.90602 0.0561914 5.78767C0.108212 5.66931 0.193633 5.56867 0.301974 5.49817C0.410316 5.4276 0.536878 5.39024 0.666155 5.39053C0.795439 5.39082 0.921816 5.42881 1.02982 5.49989L2.58155 6.5193L4.35259 7.67964C4.62738 7.8595 4.95905 7.93128 5.28363 7.88107C5.6082 7.83093 5.9027 7.66229 6.11034 7.40786L6.7749 6.59044L9.23373 3.58134C9.32723 3.46684 9.44501 3.37448 9.57858 3.31113C9.71215 3.24777 9.85815 3.21484 10.0059 3.21484C10.1538 3.21484 10.2998 3.24777 10.4334 3.31113C10.5669 3.37448 10.6847 3.46684 10.7781 3.58134L13.2337 6.59044L13.8982 7.40786C14.1059 7.66229 14.4004 7.83093 14.7249 7.88107C15.0495 7.93128 15.3812 7.8595 15.656 7.67964L17.4363 6.51402L18.9648 5.51053C19.0729 5.43796 19.1999 5.39867 19.3301 5.3976C19.4602 5.39653 19.5879 5.43374 19.6971 5.5046C19.8063 5.57546 19.8924 5.67688 19.9444 5.79617C19.9965 5.91552 20.0124 6.04745 19.9902 6.17573Z" fill="url(#paint2_linear_10967_3512)"/>
</g>
<g style="mix-blend-mode:overlay">
<path d="M19.9902 6.17573L19.943 6.45887C19.9037 6.37087 19.8457 6.29252 19.7731 6.22923C19.7005 6.16587 19.615 6.11909 19.5225 6.09209C19.43 6.06516 19.3328 6.05859 19.2375 6.07288C19.1422 6.08723 19.0512 6.12209 18.9707 6.17509L17.4423 7.17858L15.6586 8.3442C15.3839 8.52406 15.0522 8.59584 14.7276 8.54563C14.403 8.49542 14.1085 8.32685 13.9009 8.07235L13.1194 7.32279L10.6645 4.2459C10.2658 3.75676 9.73879 3.75676 9.34008 4.2459L6.93104 7.26829L6.23462 8.14485C5.80464 8.67184 4.92211 8.71634 4.35259 8.3442L2.58155 7.18386L1.02982 6.1678C0.949052 6.11452 0.857631 6.07959 0.761947 6.0653C0.666262 6.05109 0.568621 6.05788 0.47585 6.0853C0.383073 6.11273 0.297396 6.16002 0.224811 6.22395C0.152219 6.28794 0.0944695 6.36694 0.0555843 6.45551L0.00906346 6.16445C-0.0122149 6.03695 0.00416349 5.90595 0.0561914 5.78759C0.108212 5.66931 0.193633 5.56867 0.301974 5.49817C0.410316 5.4276 0.536878 5.39017 0.666155 5.39053C0.795439 5.39081 0.921816 5.42881 1.02982 5.49988L2.58155 6.5193L4.35259 7.67964C4.62738 7.8595 4.95905 7.93128 5.28363 7.88107C5.6082 7.83092 5.9027 7.66228 6.11034 7.40786L6.7749 6.59044L9.23373 3.58134C9.32723 3.46684 9.44501 3.37448 9.57858 3.31112C9.71215 3.24777 9.85815 3.21484 10.0059 3.21484C10.1538 3.21484 10.2998 3.24777 10.4334 3.31112C10.5669 3.37448 10.6847 3.46684 10.7781 3.58134L13.2337 6.59044L13.8982 7.40786C14.1059 7.66228 14.4004 7.83092 14.7249 7.88107C15.0495 7.93128 15.3812 7.8595 15.656 7.67964L17.4363 6.51401L18.9648 5.51053C19.0729 5.43788 19.1999 5.39867 19.3301 5.3976C19.4602 5.39653 19.5879 5.43374 19.6971 5.5046C19.8063 5.57545 19.8924 5.67688 19.9444 5.79616C19.9965 5.91545 20.0124 6.04745 19.9902 6.17573Z" fill="white"/>
</g>
<g style="mix-blend-mode:soft-light" opacity="0.5">
<path fill-rule="evenodd" clip-rule="evenodd" d="M18.9111 12.6464L18.9683 12.3047C17.7428 11.2687 13.729 10.7285 10.0008 10.7285C7.65025 10.7285 5.41072 10.9285 3.69551 11.292C2.1584 11.6176 1.37755 11.9997 0.996094 12.3427L1.05524 12.7055L1.07385 12.8224L1.08116 12.8697C1.16888 12.6689 1.60616 12.1426 3.77991 11.6821C5.46854 11.3265 7.67618 11.1272 10.0022 11.1272C14.9052 11.1272 18.3748 11.9838 18.8859 12.7999L18.8945 12.7474L18.9111 12.6464ZM18.7496 13.6157L18.7974 13.3273C17.5826 12.4302 14.097 11.834 10.0021 11.8307C5.85259 11.8307 2.32913 12.4434 1.16018 13.3592L1.21002 13.6682L1.22796 13.7779L1.2366 13.8336C1.27256 13.7911 1.3119 13.7516 1.35422 13.7154C2.35305 12.8574 5.99015 12.2335 10.0021 12.2335C14.014 12.2335 17.6511 12.8554 18.6513 13.7194C18.676 13.7401 18.6995 13.7624 18.7217 13.7859L18.731 13.7286L18.7496 13.6157Z" fill="white"/>
</g>
<g style="mix-blend-mode:hard-light">
<path fill-rule="evenodd" clip-rule="evenodd" d="M18.9781 12.2464L18.9974 12.1308C17.8099 11.0782 13.7594 10.5293 9.99874 10.5293C7.64819 10.5293 5.40863 10.7293 3.69342 11.0927C2.12042 11.4264 1.33957 11.8191 0.96875 12.1687L0.987357 12.2843L0.996657 12.3428L1.05581 12.7043L1.06843 12.7077C1.11561 12.5454 1.45454 11.9759 3.78047 11.4822C5.46911 11.1267 7.67677 10.9273 10.0027 10.9273C14.9975 10.9273 18.5043 11.8165 18.9117 12.6458L18.9688 12.3042L18.9781 12.2464ZM18.8081 13.2684L18.828 13.1501C17.6411 12.2409 14.1316 11.6349 10.0027 11.6335C5.82003 11.6335 2.27264 12.2536 1.13293 13.1839L1.15154 13.3002L1.16084 13.3594L1.21068 13.6684C1.25279 13.6124 1.30117 13.5613 1.35489 13.5162C2.35371 12.6583 5.99082 12.0336 10.0027 12.0336C14.0146 12.0336 17.6517 12.6556 18.6519 13.5196C18.6869 13.5493 18.7198 13.5815 18.7503 13.6159L18.7981 13.3275L18.8081 13.2684Z" fill="#6F3C00"/>
</g>
<path d="M10.0005 16.7743C14.7351 16.7743 18.5733 15.9115 18.5733 14.8471C18.5733 13.7828 14.7351 12.9199 10.0005 12.9199C5.26589 12.9199 1.42773 13.7828 1.42773 14.8471C1.42773 15.9115 5.26589 16.7743 10.0005 16.7743Z" fill="#914E00"/>
<path d="M10.0005 16.7743C14.7351 16.7743 18.5733 15.9115 18.5733 14.8471C18.5733 13.7828 14.7351 12.9199 10.0005 12.9199C5.26589 12.9199 1.42773 13.7828 1.42773 14.8471C1.42773 15.9115 5.26589 16.7743 10.0005 16.7743Z" fill="url(#paint3_linear_10967_3512)" style="mix-blend-mode:overlay"/>
<path d="M9.99964 16.1424C14.1103 16.1424 17.4426 15.6068 17.4426 14.9462C17.4426 14.2856 14.1103 13.75 9.99964 13.75C5.88898 13.75 2.55664 14.2856 2.55664 14.9462C2.55664 15.6068 5.88898 16.1424 9.99964 16.1424Z" fill="#8D4C00"/>
<path d="M9.99964 16.1424C14.1103 16.1424 17.4426 15.6068 17.4426 14.9462C17.4426 14.2856 14.1103 13.75 9.99964 13.75C5.88898 13.75 2.55664 14.2856 2.55664 14.9462C2.55664 15.6068 5.88898 16.1424 9.99964 16.1424Z" fill="url(#paint4_linear_10967_3512)" fill-opacity="0.6" style="mix-blend-mode:soft-light"/>
<g style="mix-blend-mode:overlay">
<g style="mix-blend-mode:soft-light">
<path fill-rule="evenodd" clip-rule="evenodd" d="M8.64191 6.35739L9.55519 5.1559C9.76861 4.87512 10.191 4.87512 10.4044 5.1559L11.3177 6.35739C11.4653 6.55167 11.4623 6.82145 11.3102 7.01238L10.397 8.15922C10.1835 8.42736 9.77611 8.42736 9.56255 8.15922L8.64934 7.01238C8.49727 6.82145 8.49427 6.55167 8.64191 6.35739ZM8.90727 6.5591L9.82054 5.35761C9.90061 5.25233 10.059 5.25233 10.139 5.35761L11.0523 6.5591C11.1077 6.63195 11.1065 6.7331 11.0495 6.80474L10.1363 7.95158C10.0562 8.05215 9.9034 8.05215 9.82333 7.95158L8.91005 6.80474C8.85305 6.7331 8.85191 6.63195 8.90727 6.5591Z" fill="white"/>
</g>
</g>
<path d="M9.82122 5.35832L8.90794 6.5598C8.85258 6.63266 8.85373 6.7338 8.91073 6.80544L9.824 7.95229C9.90407 8.05286 10.0569 8.05286 10.1369 7.95229L11.0502 6.80544C11.1072 6.7338 11.1083 6.63266 11.053 6.5598L10.1397 5.35832C10.0596 5.25296 9.90129 5.25296 9.82122 5.35832Z" fill="#FF9F0A"/>
<g style="mix-blend-mode:overlay">
<path d="M9.82122 5.35832L8.90794 6.5598C8.85258 6.63266 8.85373 6.7338 8.91073 6.80544L9.824 7.95229C9.90407 8.05286 10.0569 8.05286 10.1369 7.95229L11.0502 6.80544C11.1072 6.7338 11.1083 6.63266 11.053 6.5598L10.1397 5.35832C10.0596 5.25296 9.90129 5.25296 9.82122 5.35832Z" fill="url(#paint5_linear_10967_3512)"/>
</g>
</g>
</g>
<defs>
<filter id="filter0_i_10967_3512" x="0" y="1.78629" width="20" height="13.0614" filterUnits="userSpaceOnUse" color-interpolation-filters="sRGB">
<feFlood flood-opacity="0" result="BackgroundImageFix"/>
<feBlend mode="normal" in="SourceGraphic" in2="BackgroundImageFix" result="shape"/>
<feColorMatrix in="SourceAlpha" type="matrix" values="0 0 0 0 0 0 0 0 0 0 0 0 0 0 0 0 0 0 127 0" result="hardAlpha"/>
<feOffset dy="-1.42855"/>
<feGaussianBlur stdDeviation="1.42855"/>
<feComposite in2="hardAlpha" operator="arithmetic" k2="-1" k3="1"/>
<feColorMatrix type="matrix" values="0 0 0 0 1 0 0 0 0 1 0 0 0 0 1 0 0 0 1 0"/>
<feBlend mode="overlay" in2="shape" result="effect1_innerShadow_10967_3512"/>
</filter>
<linearGradient id="paint0_linear_10967_3512" x1="2.50118" y1="5.00213" x2="17.501" y2="5.00213" gradientUnits="userSpaceOnUse">
<stop stop-color="white" stop-opacity="0"/>
<stop offset="0.182094" stop-color="white"/>
<stop offset="0.83449" stop-color="white"/>
<stop offset="1" stop-color="white" stop-opacity="0"/>
</linearGradient>
<linearGradient id="paint1_linear_10967_3512" x1="-1.66614" y1="9.04813" x2="21.6669" y2="9.04813" gradientUnits="userSpaceOnUse">
<stop stop-color="white"/>
<stop offset="0.249953" stop-color="white" stop-opacity="0"/>
<stop offset="0.494792" stop-color="white"/>
<stop offset="0.72541" stop-color="white" stop-opacity="0"/>
<stop offset="1" stop-color="white"/>
</linearGradient>
<linearGradient id="paint2_linear_10967_3512" x1="10.0004" y1="3.21484" x2="10.0004" y2="12.7981" gradientUnits="userSpaceOnUse">
<stop stop-color="white"/>
<stop offset="1" stop-color="white" stop-opacity="0"/>
</linearGradient>
<linearGradient id="paint3_linear_10967_3512" x1="1.25043" y1="15.2972" x2="18.7502" y2="15.2972" gradientUnits="userSpaceOnUse">
<stop stop-color="white"/>
<stop offset="1" stop-color="white" stop-opacity="0"/>
</linearGradient>
<linearGradient id="paint4_linear_10967_3512" x1="2.91624" y1="15.298" x2="17.4994" y2="15.298" gradientUnits="userSpaceOnUse">
<stop/>
<stop offset="0.203125" stop-opacity="0"/>
<stop offset="0.484375"/>
<stop offset="0.770833" stop-opacity="0"/>
<stop offset="1"/>
</linearGradient>
<linearGradient id="paint5_linear_10967_3512" x1="9.28051" y1="5.58217" x2="10.7805" y2="7.11544" gradientUnits="userSpaceOnUse">
<stop stop-color="white"/>
<stop offset="1" stop-color="white" stop-opacity="0"/>
</linearGradient>
<clipPath id="clip0_10967_3512">
<rect width="20" height="20" fill="white"/>
</clipPath>
</defs>
</svg>
