<svg width="24" height="24" viewBox="0 0 24 24" fill="none" xmlns="http://www.w3.org/2000/svg">
<g clip-path="url(#clip0_12072_3526)">
<path d="M21.8836 11.9998L23.3416 9.72633C23.4939 9.48903 23.5389 9.19899 23.4656 8.9275C23.3934 8.65602 23.2088 8.4275 22.9588 8.29762L20.5594 7.05739L20.6854 4.36012C20.6981 4.07887 20.5926 3.80543 20.3934 3.60621C20.1941 3.40601 19.9148 3.29078 19.6395 3.31422L16.9417 3.4402L15.7015 1.04079C15.5726 0.790784 15.3441 0.606214 15.0721 0.533944C14.7996 0.461674 14.5106 0.505624 14.2737 0.657964L11.9999 2.11598L9.72596 0.657974C9.48914 0.505634 9.19813 0.461684 8.92762 0.533954C8.65565 0.606224 8.42713 0.790794 8.29823 1.0408L7.058 3.44021L4.35976 3.31423C4.08095 3.29275 3.80556 3.40603 3.60634 3.60622C3.40712 3.80544 3.30116 4.07888 3.31435 4.36013L3.43984 7.0574L1.04043 8.29763C0.790424 8.42751 0.606834 8.65603 0.534074 8.92751C0.461314 9.19899 0.506244 9.48903 0.658094 9.72634L2.11562 11.9998L0.658084 14.2732C0.506224 14.5105 0.461304 14.8006 0.534064 15.0721C0.606824 15.3435 0.790414 15.5721 1.04042 15.7019L3.43983 16.9422L3.31434 19.6394C3.30116 19.9207 3.40711 20.1941 3.60633 20.3933C3.80555 20.5935 4.07947 20.7029 4.35975 20.6853L7.05799 20.5594L8.29821 22.9588C8.42712 23.2088 8.65564 23.3933 8.92761 23.4656C9.19812 23.5359 9.48913 23.4939 9.72595 23.3416L11.9999 21.8836L14.2737 23.3416C14.4363 23.4461 14.6238 23.4998 14.8133 23.4998C14.8997 23.4998 14.9871 23.4881 15.0721 23.4656C15.344 23.3933 15.5725 23.2088 15.7014 22.9588L16.9417 20.5594L19.6394 20.6853C19.9168 20.7049 20.1951 20.5935 20.3933 20.3933C20.5926 20.1941 20.698 19.9207 20.6853 19.6394L20.5593 16.9422L22.9588 15.7019C23.2088 15.5721 23.3933 15.3435 23.4656 15.0721C23.5388 14.8006 23.4939 14.5105 23.3416 14.2732L21.8836 11.9998ZM17.207 9.70693L11.207 15.7069C11.0117 15.9023 10.7558 15.9999 10.5 15.9999C10.2441 15.9999 9.98829 15.9023 9.79298 15.7069L6.79298 12.7069C6.40236 12.3163 6.40236 11.6835 6.79298 11.2929C7.1836 10.9023 7.81642 10.9023 8.20704 11.2929L10.5 13.5859L15.793 8.29287C16.1836 7.90225 16.8164 7.90225 17.207 8.29287C17.5976 8.68349 17.5976 9.31631 17.207 9.70693Z" fill="#0095F6"/>
</g>
<defs>
<clipPath id="clip0_12072_3526">
<rect width="24" height="24" fill="white"/>
</clipPath>
</defs>
</svg>
