<svg width="24" height="24" viewBox="0 0 24 24" fill="none" xmlns="http://www.w3.org/2000/svg">
<path d="M15.3123 10.6155C15.6233 10.6155 15.8862 10.5066 16.101 10.2887C16.3157 10.0709 16.423 9.8065 16.423 9.4955C16.423 9.18433 16.3142 8.92142 16.0965 8.70675C15.8787 8.49192 15.6143 8.3845 15.3033 8.3845C14.9921 8.3845 14.7292 8.49342 14.5145 8.71125C14.2997 8.92908 14.1923 9.1935 14.1923 9.5045C14.1923 9.81567 14.3012 10.0786 14.519 10.2932C14.7367 10.5081 15.0011 10.6155 15.3123 10.6155ZM8.69675 10.6155C9.00792 10.6155 9.27083 10.5066 9.4855 10.2887C9.70033 10.0709 9.80775 9.8065 9.80775 9.4955C9.80775 9.18433 9.69883 8.92142 9.481 8.70675C9.26333 8.49192 8.99892 8.3845 8.68775 8.3845C8.37675 8.3845 8.11383 8.49342 7.899 8.71125C7.68433 8.92908 7.577 9.1935 7.577 9.5045C7.577 9.81567 7.68583 10.0786 7.9035 10.2932C8.12133 10.5081 8.38575 10.6155 8.69675 10.6155ZM12 16.8845C12.9538 16.8845 13.8323 16.6214 14.6355 16.0953C15.4388 15.5689 16.0424 14.8705 16.4462 14H15.45C15.0833 14.6167 14.5958 15.1042 13.9875 15.4625C13.3792 15.8208 12.7167 16 12 16C11.2833 16 10.6208 15.8208 10.0125 15.4625C9.40417 15.1042 8.91667 14.6167 8.55 14H7.55375C7.95758 14.8705 8.56117 15.5689 9.3645 16.0953C10.1677 16.6214 11.0462 16.8845 12 16.8845ZM12.0033 21C10.7588 21 9.58867 20.7638 8.493 20.2915C7.3975 19.8192 6.4445 19.1782 5.634 18.3685C4.8235 17.5588 4.18192 16.6067 3.70925 15.512C3.23642 14.4175 3 13.2479 3 12.0033C3 10.7588 3.23617 9.58867 3.7085 8.493C4.18083 7.3975 4.82183 6.4445 5.6315 5.634C6.44117 4.8235 7.39333 4.18192 8.488 3.70925C9.5825 3.23642 10.7521 3 11.9967 3C13.2413 3 14.4113 3.23617 15.507 3.7085C16.6025 4.18083 17.5555 4.82183 18.366 5.6315C19.1765 6.44117 19.8181 7.39333 20.2908 8.488C20.7636 9.5825 21 10.7521 21 11.9967C21 13.2413 20.7638 14.4113 20.2915 15.507C19.8192 16.6025 19.1782 17.5555 18.3685 18.366C17.5588 19.1765 16.6067 19.8181 15.512 20.2908C14.4175 20.7636 13.2479 21 12.0033 21ZM12 20C14.2333 20 16.125 19.225 17.675 17.675C19.225 16.125 20 14.2333 20 12C20 9.76667 19.225 7.875 17.675 6.325C16.125 4.775 14.2333 4 12 4C9.76667 4 7.875 4.775 6.325 6.325C4.775 7.875 4 9.76667 4 12C4 14.2333 4.775 16.125 6.325 17.675C7.875 19.225 9.76667 20 12 20Z" fill="#1F1F1F"/>
</svg>
