<svg width="24" height="24" viewBox="0 0 24 24" fill="none" xmlns="http://www.w3.org/2000/svg">
<path d="M5.6155 20C5.15517 20 4.77083 19.8458 4.4625 19.5375C4.15417 19.2292 4 18.8448 4 18.3845V5.6155C4 5.15517 4.15417 4.77083 4.4625 4.4625C4.77083 4.15417 5.15517 4 5.6155 4H18.3845C18.8448 4 19.2292 4.15417 19.5375 4.4625C19.8458 4.77083 20 5.15517 20 5.6155V18.3845C20 18.8448 19.8458 19.2292 19.5375 19.5375C19.2292 19.8458 18.8448 20 18.3845 20H5.6155ZM5.6155 19H18.3845C18.5385 19 18.6796 18.9359 18.8077 18.8077C18.9359 18.6796 19 18.5385 19 18.3845V5.6155C19 5.4615 18.9359 5.32042 18.8077 5.19225C18.6796 5.06408 18.5385 5 18.3845 5H5.6155C5.4615 5 5.32042 5.06408 5.19225 5.19225C5.06408 5.32042 5 5.4615 5 5.6155V18.3845C5 18.5385 5.06408 18.6796 5.19225 18.8077C5.32042 18.9359 5.4615 19 5.6155 19Z" fill="#1F1F1F"/>
<path d="M11.3333 14V10H12.3333V14H11.3333ZM7.66667 14C7.46667 14 7.30556 13.9306 7.18333 13.7917C7.06111 13.6528 7 13.5 7 13.3333V10.6667C7 10.5 7.06111 10.3472 7.18333 10.2083C7.30556 10.0694 7.46667 10 7.66667 10H9.66667C9.86667 10 10.0278 10.0694 10.15 10.2083C10.2722 10.3472 10.3333 10.5 10.3333 10.6667V11H8V13H9.33333V12H10.3333V13.3333C10.3333 13.5 10.2722 13.6528 10.15 13.7917C10.0278 13.9306 9.86667 14 9.66667 14H7.66667ZM13.3333 14V10H16.3333V11H14.3333V11.6667H15.6667V12.6667H14.3333V14H13.3333Z" fill="#1F1F1F"/>
</svg>
