<svg width="24" height="24" viewBox="0 0 24 24" fill="none" xmlns="http://www.w3.org/2000/svg">
<path d="M12 10H16.6155V9H12V10ZM12 15H16.6155V14H12V15ZM9 10.7307C9.34483 10.7307 9.63617 10.6118 9.874 10.374C10.1118 10.1362 10.2308 9.84483 10.2308 9.5C10.2308 9.15517 10.1118 8.86383 9.874 8.626C9.63617 8.38817 9.34483 8.26925 9 8.26925C8.65517 8.26925 8.36383 8.38817 8.126 8.626C7.88817 8.86383 7.76925 9.15517 7.76925 9.5C7.76925 9.84483 7.88817 10.1362 8.126 10.374C8.36383 10.6118 8.65517 10.7307 9 10.7307ZM9 15.7308C9.34483 15.7308 9.63617 15.6118 9.874 15.374C10.1118 15.1362 10.2308 14.8448 10.2308 14.5C10.2308 14.1552 10.1118 13.8638 9.874 13.626C9.63617 13.3882 9.34483 13.2692 9 13.2692C8.65517 13.2692 8.36383 13.3882 8.126 13.626C7.88817 13.8638 7.76925 14.1552 7.76925 14.5C7.76925 14.8448 7.88817 15.1362 8.126 15.374C8.36383 15.6118 8.65517 15.7308 9 15.7308ZM5.6155 20C5.15517 20 4.77083 19.8458 4.4625 19.5375C4.15417 19.2292 4 18.8448 4 18.3845V5.6155C4 5.15517 4.15417 4.77083 4.4625 4.4625C4.77083 4.15417 5.15517 4 5.6155 4H18.3845C18.8448 4 19.2292 4.15417 19.5375 4.4625C19.8458 4.77083 20 5.15517 20 5.6155V18.3845C20 18.8448 19.8458 19.2292 19.5375 19.5375C19.2292 19.8458 18.8448 20 18.3845 20H5.6155ZM5.6155 19H18.3845C18.5385 19 18.6796 18.9359 18.8077 18.8077C18.9359 18.6796 19 18.5385 19 18.3845V5.6155C19 5.4615 18.9359 5.32042 18.8077 5.19225C18.6796 5.06408 18.5385 5 18.3845 5H5.6155C5.4615 5 5.32042 5.06408 5.19225 5.19225C5.06408 5.32042 5 5.4615 5 5.6155V18.3845C5 18.5385 5.06408 18.6796 5.19225 18.8077C5.32042 18.9359 5.4615 19 5.6155 19Z" fill="#1F1F1F"/>
</svg>
