<svg width="48" height="48" viewBox="0 0 48 48" fill="none" xmlns="http://www.w3.org/2000/svg">
<path d="M48 24C48 10.7452 37.2548 0 24 0C10.7452 0 0 10.7452 0 24C0 37.2548 10.7452 48 24 48C37.2548 48 48 37.2548 48 24Z" fill="#415293"/>
<path d="M15.2782 37.4902H32.3926C34.7533 37.4902 35.8924 36.8154 35.8924 35.3534C35.8924 31.9297 31.1987 27.3312 23.8285 27.3312C16.4585 27.3312 11.7647 31.9297 11.7647 35.3534C11.7647 36.8154 12.9038 37.4902 15.2782 37.4902Z" fill="white"/>
<path d="M23.903 20.9825C26.7084 20.9825 28.9825 18.7084 28.9825 15.903C28.9825 13.0977 26.7084 10.8235 23.903 10.8235C21.0977 10.8235 18.8235 13.0977 18.8235 15.903C18.8235 18.7084 21.0977 20.9825 23.903 20.9825Z" fill="white"/>
</svg>
