<svg width="100" height="100" viewBox="0 0 100 100" fill="none" xmlns="http://www.w3.org/2000/svg">
<rect width="100" height="100" rx="21.4286" fill="url(#paint0_linear_10676_2633)"/>
<path d="M53.7078 39.3987V51.6149L58.9046 45.7531V39.3987H53.7078Z" fill="white"/>
<path d="M62.5221 51.9879C62.348 52.1884 62.1767 52.3359 62.0079 52.5289V69.5452H67.2786V59.308C64.8188 57.6446 63.0565 55.0278 62.5221 51.9879Z" fill="white"/>
<path d="M44.3486 39.3987H39.2256V52.2799C39.3734 58.3634 45.9987 61.7376 50.4567 61.0973C54.6556 60.3505 57.3391 57.869 62.0079 52.5289C62.1767 52.3359 62.348 52.1884 62.5221 51.9879C62.4108 51.3549 62.3527 50.7035 62.3527 50.0386C62.3527 46.08 64.4707 42.568 67.5742 40.5809V40.5761C68.9544 39.7049 70.5384 39.1273 72.2385 38.9311C67.7607 39.4479 64.8014 41.8282 62.3035 44.4231C55.7001 51.9509 50.0803 59.2033 45.8133 54.4897C44.6438 53.1978 44.3486 51.3714 44.3486 49.6288V39.3987Z" fill="white"/>
<path d="M16 61.0973V31H21.1229V40.507C28.7581 37.1081 35.1125 42.1079 35.7529 48.5362V61.0973H30.5314V48.5362C29.6643 43.2529 22.4484 43.2369 21.1229 48.5362V61.0973H16Z" fill="white"/>
<path fill-rule="evenodd" clip-rule="evenodd" d="M73.5345 61.2204C79.7101 61.2204 84.7163 56.2141 84.7163 50.0386C84.7163 43.8631 79.7101 38.8568 73.5345 38.8568C73.0804 38.8714 72.649 38.8964 72.2385 38.9311C70.5384 39.1273 68.9544 39.7049 67.5742 40.5761V40.5809C64.4707 42.568 62.3527 46.08 62.3527 50.0386C62.3527 50.7035 62.4108 51.3549 62.5221 51.9879C63.0565 55.0278 64.8188 57.6446 67.2786 59.308C69.0641 60.5153 71.217 61.2204 73.5345 61.2204ZM79.5934 49.9647C79.5934 53.3381 76.8587 56.0728 73.4853 56.0728C70.1119 56.0728 67.3772 53.3381 67.3772 49.9647C67.3772 46.5913 70.1119 43.8566 73.4853 43.8566C76.8587 43.8566 79.5934 46.5913 79.5934 49.9647Z" fill="white"/>
<defs>
<linearGradient id="paint0_linear_10676_2633" x1="7.14286" y1="-6.67131e-07" x2="85.7143" y2="89.2857" gradientUnits="userSpaceOnUse">
<stop stop-color="#F093FB"/>
<stop offset="1" stop-color="#F5576D"/>
</linearGradient>
</defs>
</svg>
