<svg width="19" height="19" viewBox="0 0 19 19" fill="none" xmlns="http://www.w3.org/2000/svg">
<g clip-path="url(#clip0_11403_3510)">
<path d="M17.0896 12.8542C17.0174 13.2877 16.9922 14.1801 16.8891 14.5471C16.8084 14.8346 16.7296 15.0775 16.6411 15.2936C16.2214 16.3179 14.806 16.202 13.9541 15.4952C11.8937 13.7857 8.28413 11.3714 5.44949 11.519C3.60077 11.519 2.78465 12.2548 1.47494 12.2178C0.462718 12.1892 0.419922 11.1693 0.419922 10.7244C0.419922 9.17653 1.55033 6.94269 2.39622 5.63901C2.67061 5.21613 3.12172 4.94231 3.62544 4.92276C5.66983 4.84342 8.66443 5.47836 10.0552 6.05475C11.8626 6.80357 17.4744 5.01346 18.0656 8.17702C18.2021 8.90739 17.2879 11.6646 17.0896 12.8542Z" fill="black"/>
<path d="M14.058 15.0766C14.4647 16.1472 13.7261 17.689 12.6525 18.0969C11.5789 18.5048 9.97219 17.4182 9.56548 16.3476C9.15877 15.2771 9.77171 14.2689 10.8453 13.861C11.9189 13.4531 13.6513 14.006 14.058 15.0766Z" fill="black"/>
<path d="M16.1482 13.3755C16.1482 13.863 16.1166 14.213 16.0252 14.5038C15.7046 15.5235 14.2244 15.3297 13.4078 14.6399C11.4713 13.0043 8.09993 10.6446 5.47208 10.7749C3.751 10.7749 2.66578 11.6538 1.4465 11.621C0.504158 11.5956 0.512209 10.9941 0.512209 10.5999C0.512209 9.23607 1.64547 6.9475 2.46251 5.68117C2.72975 5.26697 3.17402 5.00709 3.66657 4.98787C5.59647 4.9126 8.47182 5.42447 9.75981 5.93258C11.831 6.74937 16.1482 10.5561 16.1482 13.3755Z" fill="white"/>
<path d="M15.582 12.1152C15.6921 12.1152 15.8002 12.1235 15.9062 12.1357C16.0599 12.5619 16.1484 12.9788 16.1484 13.3769C16.1484 13.8644 16.1168 14.215 16.0254 14.5058C15.7047 15.5253 14.2248 15.3312 13.4082 14.6415C13.3452 14.5883 13.2799 14.5351 13.2139 14.4804C13.1939 14.3745 13.1816 14.2659 13.1816 14.1552C13.1819 13.0287 14.2565 12.1152 15.582 12.1152Z" fill="white"/>
<path d="M17.9817 8.24081C17.9817 11.3515 17.1424 10.8142 16.0904 12.9186C15.6712 10.8984 15.167 13.4239 12.5545 15.1431C11.8449 15.61 11.9395 15.5824 11.4869 15.1431C11.4869 13.1212 10.9114 8.11089 10.1555 7.06238C9.27167 5.83629 5.67494 4.9975 3.70166 4.9975C5.38393 2.01499 5.34726 0.160191 6.8624 0.160156C8.88383 0.160156 10.56 3.64445 13.0575 4.53716C15.9769 5.58066 17.9817 6.56434 17.9817 8.24081Z" fill="#D8001B"/>
<path d="M13.0395 15.0394C13.3799 15.9354 13.0052 17.1367 12.1093 17.4771C11.2133 17.8175 10.1354 17.1679 9.79511 16.272C9.45474 15.3761 9.96563 14.5331 10.8615 14.1928C11.7575 13.8524 12.6992 14.1435 13.0395 15.0394Z" fill="white"/>
<path d="M17.9771 8.11231C17.9796 8.15419 17.9819 8.19649 17.9819 8.23926C17.9819 11.3499 17.1423 10.8126 16.0903 12.917C15.9222 12.107 15.7423 12.0294 15.4165 12.3359C16.0977 11.4496 17.5889 10.3384 17.9565 8.11133C17.9634 8.11134 17.9702 8.11209 17.9771 8.11231Z" fill="black"/>
</g>
<defs>
<clipPath id="clip0_11403_3510">
<rect width="19" height="19" fill="white"/>
</clipPath>
</defs>
</svg>
