<svg width="28" height="18" viewBox="0 0 28 18" fill="none" xmlns="http://www.w3.org/2000/svg">
<rect width="28" height="18" rx="1" fill="black"/>
<path d="M4.76314 13V5.08L5.99514 4.926L6.02814 5.014V8.864L5.63214 8.842C5.74947 8.51933 5.91814 8.24433 6.13814 8.017C6.35814 7.78233 6.6148 7.60267 6.90814 7.478C7.20147 7.346 7.52047 7.28 7.86514 7.28C8.26114 7.28 8.6168 7.368 8.93214 7.544C9.2548 7.71267 9.5078 7.96567 9.69114 8.303C9.8818 8.633 9.97714 9.04733 9.97714 9.546V13H8.71214V9.931C8.71214 9.579 8.66447 9.293 8.56914 9.073C8.4738 8.853 8.33447 8.69167 8.15114 8.589C7.97514 8.48633 7.7698 8.435 7.53514 8.435C7.31514 8.435 7.0878 8.49 6.85314 8.6C6.6258 8.71 6.43147 8.89333 6.27014 9.15C6.1088 9.40667 6.02814 9.755 6.02814 10.195V13H4.76314ZM16.4736 7.445V13H15.2966V11.581L15.6156 11.603C15.4982 11.9257 15.3296 12.2043 15.1096 12.439C14.8896 12.6663 14.6329 12.846 14.3396 12.978C14.0462 13.1027 13.7272 13.165 13.3826 13.165C12.9866 13.165 12.6272 13.0807 12.3046 12.912C11.9892 12.736 11.7362 12.4793 11.5456 12.142C11.3549 11.8047 11.2596 11.3867 11.2596 10.888V7.445H12.5246V10.514C12.5246 10.8587 12.5722 11.141 12.6676 11.361C12.7702 11.581 12.9096 11.746 13.0856 11.856C13.2689 11.9587 13.4779 12.01 13.7126 12.01C13.9326 12.01 14.1562 11.955 14.3836 11.845C14.6182 11.7277 14.8126 11.5407 14.9666 11.284C15.1279 11.0273 15.2086 10.679 15.2086 10.239V7.445H16.4736ZM20.9143 13.165C20.5036 13.165 20.137 13.0807 19.8143 12.912C19.4916 12.7433 19.2203 12.5233 19.0003 12.252C18.7876 11.9807 18.6373 11.691 18.5493 11.383V9.051C18.6373 8.73567 18.7876 8.446 19.0003 8.182C19.2203 7.91067 19.4916 7.69433 19.8143 7.533C20.137 7.36433 20.5036 7.28 20.9143 7.28C21.4203 7.28 21.8713 7.40833 22.2673 7.665C22.6706 7.91433 22.9896 8.259 23.2243 8.699C23.4663 9.139 23.5873 9.645 23.5873 10.217C23.5873 10.789 23.4663 11.2987 23.2243 11.746C22.9896 12.186 22.6706 12.5343 22.2673 12.791C21.8713 13.0403 21.4203 13.165 20.9143 13.165ZM17.8673 15.2V7.445H19.0553V9.161L18.7913 10.217L19.1323 11.284V15.2H17.8673ZM20.7273 12.01C21.0426 12.01 21.3177 11.9367 21.5523 11.79C21.7943 11.636 21.9813 11.4233 22.1133 11.152C22.2527 10.8807 22.3223 10.569 22.3223 10.217C22.3223 9.865 22.2527 9.557 22.1133 9.293C21.9813 9.02167 21.7943 8.809 21.5523 8.655C21.3177 8.501 21.0426 8.424 20.7273 8.424C20.412 8.424 20.1296 8.501 19.8803 8.655C19.6383 8.809 19.4476 9.02167 19.3083 9.293C19.1763 9.557 19.1103 9.865 19.1103 10.217C19.1103 10.569 19.1763 10.8807 19.3083 11.152C19.4476 11.4233 19.6383 11.636 19.8803 11.79C20.1296 11.9367 20.412 12.01 20.7273 12.01Z" fill="white"/>
</svg>
