<svg width="48" height="26" viewBox="0 0 48 26" fill="none" xmlns="http://www.w3.org/2000/svg">
<path d="M26.3397 5.70781V13.8993L29.9698 9.96869V5.70781H26.3397Z" fill="black"/>
<path d="M32.4967 14.1494C32.3751 14.2838 32.2554 14.3827 32.1375 14.5121V25.9222H35.8192V19.0578C34.101 17.9424 32.8699 16.1877 32.4967 14.1494Z" fill="black"/>
<path d="M19.8021 5.70781H16.2236V14.3452C16.3268 18.4244 20.9548 20.687 24.0687 20.2576C27.0018 19.7569 28.8762 18.0929 32.1375 14.5121C32.2554 14.3827 32.3751 14.2838 32.4967 14.1494C32.4189 13.7249 32.3784 13.2882 32.3784 12.8423C32.3784 10.1879 33.8578 7.83294 36.0257 6.50053V6.49731C36.9898 5.91315 38.0962 5.52587 39.2838 5.39429C36.156 5.74084 34.0888 7.33692 32.344 9.07688C27.7314 14.1246 23.8058 18.9876 20.8252 15.8269C20.0083 14.9607 19.8021 13.736 19.8021 12.5675V5.70781Z" fill="black"/>
<path d="M0 20.2576V0.0761719H3.57848V6.45098C8.9118 4.17191 13.3505 7.52446 13.7978 11.8349V20.2576H10.1505V11.8349C9.54483 8.29224 4.50438 8.28151 3.57848 11.8349V20.2576H0Z" fill="black"/>
<path fill-rule="evenodd" clip-rule="evenodd" d="M40.1891 20.3401C44.5028 20.3401 47.9998 16.9832 47.9998 12.8423C47.9998 8.70137 44.5028 5.34447 40.1891 5.34447C39.8719 5.35426 39.5706 5.37101 39.2838 5.39429C38.0962 5.52587 36.9898 5.91315 36.0257 6.49731V6.50053C33.8578 7.83294 32.3784 10.1879 32.3784 12.8423C32.3784 13.2882 32.4189 13.7249 32.4967 14.1494C32.8699 16.1877 34.101 17.9424 35.8192 19.0578C37.0664 19.8674 38.5702 20.3401 40.1891 20.3401ZM44.4213 12.7928C44.4213 15.0548 42.5111 16.8885 40.1547 16.8885C37.7983 16.8885 35.888 15.0548 35.888 12.7928C35.888 10.5308 37.7983 8.69703 40.1547 8.69703C42.5111 8.69703 44.4213 10.5308 44.4213 12.7928Z" fill="black"/>
</svg>
