<svg width="53" height="51" viewBox="0 0 53 51" fill="none" xmlns="http://www.w3.org/2000/svg">
<path d="M48.934 10.5205C48.934 13.8466 46.2377 16.543 42.9115 16.543C39.5853 16.543 36.8889 13.8466 36.8889 10.5205C36.8889 7.1944 39.5853 4.49805 42.9115 4.49805C46.2377 4.49805 48.934 7.1944 48.934 10.5205Z" fill="url(#paint0_linear_12033_3585)"/>
<path d="M32.3008 21.1335C32.3008 20.1832 33.0712 19.4128 34.0215 19.4128H51.2288C52.1791 19.4128 52.9495 20.1832 52.9495 21.1335V33.1783C52.9495 38.8803 48.3271 43.5027 42.6251 43.5027C36.9232 43.5027 32.3008 38.8803 32.3008 33.1783V21.1335Z" fill="url(#paint1_linear_12033_3585)"/>
<path d="M16.6333 10.5225C16.6333 13.8486 13.9369 16.5449 10.6107 16.5449C7.28455 16.5449 4.58817 13.8486 4.58817 10.5225C4.58817 7.19635 7.28455 4.5 10.6107 4.5C13.9369 4.5 16.6333 7.19635 16.6333 10.5225Z" fill="url(#paint2_linear_12033_3585)"/>
<path d="M0 21.1354C0 20.1851 0.77038 19.4148 1.72069 19.4148H18.928C19.8783 19.4148 20.6487 20.1851 20.6487 21.1354V33.1803C20.6487 38.8823 16.0263 43.5046 10.3244 43.5046C4.62237 43.5046 0 38.8823 0 33.1803V21.1354Z" fill="url(#paint3_linear_12033_3585)"/>
<path d="M34.7505 7.87554C34.7505 12.2251 31.2245 15.7511 26.875 15.7511C22.5255 15.7511 18.9995 12.2251 18.9995 7.87554C18.9995 3.526 22.5255 0 26.875 0C31.2245 0 34.7505 3.526 34.7505 7.87554Z" fill="url(#paint4_linear_12033_3585)"/>
<path d="M13 21.7528C13 20.51 14.0074 19.5026 15.2501 19.5026H37.7516C38.9944 19.5026 40.0018 20.51 40.0018 21.7528V37.5039C40.0018 44.9602 33.9572 51.0048 26.5009 51.0048C19.0446 51.0048 13 44.9602 13 37.5039V21.7528Z" fill="url(#paint5_linear_12033_3585)"/>
<defs>
<linearGradient id="paint0_linear_12033_3585" x1="38.7272" y1="29.7101" x2="52.0529" y2="23.7624" gradientUnits="userSpaceOnUse">
<stop stop-color="#346BF1"/>
<stop offset="0.372" stop-color="#3186FF"/>
<stop offset="0.777" stop-color="#4FA0FF"/>
</linearGradient>
<linearGradient id="paint1_linear_12033_3585" x1="38.7272" y1="29.7101" x2="52.0529" y2="23.7624" gradientUnits="userSpaceOnUse">
<stop stop-color="#346BF1"/>
<stop offset="0.372" stop-color="#3186FF"/>
<stop offset="0.777" stop-color="#4FA0FF"/>
</linearGradient>
<linearGradient id="paint2_linear_12033_3585" x1="6.42638" y1="29.7121" x2="19.7521" y2="23.7643" gradientUnits="userSpaceOnUse">
<stop stop-color="#346BF1"/>
<stop offset="0.372" stop-color="#3186FF"/>
<stop offset="0.777" stop-color="#4FA0FF"/>
</linearGradient>
<linearGradient id="paint3_linear_12033_3585" x1="6.42638" y1="29.7121" x2="19.7521" y2="23.7643" gradientUnits="userSpaceOnUse">
<stop stop-color="#346BF1"/>
<stop offset="0.372" stop-color="#3186FF"/>
<stop offset="0.777" stop-color="#4FA0FF"/>
</linearGradient>
<linearGradient id="paint4_linear_12033_3585" x1="21.4036" y1="39.8645" x2="35.1315" y2="29.9439" gradientUnits="userSpaceOnUse">
<stop stop-color="#346BF1"/>
<stop offset="0.372" stop-color="#3186FF"/>
<stop offset="0.777" stop-color="#4FA0FF"/>
</linearGradient>
<linearGradient id="paint5_linear_12033_3585" x1="21.4036" y1="39.8645" x2="35.1315" y2="29.9439" gradientUnits="userSpaceOnUse">
<stop stop-color="#346BF1"/>
<stop offset="0.372" stop-color="#3186FF"/>
<stop offset="0.777" stop-color="#4FA0FF"/>
</linearGradient>
</defs>
</svg>
