<svg width="24" height="18" viewBox="0 0 24 18" fill="none" xmlns="http://www.w3.org/2000/svg">
<rect width="24" height="18" rx="1" fill="black"/>
<path d="M4.32617 3.97266H5.79017V4.08066C5.75017 4.12866 5.72217 4.18466 5.70617 4.24866C5.69817 4.30466 5.69417 4.39666 5.69417 4.52466V7.17666C5.89417 6.88866 6.14217 6.67266 6.43817 6.52866C6.73417 6.38466 7.03017 6.31266 7.32617 6.31266C7.86217 6.31266 8.29417 6.49666 8.62217 6.86466C8.95017 7.22466 9.11417 7.82066 9.11417 8.65266V12.0247H7.74617V8.67666C7.74617 8.18866 7.67417 7.84866 7.53017 7.65666C7.39417 7.45666 7.20617 7.35666 6.96617 7.35666C6.62217 7.35666 6.32217 7.48866 6.06617 7.75266C5.81817 8.00866 5.69417 8.36466 5.69417 8.82066V12.0247H4.32617V3.97266Z" fill="white"/>
<path d="M11.3702 12.1687C10.8022 12.1687 10.3342 11.9767 9.96617 11.5927C9.59817 11.2087 9.41417 10.5847 9.41417 9.72066V6.44466H10.7822V9.72066C10.7822 10.2167 10.8622 10.5687 11.0222 10.7767C11.1902 10.9767 11.3982 11.0767 11.6462 11.0767C11.9822 11.0767 12.2542 10.9567 12.4622 10.7167C12.6782 10.4767 12.7862 10.1127 12.7862 9.62466V6.44466H14.1422V11.1367C14.1422 11.3127 14.1462 11.4727 14.1542 11.6167C14.1702 11.7527 14.2062 11.8887 14.2622 12.0247H13.0262C12.9622 11.9047 12.9262 11.7847 12.9182 11.6647C12.9102 11.5447 12.9062 11.4247 12.9062 11.3047C12.7382 11.5927 12.5142 11.8087 12.2342 11.9527C11.9622 12.0967 11.6742 12.1687 11.3702 12.1687Z" fill="white"/>
<path d="M14.5622 14.0287L14.5502 6.43266H15.8942V7.21266C16.0702 6.90066 16.2942 6.67266 16.5662 6.52866C16.8382 6.38466 17.1382 6.31266 17.4662 6.31266C17.8742 6.31266 18.2422 6.42466 18.5702 6.64866C18.9062 6.86466 19.1742 7.19266 19.3742 7.63266C19.5742 8.06466 19.6742 8.60466 19.6742 9.25266C19.6742 9.90866 19.5702 10.4527 19.3622 10.8847C19.1542 11.3167 18.8782 11.6407 18.5342 11.8567C18.1982 12.0647 17.8342 12.1687 17.4422 12.1687C17.1462 12.1687 16.8622 12.1167 16.5902 12.0127C16.3182 11.9087 16.1022 11.7527 15.9422 11.5447V14.0287H14.5622ZM17.0702 11.1127C17.3022 11.1127 17.5142 11.0527 17.7062 10.9327C17.8982 10.8127 18.0502 10.6127 18.1622 10.3327C18.2742 10.0527 18.3302 9.66866 18.3302 9.18066C18.3302 8.62866 18.2222 8.19266 18.0062 7.87266C17.7982 7.55266 17.5102 7.38866 17.1422 7.38066C16.7582 7.37266 16.4582 7.52466 16.2422 7.83666C16.0342 8.14066 15.9302 8.64066 15.9302 9.33666C15.9462 10.5207 16.3262 11.1127 17.0702 11.1127Z" fill="white"/>
</svg>
