<svg width="51" height="51" viewBox="0 0 51 51" fill="none" xmlns="http://www.w3.org/2000/svg">
<g clip-path="url(#clip0_12065_3537)">
<path d="M0 0H51V51H0V0Z" fill="#0A0A0A"/>
<path d="M12.5 13.5223C12.5 13.2339 12.7339 13 13.0223 13H23.3493C23.6378 13 23.8716 13.2339 23.8716 13.5223V19.7141C23.8716 20.0026 24.1055 20.2365 24.394 20.2365H26.106C26.3945 20.2365 26.6284 20.0026 26.6284 19.7141V13.5223C26.6284 13.2339 26.8622 13 27.1507 13H38V37.8054C38 38.0938 37.7661 38.3277 37.4777 38.3277H27.1507C26.8622 38.3277 26.6284 38.0938 26.6284 37.8054V31.6136C26.6284 31.3251 26.3945 31.0912 26.106 31.0912H24.394C24.1055 31.0912 23.8716 31.3251 23.8716 31.6136V37.8054C23.8716 38.0938 23.6378 38.3277 23.3493 38.3277H13.0223C12.7339 38.3277 12.5 38.0938 12.5 37.8054V13.5223Z" fill="white"/>
</g>
<defs>
<clipPath id="clip0_12065_3537">
<rect width="51" height="51" rx="25.5" fill="white"/>
</clipPath>
</defs>
</svg>
