<svg width="229" height="229" viewBox="0 0 229 229" fill="none" xmlns="http://www.w3.org/2000/svg">
<g clip-path="url(#clip0_12241_4414)">
<path d="M92.8375 138.612C34.2991 107.62 59.4884 84.1113 84.6875 71.148C86.2393 70.3378 86.7576 68.0606 85.7529 65.9836C84.7483 63.9065 82.6179 62.8508 81.0053 63.6308L31.4246 87.6122C6.59679 99.621 -0.996675 135.301 14.4701 167.278L26.2454 191.623L103.066 144.93L92.8375 138.612Z" fill="url(#paint0_linear_12241_4414)"/>
<path d="M92.8375 138.612C34.2991 107.62 59.4884 84.1113 84.6875 71.148C86.2393 70.3378 86.7576 68.0606 85.7529 65.9836C84.7483 63.9065 82.6179 62.8508 81.0053 63.6308L31.4246 87.6122C6.59679 99.621 -0.996675 135.301 14.4701 167.278L26.2454 191.623L103.066 144.93L92.8375 138.612Z" fill="url(#paint1_radial_12241_4414)"/>
<path fill-rule="evenodd" clip-rule="evenodd" d="M87.3465 7L47 24.466V204.308L87.3465 221.832L128.741 204.308V175.198L155.231 187.133L182.594 175.198V53.6925L155.231 42.2231L128.741 53.6925V24.466L87.3465 7ZM88.5109 201.688V27.4352L110.809 36.9251V105.159H155.231V55.4973L170.892 62.5419V166.814L155.231 173.451V122.392H110.809V192.198L88.5109 201.688Z" fill="#191B1A"/>
<circle cx="81.8996" cy="168.899" r="56.9484" fill="#00041D"/>
<path d="M76.2774 110.978C74.4668 111.145 73.6427 111.651 73.457 111.883C74.1256 112.356 74.0838 113.241 73.9793 113.624L94.5229 118.499L113.325 121.911C113.5 121.18 113.36 120.205 111.898 119.369C95.1845 110.177 78.5407 110.769 76.2774 110.978Z" fill="url(#paint2_linear_12241_4414)"/>
<path d="M76.2774 110.978C74.4668 111.145 73.6427 111.651 73.457 111.883C74.1256 112.356 74.0838 113.241 73.9793 113.624L94.5229 118.499L113.325 121.911C113.5 121.18 113.36 120.205 111.898 119.369C95.1845 110.177 78.5407 110.769 76.2774 110.978Z" fill="url(#paint3_radial_12241_4414)"/>
<path d="M76.2774 110.978C74.4668 111.145 73.6427 111.651 73.457 111.883C74.1256 112.356 74.0838 113.241 73.9793 113.624L94.5229 118.499L113.325 121.911C113.5 121.18 113.36 120.205 111.898 119.369C95.1845 110.177 78.5407 110.769 76.2774 110.978Z" fill="url(#paint4_radial_12241_4414)"/>
<path d="M76.2774 110.978C74.4668 111.145 73.6427 111.651 73.457 111.883C74.1256 112.356 74.0838 113.241 73.9793 113.624L94.5229 118.499L113.325 121.911C113.5 121.18 113.36 120.205 111.898 119.369C95.1845 110.177 78.5407 110.769 76.2774 110.978Z" fill="url(#paint5_radial_12241_4414)"/>
<path d="M25.4234 186.572C25.1388 185.526 25.4872 184.808 25.6149 184.605L28.1219 184.03C31.7083 188.847 39.0761 198.634 39.8561 199.246C40.6361 199.859 41.0632 200.918 41.1792 201.37L51.2769 216.378C51.068 217.028 50.0791 218.014 47.795 216.761C37.3491 210.772 27.0425 192.526 25.4234 186.572Z" fill="url(#paint6_linear_12241_4414)"/>
<path d="M25.4234 186.572C25.1388 185.526 25.4872 184.808 25.6149 184.605L28.1219 184.03C31.7083 188.847 39.0761 198.634 39.8561 199.246C40.6361 199.859 41.0632 200.918 41.1792 201.37L51.2769 216.378C51.068 217.028 50.0791 218.014 47.795 216.761C37.3491 210.772 27.0425 192.526 25.4234 186.572Z" fill="url(#paint7_radial_12241_4414)"/>
<path d="M41.7021 126.176C41.0335 127.124 41.1101 127.645 41.1449 127.795L54.9683 123.304L74.0495 113.467C74.4952 112.102 73.3821 111.599 72.9527 111.552C70.1149 111.152 63.1858 112.475 55.5951 116.201C46.0894 121.336 42.5377 124.993 41.7021 126.176Z" fill="url(#paint8_radial_12241_4414)"/>
<path d="M41.7021 126.176C41.0335 127.124 41.1101 127.645 41.1449 127.795L54.9683 123.304L74.0495 113.467C74.4952 112.102 73.3821 111.599 72.9527 111.552C70.1149 111.152 63.1858 112.475 55.5951 116.201C46.0894 121.336 42.5377 124.993 41.7021 126.176Z" fill="url(#paint9_radial_12241_4414)"/>
<path d="M41.7021 126.176C41.0335 127.124 41.1101 127.645 41.1449 127.795L54.9683 123.304L74.0495 113.467C74.4952 112.102 73.3821 111.599 72.9527 111.552C70.1149 111.152 63.1858 112.475 55.5951 116.201C46.0894 121.336 42.5377 124.993 41.7021 126.176Z" fill="url(#paint10_radial_12241_4414)"/>
<path d="M41.7021 126.176C41.0335 127.124 41.1101 127.645 41.1449 127.795L54.9683 123.304L74.0495 113.467C74.4952 112.102 73.3821 111.599 72.9527 111.552C70.1149 111.152 63.1858 112.475 55.5951 116.201C46.0894 121.336 42.5377 124.993 41.7021 126.176Z" fill="url(#paint11_radial_12241_4414)"/>
<path d="M89.5271 226.597L90.2058 225.378L120.986 210.249C121.485 210.678 121.892 211.503 120.986 212.86C110.366 223.306 95.568 226.684 92.9913 227.067C91.5036 227.288 90.4221 227.256 89.7915 227.174C89.5146 227.137 89.3913 226.841 89.5271 226.597Z" fill="url(#paint12_radial_12241_4414)"/>
<path d="M89.5271 226.597L90.2058 225.378L120.986 210.249C121.485 210.678 121.892 211.503 120.986 212.86C110.366 223.306 95.568 226.684 92.9913 227.067C91.5036 227.288 90.4221 227.256 89.7915 227.174C89.5146 227.137 89.3913 226.841 89.5271 226.597Z" fill="url(#paint13_radial_12241_4414)"/>
<path d="M89.5271 226.597L90.2058 225.378L120.986 210.249C121.485 210.678 121.892 211.503 120.986 212.86C110.366 223.306 95.568 226.684 92.9913 227.067C91.5036 227.288 90.4221 227.256 89.7915 227.174C89.5146 227.137 89.3913 226.841 89.5271 226.597Z" fill="url(#paint14_radial_12241_4414)"/>
<path d="M89.5271 226.597L90.2058 225.378L120.986 210.249C121.485 210.678 121.892 211.503 120.986 212.86C110.366 223.306 95.568 226.684 92.9913 227.067C91.5036 227.288 90.4221 227.256 89.7915 227.174C89.5146 227.137 89.3913 226.841 89.5271 226.597Z" fill="url(#paint15_radial_12241_4414)"/>
<path d="M138.361 155.024C137.943 154.119 137.345 153.771 137.055 153.701L136.271 174.941V189.705C142.574 178.11 140.067 158.054 138.361 155.024Z" fill="url(#paint16_radial_12241_4414)"/>
<path d="M138.361 155.024C137.943 154.119 137.345 153.771 137.055 153.701L136.271 174.941V189.705C142.574 178.11 140.067 158.054 138.361 155.024Z" fill="url(#paint17_radial_12241_4414)"/>
<path d="M138.361 155.024C137.943 154.119 137.345 153.771 137.055 153.701L136.271 174.941V189.705C142.574 178.11 140.067 158.054 138.361 155.024Z" fill="url(#paint18_radial_12241_4414)"/>
<path d="M138.361 155.024C137.943 154.119 137.345 153.771 137.055 153.701L136.271 174.941V189.705C142.574 178.11 140.067 158.054 138.361 155.024Z" fill="url(#paint19_radial_12241_4414)"/>
<path d="M114.581 121.146C113.522 120.589 112.625 121.007 112.23 121.146L124.226 136.641L136.552 155.304C137.555 154.245 137.504 153.064 137.388 152.553C132.443 129.363 115.904 121.842 114.581 121.146Z" fill="#EDEDEE"/>
<path d="M114.581 121.146C113.522 120.589 112.625 121.007 112.23 121.146L124.226 136.641L136.552 155.304C137.555 154.245 137.504 153.064 137.388 152.553C132.443 129.363 115.904 121.842 114.581 121.146Z" fill="url(#paint20_radial_12241_4414)"/>
<path d="M24.4392 183.594C20.408 170.183 23.1619 156.396 26.151 149.747C26.3966 149.201 26.8926 148.82 27.4767 148.688L29.3217 160.75C29.4724 161.735 29.5125 162.734 29.4412 163.728L27.9816 184.082L26.853 184.626C25.8951 185.088 24.7453 184.613 24.4392 183.594Z" fill="url(#paint21_radial_12241_4414)"/>
<path d="M24.4392 183.594C20.408 170.183 23.1619 156.396 26.151 149.747C26.3966 149.201 26.8926 148.82 27.4767 148.688L29.3217 160.75C29.4724 161.735 29.5125 162.734 29.4412 163.728L27.9816 184.082L26.853 184.626C25.8951 185.088 24.7453 184.613 24.4392 183.594Z" fill="url(#paint22_radial_12241_4414)"/>
<path d="M24.4392 183.594C20.408 170.183 23.1619 156.396 26.151 149.747C26.3966 149.201 26.8926 148.82 27.4767 148.688L29.3217 160.75C29.4724 161.735 29.5125 162.734 29.4412 163.728L27.9816 184.082L26.853 184.626C25.8951 185.088 24.7453 184.613 24.4392 183.594Z" fill="url(#paint23_radial_12241_4414)"/>
<path d="M24.4392 183.594C20.408 170.183 23.1619 156.396 26.151 149.747C26.3966 149.201 26.8926 148.82 27.4767 148.688L29.3217 160.75C29.4724 161.735 29.5125 162.734 29.4412 163.728L27.9816 184.082L26.853 184.626C25.8951 185.088 24.7453 184.613 24.4392 183.594Z" fill="url(#paint24_radial_12241_4414)"/>
<path d="M72.8482 113.493C65.6953 115.692 59.768 119.129 56.4946 121.448C55.4121 122.215 54.8223 123.481 54.855 124.807C54.9452 128.468 55.2491 132.231 55.5494 134.667C55.7132 135.996 56.8545 136.911 58.1928 136.968C65.3534 137.272 70.9125 138.954 74.2234 140.405C75.7635 141.08 77.5628 141.1 79.0283 140.275C83.8841 137.544 89.5658 134.877 93.3083 133.294C94.7585 132.681 95.6455 131.176 95.4445 129.615C94.9507 125.777 94.6943 122.624 94.6173 119.636C94.5867 118.446 93.8666 117.371 92.744 116.976C86.5651 114.804 79.9791 113.697 76.0695 113.216C74.9881 113.083 73.8898 113.173 72.8482 113.493Z" fill="url(#paint25_radial_12241_4414)"/>
<path d="M72.8482 113.493C65.6953 115.692 59.768 119.129 56.4946 121.448C55.4121 122.215 54.8223 123.481 54.855 124.807C54.9452 128.468 55.2491 132.231 55.5494 134.667C55.7132 135.996 56.8545 136.911 58.1928 136.968C65.3534 137.272 70.9125 138.954 74.2234 140.405C75.7635 141.08 77.5628 141.1 79.0283 140.275C83.8841 137.544 89.5658 134.877 93.3083 133.294C94.7585 132.681 95.6455 131.176 95.4445 129.615C94.9507 125.777 94.6943 122.624 94.6173 119.636C94.5867 118.446 93.8666 117.371 92.744 116.976C86.5651 114.804 79.9791 113.697 76.0695 113.216C74.9881 113.083 73.8898 113.173 72.8482 113.493Z" fill="url(#paint26_radial_12241_4414)"/>
<path d="M72.8482 113.493C65.6953 115.692 59.768 119.129 56.4946 121.448C55.4121 122.215 54.8223 123.481 54.855 124.807C54.9452 128.468 55.2491 132.231 55.5494 134.667C55.7132 135.996 56.8545 136.911 58.1928 136.968C65.3534 137.272 70.9125 138.954 74.2234 140.405C75.7635 141.08 77.5628 141.1 79.0283 140.275C83.8841 137.544 89.5658 134.877 93.3083 133.294C94.7585 132.681 95.6455 131.176 95.4445 129.615C94.9507 125.777 94.6943 122.624 94.6173 119.636C94.5867 118.446 93.8666 117.371 92.744 116.976C86.5651 114.804 79.9791 113.697 76.0695 113.216C74.9881 113.083 73.8898 113.173 72.8482 113.493Z" fill="url(#paint27_radial_12241_4414)"/>
<path d="M72.8482 113.493C65.6953 115.692 59.768 119.129 56.4946 121.448C55.4121 122.215 54.8223 123.481 54.855 124.807C54.9452 128.468 55.2491 132.231 55.5494 134.667C55.7132 135.996 56.8545 136.911 58.1928 136.968C65.3534 137.272 70.9125 138.954 74.2234 140.405C75.7635 141.08 77.5628 141.1 79.0283 140.275C83.8841 137.544 89.5658 134.877 93.3083 133.294C94.7585 132.681 95.6455 131.176 95.4445 129.615C94.9507 125.777 94.6943 122.624 94.6173 119.636C94.5867 118.446 93.8666 117.371 92.744 116.976C86.5651 114.804 79.9791 113.697 76.0695 113.216C74.9881 113.083 73.8898 113.173 72.8482 113.493Z" fill="url(#paint28_radial_12241_4414)"/>
<path d="M72.8482 113.493C65.6953 115.692 59.768 119.129 56.4946 121.448C55.4121 122.215 54.8223 123.481 54.855 124.807C54.9452 128.468 55.2491 132.231 55.5494 134.667C55.7132 135.996 56.8545 136.911 58.1928 136.968C65.3534 137.272 70.9125 138.954 74.2234 140.405C75.7635 141.08 77.5628 141.1 79.0283 140.275C83.8841 137.544 89.5658 134.877 93.3083 133.294C94.7585 132.681 95.6455 131.176 95.4445 129.615C94.9507 125.777 94.6943 122.624 94.6173 119.636C94.5867 118.446 93.8666 117.371 92.744 116.976C86.5651 114.804 79.9791 113.697 76.0695 113.216C74.9881 113.083 73.8898 113.173 72.8482 113.493Z" fill="url(#paint29_radial_12241_4414)"/>
<path d="M72.8482 113.493C65.6953 115.692 59.768 119.129 56.4946 121.448C55.4121 122.215 54.8223 123.481 54.855 124.807C54.9452 128.468 55.2491 132.231 55.5494 134.667C55.7132 135.996 56.8545 136.911 58.1928 136.968C65.3534 137.272 70.9125 138.954 74.2234 140.405C75.7635 141.08 77.5628 141.1 79.0283 140.275C83.8841 137.544 89.5658 134.877 93.3083 133.294C94.7585 132.681 95.6455 131.176 95.4445 129.615C94.9507 125.777 94.6943 122.624 94.6173 119.636C94.5867 118.446 93.8666 117.371 92.744 116.976C86.5651 114.804 79.9791 113.697 76.0695 113.216C74.9881 113.083 73.8898 113.173 72.8482 113.493Z" fill="url(#paint30_radial_12241_4414)"/>
<path d="M28.2 145.819C33.4295 135.896 37.3346 131.192 39.4383 129.154C42.3765 126.041 49.3005 123.658 52.9208 123.201C53.9203 123.075 54.6851 123.862 54.7792 124.865L55.7312 135.011C55.8642 136.428 55.2987 137.812 54.2957 138.823C49.0526 144.106 45.7504 150.673 44.2264 154.18C43.5524 155.731 42.3071 156.993 40.7151 157.563L31.0521 161.024C29.8163 161.467 28.4709 160.75 28.2264 159.46C27.6585 156.465 27.2419 152.882 27.0979 150.431C27.0032 148.818 27.4469 147.248 28.2 145.819Z" fill="url(#paint31_linear_12241_4414)"/>
<path d="M28.2 145.819C33.4295 135.896 37.3346 131.192 39.4383 129.154C42.3765 126.041 49.3005 123.658 52.9208 123.201C53.9203 123.075 54.6851 123.862 54.7792 124.865L55.7312 135.011C55.8642 136.428 55.2987 137.812 54.2957 138.823C49.0526 144.106 45.7504 150.673 44.2264 154.18C43.5524 155.731 42.3071 156.993 40.7151 157.563L31.0521 161.024C29.8163 161.467 28.4709 160.75 28.2264 159.46C27.6585 156.465 27.2419 152.882 27.0979 150.431C27.0032 148.818 27.4469 147.248 28.2 145.819Z" fill="url(#paint32_linear_12241_4414)"/>
<path d="M87.6987 227.624C67.6775 228.147 55.3049 221.995 50.2677 218.467C49.7105 218.092 49.5829 217.545 49.6061 217.353C50.386 217.325 50.8828 216.987 50.9989 216.848L72.5522 220.904L90.0317 225.257C90.2057 225.907 89.8993 227.374 87.6987 227.624Z" fill="#867CFF"/>
<path d="M87.6987 227.624C67.6775 228.147 55.3049 221.995 50.2677 218.467C49.7105 218.092 49.5829 217.545 49.6061 217.353C50.386 217.325 50.8828 216.987 50.9989 216.848L72.5522 220.904L90.0317 225.257C90.2057 225.907 89.8993 227.374 87.6987 227.624Z" fill="url(#paint33_radial_12241_4414)"/>
<path d="M115.184 165L115.285 146.49C115.29 145.561 115.876 144.735 116.739 144.392C120.91 142.732 123.443 141.14 124.923 139.93C125.716 139.282 126.91 139.213 127.61 139.961C130.789 143.356 133.88 148.069 135.944 151.626C137.292 153.951 138.028 156.57 138.155 159.254C138.455 165.594 138.114 171.421 137.752 175.055C137.611 176.476 136.746 177.709 135.487 178.383L127.756 182.526C127.011 182.925 126.088 182.54 125.802 181.745C123.495 175.34 119.501 170.982 116.798 168.533C115.794 167.624 115.176 166.354 115.184 165Z" fill="url(#paint34_radial_12241_4414)"/>
<path d="M115.184 165L115.285 146.49C115.29 145.561 115.876 144.735 116.739 144.392C120.91 142.732 123.443 141.14 124.923 139.93C125.716 139.282 126.91 139.213 127.61 139.961C130.789 143.356 133.88 148.069 135.944 151.626C137.292 153.951 138.028 156.57 138.155 159.254C138.455 165.594 138.114 171.421 137.752 175.055C137.611 176.476 136.746 177.709 135.487 178.383L127.756 182.526C127.011 182.925 126.088 182.54 125.802 181.745C123.495 175.34 119.501 170.982 116.798 168.533C115.794 167.624 115.176 166.354 115.184 165Z" fill="url(#paint35_radial_12241_4414)"/>
<path d="M115.184 165L115.285 146.49C115.29 145.561 115.876 144.735 116.739 144.392C120.91 142.732 123.443 141.14 124.923 139.93C125.716 139.282 126.91 139.213 127.61 139.961C130.789 143.356 133.88 148.069 135.944 151.626C137.292 153.951 138.028 156.57 138.155 159.254C138.455 165.594 138.114 171.421 137.752 175.055C137.611 176.476 136.746 177.709 135.487 178.383L127.756 182.526C127.011 182.925 126.088 182.54 125.802 181.745C123.495 175.34 119.501 170.982 116.798 168.533C115.794 167.624 115.176 166.354 115.184 165Z" fill="url(#paint36_radial_12241_4414)"/>
<path d="M115.184 165L115.285 146.49C115.29 145.561 115.876 144.735 116.739 144.392C120.91 142.732 123.443 141.14 124.923 139.93C125.716 139.282 126.91 139.213 127.61 139.961C130.789 143.356 133.88 148.069 135.944 151.626C137.292 153.951 138.028 156.57 138.155 159.254C138.455 165.594 138.114 171.421 137.752 175.055C137.611 176.476 136.746 177.709 135.487 178.383L127.756 182.526C127.011 182.925 126.088 182.54 125.802 181.745C123.495 175.34 119.501 170.982 116.798 168.533C115.794 167.624 115.176 166.354 115.184 165Z" fill="url(#paint37_radial_12241_4414)"/>
<path d="M72.8122 219.641C73.8268 216.581 74.1289 213.106 74.1097 210.51C74.0989 209.063 74.8713 207.684 76.188 207.085L92.7513 199.544C94.1563 198.904 95.7786 199.068 97.1715 199.734C102.033 202.057 108.335 202.689 111.6 202.596C112.443 202.572 113.223 203.239 113.206 204.082C113.1 209.235 112.497 212.641 111.781 214.956C111.417 216.134 110.604 217.109 109.569 217.781C103.145 221.947 95.9073 224.685 91.7909 225.606C90.9529 225.793 90.0856 225.79 89.2368 225.66C82.3717 224.609 76.9195 223.063 73.8785 222.019C72.9188 221.689 72.4928 220.604 72.8122 219.641Z" fill="url(#paint38_radial_12241_4414)"/>
<path d="M72.8122 219.641C73.8268 216.581 74.1289 213.106 74.1097 210.51C74.0989 209.063 74.8713 207.684 76.188 207.085L92.7513 199.544C94.1563 198.904 95.7786 199.068 97.1715 199.734C102.033 202.057 108.335 202.689 111.6 202.596C112.443 202.572 113.223 203.239 113.206 204.082C113.1 209.235 112.497 212.641 111.781 214.956C111.417 216.134 110.604 217.109 109.569 217.781C103.145 221.947 95.9073 224.685 91.7909 225.606C90.9529 225.793 90.0856 225.79 89.2368 225.66C82.3717 224.609 76.9195 223.063 73.8785 222.019C72.9188 221.689 72.4928 220.604 72.8122 219.641Z" fill="url(#paint39_radial_12241_4414)"/>
<path d="M72.8122 219.641C73.8268 216.581 74.1289 213.106 74.1097 210.51C74.0989 209.063 74.8713 207.684 76.188 207.085L92.7513 199.544C94.1563 198.904 95.7786 199.068 97.1715 199.734C102.033 202.057 108.335 202.689 111.6 202.596C112.443 202.572 113.223 203.239 113.206 204.082C113.1 209.235 112.497 212.641 111.781 214.956C111.417 216.134 110.604 217.109 109.569 217.781C103.145 221.947 95.9073 224.685 91.7909 225.606C90.9529 225.793 90.0856 225.79 89.2368 225.66C82.3717 224.609 76.9195 223.063 73.8785 222.019C72.9188 221.689 72.4928 220.604 72.8122 219.641Z" fill="url(#paint40_radial_12241_4414)"/>
<path d="M72.8122 219.641C73.8268 216.581 74.1289 213.106 74.1097 210.51C74.0989 209.063 74.8713 207.684 76.188 207.085L92.7513 199.544C94.1563 198.904 95.7786 199.068 97.1715 199.734C102.033 202.057 108.335 202.689 111.6 202.596C112.443 202.572 113.223 203.239 113.206 204.082C113.1 209.235 112.497 212.641 111.781 214.956C111.417 216.134 110.604 217.109 109.569 217.781C103.145 221.947 95.9073 224.685 91.7909 225.606C90.9529 225.793 90.0856 225.79 89.2368 225.66C82.3717 224.609 76.9195 223.063 73.8785 222.019C72.9188 221.689 72.4928 220.604 72.8122 219.641Z" fill="url(#paint41_radial_12241_4414)"/>
<path d="M72.8122 219.641C73.8268 216.581 74.1289 213.106 74.1097 210.51C74.0989 209.063 74.8713 207.684 76.188 207.085L92.7513 199.544C94.1563 198.904 95.7786 199.068 97.1715 199.734C102.033 202.057 108.335 202.689 111.6 202.596C112.443 202.572 113.223 203.239 113.206 204.082C113.1 209.235 112.497 212.641 111.781 214.956C111.417 216.134 110.604 217.109 109.569 217.781C103.145 221.947 95.9073 224.685 91.7909 225.606C90.9529 225.793 90.0856 225.79 89.2368 225.66C82.3717 224.609 76.9195 223.063 73.8785 222.019C72.9188 221.689 72.4928 220.604 72.8122 219.641Z" fill="url(#paint42_radial_12241_4414)"/>
<path d="M40.3946 157.082L30.8925 160.992C29.7275 161.472 28.8107 162.418 28.5426 163.649C27.6756 167.631 27.0895 174.708 27.3625 180.61C27.4474 182.445 27.8553 184.256 28.7276 185.874C31.017 190.119 35.3034 195.662 38.4038 198.785C39.6519 200.042 41.5514 200.085 43.1114 199.246C45.9083 197.741 48.4354 196.814 52.5476 195.564C53.8932 195.155 54.8523 193.959 54.9392 192.555L56.0001 175.418C56.0949 173.887 55.3807 172.43 54.2028 171.447C49.1941 167.267 46.0634 162.222 44.2284 158.576C43.5183 157.165 41.8552 156.481 40.3946 157.082Z" fill="url(#paint43_linear_12241_4414)"/>
<path d="M40.3946 157.082L30.8925 160.992C29.7275 161.472 28.8107 162.418 28.5426 163.649C27.6756 167.631 27.0895 174.708 27.3625 180.61C27.4474 182.445 27.8553 184.256 28.7276 185.874C31.017 190.119 35.3034 195.662 38.4038 198.785C39.6519 200.042 41.5514 200.085 43.1114 199.246C45.9083 197.741 48.4354 196.814 52.5476 195.564C53.8932 195.155 54.8523 193.959 54.9392 192.555L56.0001 175.418C56.0949 173.887 55.3807 172.43 54.2028 171.447C49.1941 167.267 46.0634 162.222 44.2284 158.576C43.5183 157.165 41.8552 156.481 40.3946 157.082Z" fill="url(#paint44_radial_12241_4414)"/>
<path d="M40.3946 157.082L30.8925 160.992C29.7275 161.472 28.8107 162.418 28.5426 163.649C27.6756 167.631 27.0895 174.708 27.3625 180.61C27.4474 182.445 27.8553 184.256 28.7276 185.874C31.017 190.119 35.3034 195.662 38.4038 198.785C39.6519 200.042 41.5514 200.085 43.1114 199.246C45.9083 197.741 48.4354 196.814 52.5476 195.564C53.8932 195.155 54.8523 193.959 54.9392 192.555L56.0001 175.418C56.0949 173.887 55.3807 172.43 54.2028 171.447C49.1941 167.267 46.0634 162.222 44.2284 158.576C43.5183 157.165 41.8552 156.481 40.3946 157.082Z" fill="url(#paint45_radial_12241_4414)"/>
<path d="M40.3946 157.082L30.8925 160.992C29.7275 161.472 28.8107 162.418 28.5426 163.649C27.6756 167.631 27.0895 174.708 27.3625 180.61C27.4474 182.445 27.8553 184.256 28.7276 185.874C31.017 190.119 35.3034 195.662 38.4038 198.785C39.6519 200.042 41.5514 200.085 43.1114 199.246C45.9083 197.741 48.4354 196.814 52.5476 195.564C53.8932 195.155 54.8523 193.959 54.9392 192.555L56.0001 175.418C56.0949 173.887 55.3807 172.43 54.2028 171.447C49.1941 167.267 46.0634 162.222 44.2284 158.576C43.5183 157.165 41.8552 156.481 40.3946 157.082Z" fill="url(#paint46_radial_12241_4414)"/>
<path d="M40.3946 157.082L30.8925 160.992C29.7275 161.472 28.8107 162.418 28.5426 163.649C27.6756 167.631 27.0895 174.708 27.3625 180.61C27.4474 182.445 27.8553 184.256 28.7276 185.874C31.017 190.119 35.3034 195.662 38.4038 198.785C39.6519 200.042 41.5514 200.085 43.1114 199.246C45.9083 197.741 48.4354 196.814 52.5476 195.564C53.8932 195.155 54.8523 193.959 54.9392 192.555L56.0001 175.418C56.0949 173.887 55.3807 172.43 54.2028 171.447C49.1941 167.267 46.0634 162.222 44.2284 158.576C43.5183 157.165 41.8552 156.481 40.3946 157.082Z" fill="url(#paint47_radial_12241_4414)"/>
<path d="M125.244 184.516C121.701 192.011 116.804 198.555 114 201.825C113.37 202.559 112.96 203.457 112.862 204.42L111.81 214.735C111.758 215.249 112.012 215.77 112.526 215.823C113.801 215.955 116.307 215.321 121.3 212.129C127.324 206.941 133.905 195.555 136.133 190.402C137.53 186.751 137.685 182.027 137.459 179.015C137.392 178.114 136.43 177.629 135.628 178.045L127.288 182.368C126.387 182.835 125.678 183.598 125.244 184.516Z" fill="url(#paint48_radial_12241_4414)"/>
<path d="M125.244 184.516C121.701 192.011 116.804 198.555 114 201.825C113.37 202.559 112.96 203.457 112.862 204.42L111.81 214.735C111.758 215.249 112.012 215.77 112.526 215.823C113.801 215.955 116.307 215.321 121.3 212.129C127.324 206.941 133.905 195.555 136.133 190.402C137.53 186.751 137.685 182.027 137.459 179.015C137.392 178.114 136.43 177.629 135.628 178.045L127.288 182.368C126.387 182.835 125.678 183.598 125.244 184.516Z" fill="url(#paint49_radial_12241_4414)"/>
<path d="M125.244 184.516C121.701 192.011 116.804 198.555 114 201.825C113.37 202.559 112.96 203.457 112.862 204.42L111.81 214.735C111.758 215.249 112.012 215.77 112.526 215.823C113.801 215.955 116.307 215.321 121.3 212.129C127.324 206.941 133.905 195.555 136.133 190.402C137.53 186.751 137.685 182.027 137.459 179.015C137.392 178.114 136.43 177.629 135.628 178.045L127.288 182.368C126.387 182.835 125.678 183.598 125.244 184.516Z" fill="url(#paint50_radial_12241_4414)"/>
<path d="M113.249 167.682C108.25 169.744 101.239 173.323 97.5847 175.401C96.465 176.037 95.7367 177.168 95.573 178.446C94.7251 185.063 94.3713 191.814 94.4662 196.104C94.4999 197.63 95.411 198.984 96.8049 199.604C102.508 202.142 107.259 202.818 110.576 202.908C112.26 202.953 113.905 202.373 115.137 201.223C119.745 196.921 123.594 189.969 125.402 185.734C126.071 184.168 126.094 182.414 125.469 180.831C123.261 175.243 119.406 170.431 116.736 168.124C115.77 167.289 114.429 167.195 113.249 167.682Z" fill="url(#paint51_radial_12241_4414)"/>
<path d="M113.249 167.682C108.25 169.744 101.239 173.323 97.5847 175.401C96.465 176.037 95.7367 177.168 95.573 178.446C94.7251 185.063 94.3713 191.814 94.4662 196.104C94.4999 197.63 95.411 198.984 96.8049 199.604C102.508 202.142 107.259 202.818 110.576 202.908C112.26 202.953 113.905 202.373 115.137 201.223C119.745 196.921 123.594 189.969 125.402 185.734C126.071 184.168 126.094 182.414 125.469 180.831C123.261 175.243 119.406 170.431 116.736 168.124C115.77 167.289 114.429 167.195 113.249 167.682Z" fill="url(#paint52_radial_12241_4414)"/>
<path d="M113.249 167.682C108.25 169.744 101.239 173.323 97.5847 175.401C96.465 176.037 95.7367 177.168 95.573 178.446C94.7251 185.063 94.3713 191.814 94.4662 196.104C94.4999 197.63 95.411 198.984 96.8049 199.604C102.508 202.142 107.259 202.818 110.576 202.908C112.26 202.953 113.905 202.373 115.137 201.223C119.745 196.921 123.594 189.969 125.402 185.734C126.071 184.168 126.094 182.414 125.469 180.831C123.261 175.243 119.406 170.431 116.736 168.124C115.77 167.289 114.429 167.195 113.249 167.682Z" fill="url(#paint53_radial_12241_4414)"/>
<path d="M113.249 167.682C108.25 169.744 101.239 173.323 97.5847 175.401C96.465 176.037 95.7367 177.168 95.573 178.446C94.7251 185.063 94.3713 191.814 94.4662 196.104C94.4999 197.63 95.411 198.984 96.8049 199.604C102.508 202.142 107.259 202.818 110.576 202.908C112.26 202.953 113.905 202.373 115.137 201.223C119.745 196.921 123.594 189.969 125.402 185.734C126.071 184.168 126.094 182.414 125.469 180.831C123.261 175.243 119.406 170.431 116.736 168.124C115.77 167.289 114.429 167.195 113.249 167.682Z" fill="url(#paint54_radial_12241_4414)"/>
<path d="M52.7776 195.399C48.902 196.663 44.9609 198.33 42.3671 199.535C41.2344 200.061 40.6604 201.324 41.0841 202.499C42.7852 207.217 46.7622 214.513 52.077 217.666C58.7764 220.962 65.9573 221.717 70.0553 221.653C71.0532 221.638 72.0331 221.229 72.4927 220.343C73.834 217.758 74.1892 213.009 74.0974 209.409C74.0695 208.312 73.4803 207.316 72.5682 206.705L56.4808 195.942C55.3885 195.211 54.0271 194.992 52.7776 195.399Z" fill="url(#paint55_radial_12241_4414)"/>
<path d="M52.7776 195.399C48.902 196.663 44.9609 198.33 42.3671 199.535C41.2344 200.061 40.6604 201.324 41.0841 202.499C42.7852 207.217 46.7622 214.513 52.077 217.666C58.7764 220.962 65.9573 221.717 70.0553 221.653C71.0532 221.638 72.0331 221.229 72.4927 220.343C73.834 217.758 74.1892 213.009 74.0974 209.409C74.0695 208.312 73.4803 207.316 72.5682 206.705L56.4808 195.942C55.3885 195.211 54.0271 194.992 52.7776 195.399Z" fill="url(#paint56_radial_12241_4414)"/>
<path d="M52.7776 195.399C48.902 196.663 44.9609 198.33 42.3671 199.535C41.2344 200.061 40.6604 201.324 41.0841 202.499C42.7852 207.217 46.7622 214.513 52.077 217.666C58.7764 220.962 65.9573 221.717 70.0553 221.653C71.0532 221.638 72.0331 221.229 72.4927 220.343C73.834 217.758 74.1892 213.009 74.0974 209.409C74.0695 208.312 73.4803 207.316 72.5682 206.705L56.4808 195.942C55.3885 195.211 54.0271 194.992 52.7776 195.399Z" fill="url(#paint57_radial_12241_4414)"/>
<path d="M52.7776 195.399C48.902 196.663 44.9609 198.33 42.3671 199.535C41.2344 200.061 40.6604 201.324 41.0841 202.499C42.7852 207.217 46.7622 214.513 52.077 217.666C58.7764 220.962 65.9573 221.717 70.0553 221.653C71.0532 221.638 72.0331 221.229 72.4927 220.343C73.834 217.758 74.1892 213.009 74.0974 209.409C74.0695 208.312 73.4803 207.316 72.5682 206.705L56.4808 195.942C55.3885 195.211 54.0271 194.992 52.7776 195.399Z" fill="url(#paint58_radial_12241_4414)"/>
<path d="M73.7549 165.287C69.1801 167.952 62.9375 170.486 58.5507 172.072C56.9417 172.654 55.7615 174.069 55.5827 175.771C54.899 182.276 54.7061 188.974 54.745 192.92C54.7576 194.198 55.36 195.391 56.3762 196.168C60.9986 199.7 67.3615 203.868 71.7623 206.396C73.3988 207.335 75.3676 207.431 77.1126 206.712C81.9418 204.724 87.8453 202.026 92.1003 199.9C93.6332 199.134 94.5394 197.53 94.5172 195.816C94.4284 188.964 95.0238 182.725 95.4516 179.057C95.6401 177.44 94.9593 175.849 93.6094 174.939C89.8948 172.435 83.4537 168.287 78.9185 165.319C77.3666 164.303 75.3576 164.354 73.7549 165.287Z" fill="url(#paint59_linear_12241_4414)"/>
<path d="M73.7549 165.287C69.1801 167.952 62.9375 170.486 58.5507 172.072C56.9417 172.654 55.7615 174.069 55.5827 175.771C54.899 182.276 54.7061 188.974 54.745 192.92C54.7576 194.198 55.36 195.391 56.3762 196.168C60.9986 199.7 67.3615 203.868 71.7623 206.396C73.3988 207.335 75.3676 207.431 77.1126 206.712C81.9418 204.724 87.8453 202.026 92.1003 199.9C93.6332 199.134 94.5394 197.53 94.5172 195.816C94.4284 188.964 95.0238 182.725 95.4516 179.057C95.6401 177.44 94.9593 175.849 93.6094 174.939C89.8948 172.435 83.4537 168.287 78.9185 165.319C77.3666 164.303 75.3576 164.354 73.7549 165.287Z" fill="url(#paint60_radial_12241_4414)"/>
<path d="M73.7549 165.287C69.1801 167.952 62.9375 170.486 58.5507 172.072C56.9417 172.654 55.7615 174.069 55.5827 175.771C54.899 182.276 54.7061 188.974 54.745 192.92C54.7576 194.198 55.36 195.391 56.3762 196.168C60.9986 199.7 67.3615 203.868 71.7623 206.396C73.3988 207.335 75.3676 207.431 77.1126 206.712C81.9418 204.724 87.8453 202.026 92.1003 199.9C93.6332 199.134 94.5394 197.53 94.5172 195.816C94.4284 188.964 95.0238 182.725 95.4516 179.057C95.6401 177.44 94.9593 175.849 93.6094 174.939C89.8948 172.435 83.4537 168.287 78.9185 165.319C77.3666 164.303 75.3576 164.354 73.7549 165.287Z" fill="url(#paint61_radial_12241_4414)"/>
<path d="M73.7549 165.287C69.1801 167.952 62.9375 170.486 58.5507 172.072C56.9417 172.654 55.7615 174.069 55.5827 175.771C54.899 182.276 54.7061 188.974 54.745 192.92C54.7576 194.198 55.36 195.391 56.3762 196.168C60.9986 199.7 67.3615 203.868 71.7623 206.396C73.3988 207.335 75.3676 207.431 77.1126 206.712C81.9418 204.724 87.8453 202.026 92.1003 199.9C93.6332 199.134 94.5394 197.53 94.5172 195.816C94.4284 188.964 95.0238 182.725 95.4516 179.057C95.6401 177.44 94.9593 175.849 93.6094 174.939C89.8948 172.435 83.4537 168.287 78.9185 165.319C77.3666 164.303 75.3576 164.354 73.7549 165.287Z" fill="url(#paint62_radial_12241_4414)"/>
<path d="M73.7549 165.287C69.1801 167.952 62.9375 170.486 58.5507 172.072C56.9417 172.654 55.7615 174.069 55.5827 175.771C54.899 182.276 54.7061 188.974 54.745 192.92C54.7576 194.198 55.36 195.391 56.3762 196.168C60.9986 199.7 67.3615 203.868 71.7623 206.396C73.3988 207.335 75.3676 207.431 77.1126 206.712C81.9418 204.724 87.8453 202.026 92.1003 199.9C93.6332 199.134 94.5394 197.53 94.5172 195.816C94.4284 188.964 95.0238 182.725 95.4516 179.057C95.6401 177.44 94.9593 175.849 93.6094 174.939C89.8948 172.435 83.4537 168.287 78.9185 165.319C77.3666 164.303 75.3576 164.354 73.7549 165.287Z" fill="url(#paint63_radial_12241_4414)"/>
<path d="M73.7549 165.287C69.1801 167.952 62.9375 170.486 58.5507 172.072C56.9417 172.654 55.7615 174.069 55.5827 175.771C54.899 182.276 54.7061 188.974 54.745 192.92C54.7576 194.198 55.36 195.391 56.3762 196.168C60.9986 199.7 67.3615 203.868 71.7623 206.396C73.3988 207.335 75.3676 207.431 77.1126 206.712C81.9418 204.724 87.8453 202.026 92.1003 199.9C93.6332 199.134 94.5394 197.53 94.5172 195.816C94.4284 188.964 95.0238 182.725 95.4516 179.057C95.6401 177.44 94.9593 175.849 93.6094 174.939C89.8948 172.435 83.4537 168.287 78.9185 165.319C77.3666 164.303 75.3576 164.354 73.7549 165.287Z" fill="url(#paint64_radial_12241_4414)"/>
<path d="M43.7492 154.411C46.8007 146.707 51.4876 140.949 54.9784 137.836C55.7215 137.173 56.6986 136.843 57.6939 136.872C65.403 137.096 70.9888 138.966 74.3585 140.412C75.7671 141.017 76.6928 142.374 76.8265 143.901C77.5754 152.449 77.2481 157.495 76.8244 161.355C76.6899 162.581 76.0422 163.696 75.0115 164.373C69.965 167.684 63.8115 170.137 58.7363 172.011C57.2692 172.553 55.6157 172.47 54.371 171.523C50.2063 168.354 46.1655 162.533 43.9641 158.433C43.2973 157.191 43.2301 155.722 43.7492 154.411Z" fill="url(#paint65_radial_12241_4414)"/>
<path d="M43.7492 154.411C46.8007 146.707 51.4876 140.949 54.9784 137.836C55.7215 137.173 56.6986 136.843 57.6939 136.872C65.403 137.096 70.9888 138.966 74.3585 140.412C75.7671 141.017 76.6928 142.374 76.8265 143.901C77.5754 152.449 77.2481 157.495 76.8244 161.355C76.6899 162.581 76.0422 163.696 75.0115 164.373C69.965 167.684 63.8115 170.137 58.7363 172.011C57.2692 172.553 55.6157 172.47 54.371 171.523C50.2063 168.354 46.1655 162.533 43.9641 158.433C43.2973 157.191 43.2301 155.722 43.7492 154.411Z" fill="url(#paint66_radial_12241_4414)"/>
<path d="M43.7492 154.411C46.8007 146.707 51.4876 140.949 54.9784 137.836C55.7215 137.173 56.6986 136.843 57.6939 136.872C65.403 137.096 70.9888 138.966 74.3585 140.412C75.7671 141.017 76.6928 142.374 76.8265 143.901C77.5754 152.449 77.2481 157.495 76.8244 161.355C76.6899 162.581 76.0422 163.696 75.0115 164.373C69.965 167.684 63.8115 170.137 58.7363 172.011C57.2692 172.553 55.6157 172.47 54.371 171.523C50.2063 168.354 46.1655 162.533 43.9641 158.433C43.2973 157.191 43.2301 155.722 43.7492 154.411Z" fill="url(#paint67_radial_12241_4414)"/>
<path d="M43.7492 154.411C46.8007 146.707 51.4876 140.949 54.9784 137.836C55.7215 137.173 56.6986 136.843 57.6939 136.872C65.403 137.096 70.9888 138.966 74.3585 140.412C75.7671 141.017 76.6928 142.374 76.8265 143.901C77.5754 152.449 77.2481 157.495 76.8244 161.355C76.6899 162.581 76.0422 163.696 75.0115 164.373C69.965 167.684 63.8115 170.137 58.7363 172.011C57.2692 172.553 55.6157 172.47 54.371 171.523C50.2063 168.354 46.1655 162.533 43.9641 158.433C43.2973 157.191 43.2301 155.722 43.7492 154.411Z" fill="url(#paint68_radial_12241_4414)"/>
<path d="M95.5196 130.311C94.7675 125.578 94.7021 121.663 94.7709 119.534C94.8071 118.415 95.5158 117.676 96.6347 117.63C100.976 117.451 109.238 118.54 114.51 122.294C120.052 126.495 123.963 132.814 125.652 136.753C126.118 137.839 125.889 139.096 124.999 139.874C122.669 141.91 119.379 143.339 117.035 144.281C116.021 144.689 114.869 144.571 113.952 143.974L97.4372 133.218C96.4209 132.556 95.71 131.508 95.5196 130.311Z" fill="url(#paint69_radial_12241_4414)"/>
<path d="M95.5196 130.311C94.7675 125.578 94.7021 121.663 94.7709 119.534C94.8071 118.415 95.5158 117.676 96.6347 117.63C100.976 117.451 109.238 118.54 114.51 122.294C120.052 126.495 123.963 132.814 125.652 136.753C126.118 137.839 125.889 139.096 124.999 139.874C122.669 141.91 119.379 143.339 117.035 144.281C116.021 144.689 114.869 144.571 113.952 143.974L97.4372 133.218C96.4209 132.556 95.71 131.508 95.5196 130.311Z" fill="url(#paint70_radial_12241_4414)"/>
<path d="M95.5196 130.311C94.7675 125.578 94.7021 121.663 94.7709 119.534C94.8071 118.415 95.5158 117.676 96.6347 117.63C100.976 117.451 109.238 118.54 114.51 122.294C120.052 126.495 123.963 132.814 125.652 136.753C126.118 137.839 125.889 139.096 124.999 139.874C122.669 141.91 119.379 143.339 117.035 144.281C116.021 144.689 114.869 144.571 113.952 143.974L97.4372 133.218C96.4209 132.556 95.71 131.508 95.5196 130.311Z" fill="url(#paint71_radial_12241_4414)"/>
<path d="M95.5196 130.311C94.7675 125.578 94.7021 121.663 94.7709 119.534C94.8071 118.415 95.5158 117.676 96.6347 117.63C100.976 117.451 109.238 118.54 114.51 122.294C120.052 126.495 123.963 132.814 125.652 136.753C126.118 137.839 125.889 139.096 124.999 139.874C122.669 141.91 119.379 143.339 117.035 144.281C116.021 144.689 114.869 144.571 113.952 143.974L97.4372 133.218C96.4209 132.556 95.71 131.508 95.5196 130.311Z" fill="url(#paint72_radial_12241_4414)"/>
<path d="M76.8942 161.335C77.3285 154.364 77.0795 148.101 76.8589 144.171C76.7649 142.497 77.605 140.912 79.086 140.125C83.1601 137.957 89.5572 134.838 93.7455 132.835C95.0221 132.225 96.5135 132.259 97.7352 132.973C102.619 135.827 108.66 140.033 113.148 143.005C114.473 143.883 115.398 145.267 115.534 146.852C115.975 151.967 115.777 159.101 115.57 163.987C115.501 165.613 114.54 167.063 113.077 167.775L97.8981 175.164C96.4948 175.848 94.8364 175.747 93.526 174.899L78.9462 165.465C77.5612 164.569 76.7916 162.981 76.8942 161.335Z" fill="url(#paint73_radial_12241_4414)"/>
<path d="M76.8942 161.335C77.3285 154.364 77.0795 148.101 76.8589 144.171C76.7649 142.497 77.605 140.912 79.086 140.125C83.1601 137.957 89.5572 134.838 93.7455 132.835C95.0221 132.225 96.5135 132.259 97.7352 132.973C102.619 135.827 108.66 140.033 113.148 143.005C114.473 143.883 115.398 145.267 115.534 146.852C115.975 151.967 115.777 159.101 115.57 163.987C115.501 165.613 114.54 167.063 113.077 167.775L97.8981 175.164C96.4948 175.848 94.8364 175.747 93.526 174.899L78.9462 165.465C77.5612 164.569 76.7916 162.981 76.8942 161.335Z" fill="url(#paint74_radial_12241_4414)"/>
<path d="M76.8942 161.335C77.3285 154.364 77.0795 148.101 76.8589 144.171C76.7649 142.497 77.605 140.912 79.086 140.125C83.1601 137.957 89.5572 134.838 93.7455 132.835C95.0221 132.225 96.5135 132.259 97.7352 132.973C102.619 135.827 108.66 140.033 113.148 143.005C114.473 143.883 115.398 145.267 115.534 146.852C115.975 151.967 115.777 159.101 115.57 163.987C115.501 165.613 114.54 167.063 113.077 167.775L97.8981 175.164C96.4948 175.848 94.8364 175.747 93.526 174.899L78.9462 165.465C77.5612 164.569 76.7916 162.981 76.8942 161.335Z" fill="url(#paint75_radial_12241_4414)"/>
<path d="M76.8942 161.335C77.3285 154.364 77.0795 148.101 76.8589 144.171C76.7649 142.497 77.605 140.912 79.086 140.125C83.1601 137.957 89.5572 134.838 93.7455 132.835C95.0221 132.225 96.5135 132.259 97.7352 132.973C102.619 135.827 108.66 140.033 113.148 143.005C114.473 143.883 115.398 145.267 115.534 146.852C115.975 151.967 115.777 159.101 115.57 163.987C115.501 165.613 114.54 167.063 113.077 167.775L97.8981 175.164C96.4948 175.848 94.8364 175.747 93.526 174.899L78.9462 165.465C77.5612 164.569 76.7916 162.981 76.8942 161.335Z" fill="url(#paint76_radial_12241_4414)"/>
<path d="M76.8942 161.335C77.3285 154.364 77.0795 148.101 76.8589 144.171C76.7649 142.497 77.605 140.912 79.086 140.125C83.1601 137.957 89.5572 134.838 93.7455 132.835C95.0221 132.225 96.5135 132.259 97.7352 132.973C102.619 135.827 108.66 140.033 113.148 143.005C114.473 143.883 115.398 145.267 115.534 146.852C115.975 151.967 115.777 159.101 115.57 163.987C115.501 165.613 114.54 167.063 113.077 167.775L97.8981 175.164C96.4948 175.848 94.8364 175.747 93.526 174.899L78.9462 165.465C77.5612 164.569 76.7916 162.981 76.8942 161.335Z" fill="url(#paint77_radial_12241_4414)"/>
</g>
<defs>
<linearGradient id="paint0_linear_12241_4414" x1="57.558" y1="70.129" x2="50.8032" y2="148.174" gradientUnits="userSpaceOnUse">
<stop stop-color="#8B7CFF"/>
<stop offset="1" stop-color="#3D338E"/>
</linearGradient>
<radialGradient id="paint1_radial_12241_4414" cx="0" cy="0" r="1" gradientTransform="matrix(-4.18963 -30.1897 37.786 1.57423 30.3306 189.647)" gradientUnits="userSpaceOnUse">
<stop stop-color="#7664FE"/>
<stop offset="1" stop-color="#C9C3FF"/>
</radialGradient>
<linearGradient id="paint2_linear_12241_4414" x1="106.048" y1="119.16" x2="79.7246" y2="112.753" gradientUnits="userSpaceOnUse">
<stop stop-color="#E6E6E6"/>
<stop offset="1" stop-color="#D9D9D9"/>
</linearGradient>
<radialGradient id="paint3_radial_12241_4414" cx="0" cy="0" r="1" gradientUnits="userSpaceOnUse" gradientTransform="translate(112.873 119.857) rotate(-165.401) scale(15.472 56.0358)">
<stop stop-color="#EDEDED"/>
<stop offset="1" stop-color="#EDEDED" stop-opacity="0"/>
</radialGradient>
<radialGradient id="paint4_radial_12241_4414" cx="0" cy="0" r="1" gradientUnits="userSpaceOnUse" gradientTransform="translate(84.4649 118.537) rotate(103.068) scale(4.95711 18.5325)">
<stop offset="0.0808128" stop-opacity="0.7"/>
<stop offset="1" stop-opacity="0"/>
</radialGradient>
<radialGradient id="paint5_radial_12241_4414" cx="0" cy="0" r="1" gradientUnits="userSpaceOnUse" gradientTransform="translate(68.7375 111.656) rotate(170.74) scale(6.49141 24.2685)">
<stop offset="0.0808128" stop-opacity="0.7"/>
<stop offset="1" stop-opacity="0"/>
</radialGradient>
<linearGradient id="paint6_linear_12241_4414" x1="47.5942" y1="214.813" x2="28.4948" y2="184.03" gradientUnits="userSpaceOnUse">
<stop stop-color="#8078D1"/>
<stop offset="1" stop-color="#807AB0"/>
</linearGradient>
<radialGradient id="paint7_radial_12241_4414" cx="0" cy="0" r="1" gradientTransform="matrix(13.3707 -10.028 39.8118 55.306 44.6421 197.87)" gradientUnits="userSpaceOnUse">
<stop offset="0.240815" stop-color="white" stop-opacity="0.3"/>
<stop offset="0.501754" stop-color="white" stop-opacity="0"/>
</radialGradient>
<radialGradient id="paint8_radial_12241_4414" cx="0" cy="0" r="1" gradientTransform="matrix(-12.2429 13.308 -26.9469 -8.0734 65.4808 112.658)" gradientUnits="userSpaceOnUse">
<stop stop-color="#091B2F"/>
<stop offset="1"/>
</radialGradient>
<radialGradient id="paint9_radial_12241_4414" cx="0" cy="0" r="1" gradientTransform="matrix(-3.86233 3.41017 -24.5628 -9.06001 50.4125 126.682)" gradientUnits="userSpaceOnUse">
<stop offset="0.0808128"/>
<stop offset="1" stop-opacity="0"/>
</radialGradient>
<radialGradient id="paint10_radial_12241_4414" cx="0" cy="0" r="1" gradientTransform="matrix(3.26878 3.38991 -17.1479 5.38498 69.9428 129.178)" gradientUnits="userSpaceOnUse">
<stop offset="0.0808128"/>
<stop offset="1" stop-opacity="0"/>
</radialGradient>
<radialGradient id="paint11_radial_12241_4414" cx="0" cy="0" r="1" gradientTransform="matrix(-6.85017 0.499049 -2.44613 -17.4028 36.0563 116.036)" gradientUnits="userSpaceOnUse">
<stop offset="0.0808128"/>
<stop offset="1" stop-opacity="0"/>
</radialGradient>
<radialGradient id="paint12_radial_12241_4414" cx="0" cy="0" r="1" gradientTransform="matrix(-11.9567 13.8586 -26.3171 -8.40745 113.054 211.472)" gradientUnits="userSpaceOnUse">
<stop stop-color="#091B2F"/>
<stop offset="1"/>
</radialGradient>
<radialGradient id="paint13_radial_12241_4414" cx="0" cy="0" r="1" gradientTransform="matrix(-3.77207 3.55127 -23.9888 -9.43489 98.338 226.077)" gradientUnits="userSpaceOnUse">
<stop offset="0.0808128"/>
<stop offset="1" stop-opacity="0"/>
</radialGradient>
<radialGradient id="paint14_radial_12241_4414" cx="0" cy="0" r="1" gradientTransform="matrix(3.19238 3.53017 -16.7471 5.6078 117.412 228.675)" gradientUnits="userSpaceOnUse">
<stop offset="0.0808128"/>
<stop offset="1" stop-opacity="0"/>
</radialGradient>
<radialGradient id="paint15_radial_12241_4414" cx="0" cy="0" r="1" gradientTransform="matrix(-6.69008 0.519698 -2.38896 -18.1229 84.3173 214.99)" gradientUnits="userSpaceOnUse">
<stop offset="0.0808128"/>
<stop offset="1" stop-opacity="0"/>
</radialGradient>
<radialGradient id="paint16_radial_12241_4414" cx="0" cy="0" r="1" gradientTransform="matrix(-1.5011 29.3729 -3.30397 -17.8193 139.258 156.293)" gradientUnits="userSpaceOnUse">
<stop stop-color="#091B2F"/>
<stop offset="1"/>
</radialGradient>
<radialGradient id="paint17_radial_12241_4414" cx="0" cy="0" r="1" gradientTransform="matrix(-0.473562 7.5268 -3.01166 -19.9969 137.41 187.248)" gradientUnits="userSpaceOnUse">
<stop offset="0.0808128"/>
<stop offset="1" stop-opacity="0"/>
</radialGradient>
<radialGradient id="paint18_radial_12241_4414" cx="0" cy="0" r="1" gradientTransform="matrix(0.400786 7.48208 -2.10251 11.8855 139.805 192.755)" gradientUnits="userSpaceOnUse">
<stop offset="0.0808128"/>
<stop offset="1" stop-opacity="0"/>
</radialGradient>
<radialGradient id="paint19_radial_12241_4414" cx="0" cy="0" r="1" gradientTransform="matrix(-0.839903 1.10148 -0.299921 -38.4108 135.65 163.749)" gradientUnits="userSpaceOnUse">
<stop offset="0.0808128"/>
<stop offset="1" stop-opacity="0"/>
</radialGradient>
<radialGradient id="paint20_radial_12241_4414" cx="0" cy="0" r="1" gradientUnits="userSpaceOnUse" gradientTransform="translate(126.065 139.731) rotate(-36.4309) scale(2.34098 24.1589)">
<stop stop-color="#A2A4B1"/>
<stop offset="1" stop-color="#A2A4B1" stop-opacity="0"/>
</radialGradient>
<radialGradient id="paint21_radial_12241_4414" cx="0" cy="0" r="1" gradientTransform="matrix(-2.64298 30.0262 -5.81728 -18.2157 27.6763 151.337)" gradientUnits="userSpaceOnUse">
<stop stop-color="#091B2F"/>
<stop offset="1"/>
</radialGradient>
<radialGradient id="paint22_radial_12241_4414" cx="0" cy="0" r="1" gradientTransform="matrix(-0.833799 7.69423 -5.30262 -20.4417 24.4234 182.98)" gradientUnits="userSpaceOnUse">
<stop offset="0.0808128"/>
<stop offset="1" stop-opacity="0"/>
</radialGradient>
<radialGradient id="paint23_radial_12241_4414" cx="0" cy="0" r="1" gradientTransform="matrix(0.705663 7.64851 -3.70187 12.1499 28.6396 188.61)" gradientUnits="userSpaceOnUse">
<stop offset="0.0808128"/>
<stop offset="1" stop-opacity="0"/>
</radialGradient>
<radialGradient id="paint24_radial_12241_4414" cx="0" cy="0" r="1" gradientTransform="matrix(-1.47881 1.12598 -0.52807 -39.2652 21.3242 158.959)" gradientUnits="userSpaceOnUse">
<stop offset="0.0808128"/>
<stop offset="1" stop-opacity="0"/>
</radialGradient>
<radialGradient id="paint25_radial_12241_4414" cx="0" cy="0" r="1" gradientUnits="userSpaceOnUse" gradientTransform="translate(84.8774 133.229) rotate(-155.98) scale(28.0569 40.1739)">
<stop stop-color="#DFDFE1"/>
<stop offset="1" stop-color="#BFBEC0"/>
</radialGradient>
<radialGradient id="paint26_radial_12241_4414" cx="0" cy="0" r="1" gradientUnits="userSpaceOnUse" gradientTransform="translate(65.8818 141.044) rotate(101.659) scale(4.4797 16.1003)">
<stop offset="0.0808128"/>
<stop offset="1" stop-opacity="0"/>
</radialGradient>
<radialGradient id="paint27_radial_12241_4414" cx="0" cy="0" r="1" gradientUnits="userSpaceOnUse" gradientTransform="translate(90.6037 142.228) rotate(62.6223) scale(8.78338 31.568)">
<stop offset="0.0808128"/>
<stop offset="1" stop-opacity="0"/>
</radialGradient>
<radialGradient id="paint28_radial_12241_4414" cx="0" cy="0" r="1" gradientUnits="userSpaceOnUse" gradientTransform="translate(49.7255 129.902) rotate(173.723) scale(7.00592 25.1797)">
<stop offset="0.0808128"/>
<stop offset="1" stop-opacity="0"/>
</radialGradient>
<radialGradient id="paint29_radial_12241_4414" cx="0" cy="0" r="1" gradientUnits="userSpaceOnUse" gradientTransform="translate(61.6338 113.885) rotate(-115.731) scale(6.41626 58.0918)">
<stop offset="0.0808128" stop-color="white"/>
<stop offset="1" stop-color="white" stop-opacity="0"/>
</radialGradient>
<radialGradient id="paint30_radial_12241_4414" cx="0" cy="0" r="1" gradientUnits="userSpaceOnUse" gradientTransform="translate(86.9128 110.96) rotate(-76.9613) scale(6.7908 62.557)">
<stop offset="0.380208" stop-color="white" stop-opacity="0.7"/>
<stop offset="0.895833" stop-color="white" stop-opacity="0"/>
</radialGradient>
<linearGradient id="paint31_linear_12241_4414" x1="33.1061" y1="136.505" x2="53.6968" y2="146.071" gradientUnits="userSpaceOnUse">
<stop stop-color="#A09FA2"/>
<stop offset="1" stop-color="#B7B6BA"/>
</linearGradient>
<linearGradient id="paint32_linear_12241_4414" x1="37.1054" y1="159.551" x2="36.0608" y2="156.905" gradientUnits="userSpaceOnUse">
<stop stop-color="#847D9D"/>
<stop offset="1" stop-color="#847D9D" stop-opacity="0"/>
</linearGradient>
<radialGradient id="paint33_radial_12241_4414" cx="0" cy="0" r="1" gradientUnits="userSpaceOnUse" gradientTransform="translate(82.0231 222.645) rotate(103.671) scale(2.65178 14.4586)">
<stop offset="0.417241" stop-color="#6C5DBB"/>
<stop offset="1" stop-color="#6C5DBB" stop-opacity="0"/>
</radialGradient>
<radialGradient id="paint34_radial_12241_4414" cx="0" cy="0" r="1" gradientUnits="userSpaceOnUse" gradientTransform="translate(132.453 142.504) rotate(97.9975) scale(41.1952 21.2999)">
<stop stop-color="#F0EFF3"/>
<stop offset="1" stop-color="#E0DEF0"/>
</radialGradient>
<radialGradient id="paint35_radial_12241_4414" cx="0" cy="0" r="1" gradientUnits="userSpaceOnUse" gradientTransform="translate(118.008 180.146) rotate(148.18) scale(7.99078 24.5732)">
<stop offset="0.0808128"/>
<stop offset="1" stop-opacity="0"/>
</radialGradient>
<radialGradient id="paint36_radial_12241_4414" cx="0" cy="0" r="1" gradientUnits="userSpaceOnUse" gradientTransform="translate(132.737 187.841) rotate(61.1044) scale(8.84993 30.2447)">
<stop offset="0.0808128"/>
<stop offset="1" stop-opacity="0"/>
</radialGradient>
<radialGradient id="paint37_radial_12241_4414" cx="0" cy="0" r="1" gradientUnits="userSpaceOnUse" gradientTransform="translate(111.586 159.546) rotate(179.762) scale(5.38185 45.8107)">
<stop offset="0.0808128" stop-opacity="0.8"/>
<stop offset="1" stop-opacity="0"/>
</radialGradient>
<radialGradient id="paint38_radial_12241_4414" cx="0" cy="0" r="1" gradientUnits="userSpaceOnUse" gradientTransform="translate(94.4239 201.029) rotate(90.9002) scale(22.454 49.4456)">
<stop stop-color="#B4A6F7"/>
<stop stop-color="#B2A8F8"/>
<stop offset="0.0001" stop-color="#B2A8F8"/>
<stop offset="1" stop-color="#8D7FFE"/>
</radialGradient>
<radialGradient id="paint39_radial_12241_4414" cx="0" cy="0" r="1" gradientUnits="userSpaceOnUse" gradientTransform="translate(119.243 216.449) rotate(-4.73529) scale(14.1687 30.4614)">
<stop offset="0.240815" stop-color="white" stop-opacity="0.7"/>
<stop offset="0.652481" stop-color="white" stop-opacity="0"/>
</radialGradient>
<radialGradient id="paint40_radial_12241_4414" cx="0" cy="0" r="1" gradientUnits="userSpaceOnUse" gradientTransform="translate(103.558 196.894) rotate(-73.0092) scale(10.4857 22.5434)">
<stop offset="0.240815" stop-color="white" stop-opacity="0.7"/>
<stop offset="0.652481" stop-color="white" stop-opacity="0"/>
</radialGradient>
<radialGradient id="paint41_radial_12241_4414" cx="0" cy="0" r="1" gradientUnits="userSpaceOnUse" gradientTransform="translate(80.4377 197.73) rotate(-112.533) scale(14.1743 49.3356)">
<stop offset="0.240815" stop-color="white" stop-opacity="0.7"/>
<stop offset="0.652481" stop-color="white" stop-opacity="0"/>
</radialGradient>
<radialGradient id="paint42_radial_12241_4414" cx="0" cy="0" r="1" gradientUnits="userSpaceOnUse" gradientTransform="translate(66.9277 214.165) rotate(-170.807) scale(12.416 43.2156)">
<stop offset="0.240815" stop-color="white" stop-opacity="0.7"/>
<stop offset="0.652481" stop-color="white" stop-opacity="0"/>
</radialGradient>
<linearGradient id="paint43_linear_12241_4414" x1="56.1524" y1="173.619" x2="27.3" y2="183.507" gradientUnits="userSpaceOnUse">
<stop stop-color="#A39AC6"/>
<stop offset="1" stop-color="#8A82B2"/>
</linearGradient>
<radialGradient id="paint44_radial_12241_4414" cx="0" cy="0" r="1" gradientUnits="userSpaceOnUse" gradientTransform="translate(32.9437 155.111) rotate(-111.489) scale(6.86454 33.7381)">
<stop offset="0.240815" stop-color="white" stop-opacity="0.7"/>
<stop offset="1" stop-color="white" stop-opacity="0"/>
</radialGradient>
<radialGradient id="paint45_radial_12241_4414" cx="0" cy="0" r="1" gradientUnits="userSpaceOnUse" gradientTransform="translate(52.5819 160.264) rotate(-38.211) scale(8.33113 40.9462)">
<stop offset="0.240815" stop-color="white" stop-opacity="0.7"/>
<stop offset="1" stop-color="white" stop-opacity="0"/>
</radialGradient>
<radialGradient id="paint46_radial_12241_4414" cx="0" cy="0" r="1" gradientUnits="userSpaceOnUse" gradientTransform="translate(60.3815 185.334) rotate(2.97374) scale(10.7389 52.78)">
<stop offset="0.240815" stop-color="white" stop-opacity="0.7"/>
<stop offset="0.652481" stop-color="white" stop-opacity="0"/>
</radialGradient>
<radialGradient id="paint47_radial_12241_4414" cx="0" cy="0" r="1" gradientUnits="userSpaceOnUse" gradientTransform="translate(49.7963 203.441) rotate(66.9745) scale(12.1068 59.503)">
<stop offset="0.240815" stop-color="white" stop-opacity="0.7"/>
<stop offset="0.652481" stop-color="white" stop-opacity="0"/>
</radialGradient>
<radialGradient id="paint48_radial_12241_4414" cx="0" cy="0" r="1" gradientUnits="userSpaceOnUse" gradientTransform="translate(120.45 212.664) rotate(-70.0169) scale(33.5917 112.417)">
<stop offset="0.340844" stop-color="#B3ADEB"/>
<stop offset="1" stop-color="#DBD8F2"/>
</radialGradient>
<radialGradient id="paint49_radial_12241_4414" cx="0" cy="0" r="1" gradientUnits="userSpaceOnUse" gradientTransform="translate(132.164 179.677) rotate(64.0934) scale(2.70967 23.0976)">
<stop offset="0.208079" stop-color="#E8E7EE"/>
<stop offset="1" stop-color="#E8E7EE" stop-opacity="0"/>
</radialGradient>
<radialGradient id="paint50_radial_12241_4414" cx="0" cy="0" r="1" gradientUnits="userSpaceOnUse" gradientTransform="translate(107.04 209.43) rotate(-174.508) scale(7.27588 41.7206)">
<stop offset="0.0808128" stop-opacity="0.5"/>
<stop offset="1" stop-opacity="0"/>
</radialGradient>
<radialGradient id="paint51_radial_12241_4414" cx="0" cy="0" r="1" gradientTransform="matrix(-11.8103 29.3445 -25.9947 -17.8021 117.948 169.54)" gradientUnits="userSpaceOnUse">
<stop stop-color="#091B2F"/>
<stop offset="1"/>
</radialGradient>
<radialGradient id="paint52_radial_12241_4414" cx="0" cy="0" r="1" gradientTransform="matrix(-3.72586 7.51952 -23.6949 -19.9776 103.412 200.464)" gradientUnits="userSpaceOnUse">
<stop offset="0.0808128"/>
<stop offset="1" stop-opacity="0"/>
</radialGradient>
<radialGradient id="paint53_radial_12241_4414" cx="0" cy="0" r="1" gradientTransform="matrix(3.15328 7.47485 -16.5419 11.874 122.253 205.966)" gradientUnits="userSpaceOnUse">
<stop offset="0.0808128"/>
<stop offset="1" stop-opacity="0"/>
</radialGradient>
<radialGradient id="paint54_radial_12241_4414" cx="0" cy="0" r="1" gradientTransform="matrix(-6.60812 1.10042 -2.3597 -38.3737 89.5635 176.989)" gradientUnits="userSpaceOnUse">
<stop offset="0.0808128"/>
<stop offset="1" stop-opacity="0"/>
</radialGradient>
<radialGradient id="paint55_radial_12241_4414" cx="0" cy="0" r="1" gradientTransform="matrix(-12.4778 21.9197 -27.4641 -13.2978 65.2725 196.723)" gradientUnits="userSpaceOnUse">
<stop stop-color="#091B2F"/>
<stop offset="1"/>
</radialGradient>
<radialGradient id="paint56_radial_12241_4414" cx="0" cy="0" r="1" gradientTransform="matrix(-3.93646 5.61693 -25.0343 -14.9228 49.915 219.823)" gradientUnits="userSpaceOnUse">
<stop offset="0.0808128"/>
<stop offset="1" stop-opacity="0"/>
</radialGradient>
<radialGradient id="paint57_radial_12241_4414" cx="0" cy="0" r="1" gradientTransform="matrix(3.33151 5.58355 -17.477 8.86965 69.8201 223.933)" gradientUnits="userSpaceOnUse">
<stop offset="0.0808128"/>
<stop offset="1" stop-opacity="0"/>
</radialGradient>
<radialGradient id="paint58_radial_12241_4414" cx="0" cy="0" r="1" gradientTransform="matrix(-6.98165 0.821989 -2.49308 -28.6643 35.2833 202.288)" gradientUnits="userSpaceOnUse">
<stop offset="0.0808128"/>
<stop offset="1" stop-opacity="0"/>
</radialGradient>
<linearGradient id="paint59_linear_12241_4414" x1="85.1565" y1="176.961" x2="65.936" y2="207.811" gradientUnits="userSpaceOnUse">
<stop stop-color="#CCC5EB"/>
<stop offset="1" stop-color="#AB9EEA"/>
</linearGradient>
<radialGradient id="paint60_radial_12241_4414" cx="0" cy="0" r="1" gradientUnits="userSpaceOnUse" gradientTransform="translate(62.5484 205.739) rotate(124.717) scale(6.65801 45.2506)">
<stop stop-opacity="0.6"/>
<stop offset="0.923959" stop-opacity="0"/>
</radialGradient>
<radialGradient id="paint61_radial_12241_4414" cx="0" cy="0" r="1" gradientUnits="userSpaceOnUse" gradientTransform="translate(89.4217 210.743) rotate(65.9261) scale(10.1043 57.5612)">
<stop offset="0.0808128"/>
<stop offset="1" stop-opacity="0"/>
</radialGradient>
<radialGradient id="paint62_radial_12241_4414" cx="0" cy="0" r="1" gradientUnits="userSpaceOnUse" gradientTransform="translate(48.3698 184.317) rotate(-180) scale(8.24335 39.065)">
<stop offset="0.0808128" stop-opacity="0.8"/>
<stop offset="1" stop-opacity="0"/>
</radialGradient>
<radialGradient id="paint63_radial_12241_4414" cx="0" cy="0" r="1" gradientUnits="userSpaceOnUse" gradientTransform="translate(62.5396 164.024) rotate(-113.767) scale(8.29409 56.0071)">
<stop offset="0.240815" stop-color="white"/>
<stop offset="1" stop-color="white" stop-opacity="0"/>
</radialGradient>
<radialGradient id="paint64_radial_12241_4414" cx="0" cy="0" r="1" gradientTransform="matrix(7.54267 -10.7108 66.3354 42.0189 87.7731 164.616)" gradientUnits="userSpaceOnUse">
<stop offset="0.45955" stop-color="white" stop-opacity="0.7"/>
<stop offset="0.558891" stop-color="white" stop-opacity="0"/>
</radialGradient>
<radialGradient id="paint65_radial_12241_4414" cx="0" cy="0" r="1" gradientTransform="matrix(-12.7075 29.3727 -27.9695 -17.8192 68.2724 139.441)" gradientUnits="userSpaceOnUse">
<stop stop-color="#091B2F"/>
<stop offset="1"/>
</radialGradient>
<radialGradient id="paint66_radial_12241_4414" cx="0" cy="0" r="1" gradientTransform="matrix(-4.00891 7.52674 -25.495 -19.9968 52.6322 170.396)" gradientUnits="userSpaceOnUse">
<stop offset="0.0808128"/>
<stop offset="1" stop-opacity="0"/>
</radialGradient>
<radialGradient id="paint67_radial_12241_4414" cx="0" cy="0" r="1" gradientTransform="matrix(3.39283 7.48203 -17.7986 11.8854 72.9037 175.903)" gradientUnits="userSpaceOnUse">
<stop offset="0.0808128"/>
<stop offset="1" stop-opacity="0"/>
</radialGradient>
<radialGradient id="paint68_radial_12241_4414" cx="0" cy="0" r="1" gradientTransform="matrix(-7.11014 1.10147 -2.53896 -38.4105 37.7312 146.898)" gradientUnits="userSpaceOnUse">
<stop offset="0.0808128"/>
<stop offset="1" stop-opacity="0"/>
</radialGradient>
<radialGradient id="paint69_radial_12241_4414" cx="0" cy="0" r="1" gradientUnits="userSpaceOnUse" gradientTransform="translate(118.026 119.578) rotate(117.699) scale(25.169 29.0837)">
<stop stop-color="#091B2F"/>
<stop offset="1"/>
</radialGradient>
<radialGradient id="paint70_radial_12241_4414" cx="0" cy="0" r="1" gradientUnits="userSpaceOnUse" gradientTransform="translate(103.627 143.062) rotate(122.876) scale(6.79937 27.9486)">
<stop offset="0.0808128"/>
<stop offset="1" stop-opacity="0"/>
</radialGradient>
<radialGradient id="paint71_radial_12241_4414" cx="0" cy="0" r="1" gradientUnits="userSpaceOnUse" gradientTransform="translate(122.29 147.241) rotate(61.1768) scale(6.47919 18.7038)">
<stop offset="0.0808128"/>
<stop offset="1" stop-opacity="0"/>
</radialGradient>
<radialGradient id="paint72_radial_12241_4414" cx="0" cy="0" r="1" gradientTransform="matrix(-6.54609 0.83567 -2.33754 -29.1414 89.9082 125.235)" gradientUnits="userSpaceOnUse">
<stop offset="0.0808128"/>
<stop offset="1" stop-opacity="0"/>
</radialGradient>
<radialGradient id="paint73_radial_12241_4414" cx="0" cy="0" r="1" gradientUnits="userSpaceOnUse" gradientTransform="translate(115.799 143.472) rotate(155.871) scale(25.9205 34.562)">
<stop stop-color="#ECEAF2"/>
<stop offset="1" stop-color="#D5CEEA"/>
</radialGradient>
<radialGradient id="paint74_radial_12241_4414" cx="0" cy="0" r="1" gradientUnits="userSpaceOnUse" gradientTransform="translate(84.1357 174.183) rotate(123.311) scale(6.57955 28.2463)">
<stop offset="0.0808128" stop-opacity="0.6"/>
<stop offset="1" stop-opacity="0"/>
</radialGradient>
<radialGradient id="paint75_radial_12241_4414" cx="0" cy="0" r="1" gradientUnits="userSpaceOnUse" gradientTransform="translate(109.743 179.21) rotate(67.0362) scale(10.0668 54.4762)">
<stop offset="0.0808128"/>
<stop offset="1" stop-opacity="0"/>
</radialGradient>
<radialGradient id="paint76_radial_12241_4414" cx="0" cy="0" r="1" gradientUnits="userSpaceOnUse" gradientTransform="translate(70.625 152.66) rotate(-180) scale(7.85509 39.2497)">
<stop offset="0.0808128" stop-opacity="0.8"/>
<stop offset="1" stop-opacity="0"/>
</radialGradient>
<radialGradient id="paint77_radial_12241_4414" cx="0" cy="0" r="1" gradientUnits="userSpaceOnUse" gradientTransform="translate(108.172 132.865) rotate(-56.2617) scale(12.9409 76.0128)">
<stop offset="0.45955" stop-color="white" stop-opacity="0.7"/>
<stop offset="0.558891" stop-color="white" stop-opacity="0"/>
</radialGradient>
<clipPath id="clip0_12241_4414">
<rect width="229" height="229" fill="white"/>
</clipPath>
</defs>
</svg>
