<svg width="48" height="48" viewBox="0 0 48 48" fill="none" xmlns="http://www.w3.org/2000/svg">
<path d="M41.9998 42.0003L33.3198 33.3203" stroke="url(#paint0_linear_11437_3510)" stroke-width="3" stroke-linecap="round" stroke-linejoin="round"/>
<path d="M22 38C30.8366 38 38 30.8366 38 22C38 13.1634 30.8366 6 22 6C13.1634 6 6 13.1634 6 22C6 30.8366 13.1634 38 22 38Z" fill="url(#paint1_linear_11437_3510)" stroke="url(#paint2_linear_11437_3510)" stroke-width="3" stroke-linecap="round" stroke-linejoin="round"/>
<path d="M38.1149 9.03502C36.8051 8.4712 35.6592 7.69775 34.6765 6.71556C33.6943 5.73336 32.9208 4.58691 32.3571 3.27722C32.1414 2.7764 31.9663 2.25908 31.8334 1.73023C31.7899 1.5573 31.6348 1.43555 31.4565 1.43555C31.2782 1.43555 31.1232 1.5573 31.0797 1.73023C30.9467 2.25906 30.7716 2.77637 30.556 3.27722C29.9922 4.58691 29.2187 5.73336 28.2366 6.71556C27.2544 7.69775 26.1079 8.4712 24.7982 9.03502C24.2974 9.25068 23.7801 9.42581 23.2512 9.55871C23.0783 9.60219 22.9565 9.75728 22.9565 9.93555C22.9565 10.1138 23.0783 10.2689 23.2512 10.3124C23.78 10.4453 24.2973 10.6205 24.7982 10.8361C26.1079 11.3999 27.2539 12.1733 28.2366 13.1555C29.2192 14.1377 29.9922 15.2841 30.556 16.5939C30.7717 17.0947 30.9468 17.612 31.0797 18.1408C31.1232 18.3138 31.2782 18.4355 31.4565 18.4355C31.6348 18.4355 31.7899 18.3138 31.8334 18.1408C31.9663 17.612 32.1415 17.0947 32.3571 16.5939C32.9208 15.2841 33.6943 14.1382 34.6765 13.1555C35.6587 12.1733 36.8051 11.3999 38.1149 10.8361C38.6157 10.6204 39.133 10.4453 39.6618 10.3124C39.8348 10.2689 39.9565 10.1138 39.9565 9.93555C39.9565 9.75728 39.8348 9.60219 39.6618 9.55871C39.133 9.42574 38.6157 9.25061 38.1149 9.03502Z" fill="url(#paint3_linear_11437_3510)"/>
<path d="M43.025 20.0233C42.3316 19.7248 41.7249 19.3153 41.2047 18.7953C40.6847 18.2753 40.2752 17.6684 39.9768 16.975C39.8626 16.7099 39.7699 16.436 39.6995 16.156C39.6765 16.0645 39.5944 16 39.5 16C39.4056 16 39.3235 16.0645 39.3005 16.156C39.2301 16.436 39.1374 16.7099 39.0232 16.975C38.7248 17.6684 38.3153 18.2753 37.7953 18.7953C37.2753 19.3153 36.6684 19.7248 35.975 20.0233C35.7098 20.1374 35.436 20.2301 35.156 20.3005C35.0645 20.3235 35 20.4056 35 20.5C35 20.5944 35.0645 20.6765 35.156 20.6995C35.436 20.7699 35.7098 20.8626 35.975 20.9768C36.6684 21.2752 37.2751 21.6847 37.7953 22.2047C38.3155 22.7247 38.7248 23.3316 39.0232 24.025C39.1374 24.2901 39.2301 24.564 39.3005 24.844C39.3235 24.9356 39.4056 25 39.5 25C39.5944 25 39.6765 24.9356 39.6995 24.844C39.7699 24.564 39.8626 24.2902 39.9768 24.025C40.2752 23.3316 40.6847 22.7249 41.2047 22.2047C41.7247 21.6847 42.3316 21.2752 43.025 20.9768C43.2901 20.8626 43.564 20.7699 43.844 20.6995C43.9355 20.6765 44 20.5944 44 20.5C44 20.4056 43.9355 20.3235 43.844 20.3005C43.564 20.2301 43.2902 20.1374 43.025 20.0233Z" fill="url(#paint4_linear_11437_3510)"/>
<defs>
<linearGradient id="paint0_linear_11437_3510" x1="36.0213" y1="38.9309" x2="39.9478" y2="35.6205" gradientUnits="userSpaceOnUse">
<stop stop-color="#009FFA"/>
<stop offset="0.777" stop-color="#00C1FF"/>
</linearGradient>
<linearGradient id="paint1_linear_11437_3510" x1="38" y1="6" x2="6" y2="38" gradientUnits="userSpaceOnUse">
<stop stop-color="white"/>
<stop offset="1" stop-color="#A5E9FF"/>
</linearGradient>
<linearGradient id="paint2_linear_11437_3510" x1="15.9592" y1="26.6844" x2="30.4348" y2="14.4798" gradientUnits="userSpaceOnUse">
<stop stop-color="#009FFA"/>
<stop offset="0.777" stop-color="#00C1FF"/>
</linearGradient>
<linearGradient id="paint3_linear_11437_3510" x1="39.9565" y1="18.4355" x2="22.9565" y2="1.43555" gradientUnits="userSpaceOnUse">
<stop stop-color="#FE8E00"/>
<stop offset="0.372" stop-color="#FFA400"/>
<stop offset="0.777" stop-color="#FFC100"/>
</linearGradient>
<linearGradient id="paint4_linear_11437_3510" x1="44" y1="25" x2="35" y2="16" gradientUnits="userSpaceOnUse">
<stop stop-color="#FE8E00"/>
<stop offset="0.372" stop-color="#FFA400"/>
<stop offset="0.777" stop-color="#FFC100"/>
</linearGradient>
</defs>
</svg>
