<svg width="143" height="132" viewBox="0 0 143 132" fill="none" xmlns="http://www.w3.org/2000/svg">
<circle cx="71.5207" cy="71.3097" r="56.9484" fill="#00041D"/>
<path d="M65.8985 13.3888C64.0879 13.5559 63.2638 14.0619 63.0781 14.2941C63.7467 14.7676 63.7049 15.652 63.6004 16.0351L84.144 20.9098L102.947 24.3221C103.121 23.5909 102.981 22.616 101.519 21.7803C84.8056 12.5879 68.1618 13.1798 65.8985 13.3888Z" fill="url(#paint0_linear_12246_4628)"/>
<path d="M65.8985 13.3888C64.0879 13.5559 63.2638 14.0619 63.0781 14.2941C63.7467 14.7676 63.7049 15.652 63.6004 16.0351L84.144 20.9098L102.947 24.3221C103.121 23.5909 102.981 22.616 101.519 21.7803C84.8056 12.5879 68.1618 13.1798 65.8985 13.3888Z" fill="url(#paint1_radial_12246_4628)"/>
<path d="M65.8985 13.3888C64.0879 13.5559 63.2638 14.0619 63.0781 14.2941C63.7467 14.7676 63.7049 15.652 63.6004 16.0351L84.144 20.9098L102.947 24.3221C103.121 23.5909 102.981 22.616 101.519 21.7803C84.8056 12.5879 68.1618 13.1798 65.8985 13.3888Z" fill="url(#paint2_radial_12246_4628)"/>
<path d="M65.8985 13.3888C64.0879 13.5559 63.2638 14.0619 63.0781 14.2941C63.7467 14.7676 63.7049 15.652 63.6004 16.0351L84.144 20.9098L102.947 24.3221C103.121 23.5909 102.981 22.616 101.519 21.7803C84.8056 12.5879 68.1618 13.1798 65.8985 13.3888Z" fill="url(#paint3_radial_12246_4628)"/>
<path d="M15.0445 88.9832C14.7599 87.9376 15.1083 87.219 15.236 87.0159L17.743 86.4414C21.3294 91.2581 28.6972 101.045 29.4772 101.658C30.2571 102.27 30.6843 103.329 30.8003 103.782L40.898 118.789C40.6891 119.439 39.7002 120.425 37.4161 119.172C26.9702 113.183 16.6636 94.9374 15.0445 88.9832Z" fill="url(#paint4_linear_12246_4628)"/>
<path d="M15.0445 88.9832C14.7599 87.9376 15.1083 87.219 15.236 87.0159L17.743 86.4414C21.3294 91.2581 28.6972 101.045 29.4772 101.658C30.2571 102.27 30.6843 103.329 30.8003 103.782L40.898 118.789C40.6891 119.439 39.7002 120.425 37.4161 119.172C26.9702 113.183 16.6636 94.9374 15.0445 88.9832Z" fill="url(#paint5_radial_12246_4628)"/>
<path d="M31.3232 28.5876C30.6546 29.5347 30.7312 30.0557 30.766 30.2066L44.5894 25.7149L63.6706 15.8784C64.1163 14.5134 63.0032 14.0097 62.5737 13.9633C59.736 13.5628 52.8069 14.886 45.2162 18.6117C35.7105 23.7475 32.1588 27.4037 31.3232 28.5876Z" fill="url(#paint6_radial_12246_4628)"/>
<path d="M31.3232 28.5876C30.6546 29.5347 30.7312 30.0557 30.766 30.2066L44.5894 25.7149L63.6706 15.8784C64.1163 14.5134 63.0032 14.0097 62.5737 13.9633C59.736 13.5628 52.8069 14.886 45.2162 18.6117C35.7105 23.7475 32.1588 27.4037 31.3232 28.5876Z" fill="url(#paint7_radial_12246_4628)"/>
<path d="M31.3232 28.5876C30.6546 29.5347 30.7312 30.0557 30.766 30.2066L44.5894 25.7149L63.6706 15.8784C64.1163 14.5134 63.0032 14.0097 62.5737 13.9633C59.736 13.5628 52.8069 14.886 45.2162 18.6117C35.7105 23.7475 32.1588 27.4037 31.3232 28.5876Z" fill="url(#paint8_radial_12246_4628)"/>
<path d="M31.3232 28.5876C30.6546 29.5347 30.7312 30.0557 30.766 30.2066L44.5894 25.7149L63.6706 15.8784C64.1163 14.5134 63.0032 14.0097 62.5737 13.9633C59.736 13.5628 52.8069 14.886 45.2162 18.6117C35.7105 23.7475 32.1588 27.4037 31.3232 28.5876Z" fill="url(#paint9_radial_12246_4628)"/>
<path d="M79.1482 129.008L79.8268 127.789L110.607 112.66C111.106 113.09 111.513 113.914 110.607 115.272C99.9874 125.718 85.1891 129.095 82.6124 129.478C81.1247 129.699 80.0432 129.668 79.4126 129.585C79.1357 129.549 79.0123 129.252 79.1482 129.008Z" fill="url(#paint10_radial_12246_4628)"/>
<path d="M79.1482 129.008L79.8268 127.789L110.607 112.66C111.106 113.09 111.513 113.914 110.607 115.272C99.9874 125.718 85.1891 129.095 82.6124 129.478C81.1247 129.699 80.0432 129.668 79.4126 129.585C79.1357 129.549 79.0123 129.252 79.1482 129.008Z" fill="url(#paint11_radial_12246_4628)"/>
<path d="M79.1482 129.008L79.8268 127.789L110.607 112.66C111.106 113.09 111.513 113.914 110.607 115.272C99.9874 125.718 85.1891 129.095 82.6124 129.478C81.1247 129.699 80.0432 129.668 79.4126 129.585C79.1357 129.549 79.0123 129.252 79.1482 129.008Z" fill="url(#paint12_radial_12246_4628)"/>
<path d="M79.1482 129.008L79.8268 127.789L110.607 112.66C111.106 113.09 111.513 113.914 110.607 115.272C99.9874 125.718 85.1891 129.095 82.6124 129.478C81.1247 129.699 80.0432 129.668 79.4126 129.585C79.1357 129.549 79.0123 129.252 79.1482 129.008Z" fill="url(#paint13_radial_12246_4628)"/>
<path d="M127.982 57.4354C127.564 56.5301 126.966 56.1819 126.676 56.1123L125.893 77.3523V92.1158C132.195 80.5208 129.688 60.4648 127.982 57.4354Z" fill="url(#paint14_radial_12246_4628)"/>
<path d="M127.982 57.4354C127.564 56.5301 126.966 56.1819 126.676 56.1123L125.893 77.3523V92.1158C132.195 80.5208 129.688 60.4648 127.982 57.4354Z" fill="url(#paint15_radial_12246_4628)"/>
<path d="M127.982 57.4354C127.564 56.5301 126.966 56.1819 126.676 56.1123L125.893 77.3523V92.1158C132.195 80.5208 129.688 60.4648 127.982 57.4354Z" fill="url(#paint16_radial_12246_4628)"/>
<path d="M127.982 57.4354C127.564 56.5301 126.966 56.1819 126.676 56.1123L125.893 77.3523V92.1158C132.195 80.5208 129.688 60.4648 127.982 57.4354Z" fill="url(#paint17_radial_12246_4628)"/>
<path d="M104.202 23.5569C103.143 22.9998 102.246 23.4177 101.852 23.5569L113.847 39.0516L126.173 57.715C127.176 56.6564 127.125 55.4749 127.009 54.9642C122.064 31.7743 105.525 24.2533 104.202 23.5569Z" fill="#EDEDEE"/>
<path d="M104.202 23.5569C103.143 22.9998 102.246 23.4177 101.852 23.5569L113.847 39.0516L126.173 57.715C127.176 56.6564 127.125 55.4749 127.009 54.9642C122.064 31.7743 105.525 24.2533 104.202 23.5569Z" fill="url(#paint18_radial_12246_4628)"/>
<path d="M14.0603 86.0055C10.0291 72.594 12.783 58.8075 15.7721 52.1582C16.0177 51.612 16.5137 51.2309 17.0977 51.0986L18.9428 63.1611C19.0935 64.1463 19.1336 65.1451 19.0623 66.1392L17.6027 86.4928L16.4741 87.0369C15.5162 87.4987 14.3664 87.0238 14.0603 86.0055Z" fill="url(#paint19_radial_12246_4628)"/>
<path d="M14.0603 86.0055C10.0291 72.594 12.783 58.8075 15.7721 52.1582C16.0177 51.612 16.5137 51.2309 17.0977 51.0986L18.9428 63.1611C19.0935 64.1463 19.1336 65.1451 19.0623 66.1392L17.6027 86.4928L16.4741 87.0369C15.5162 87.4987 14.3664 87.0238 14.0603 86.0055Z" fill="url(#paint20_radial_12246_4628)"/>
<path d="M14.0603 86.0055C10.0291 72.594 12.783 58.8075 15.7721 52.1582C16.0177 51.612 16.5137 51.2309 17.0977 51.0986L18.9428 63.1611C19.0935 64.1463 19.1336 65.1451 19.0623 66.1392L17.6027 86.4928L16.4741 87.0369C15.5162 87.4987 14.3664 87.0238 14.0603 86.0055Z" fill="url(#paint21_radial_12246_4628)"/>
<path d="M14.0603 86.0055C10.0291 72.594 12.783 58.8075 15.7721 52.1582C16.0177 51.612 16.5137 51.2309 17.0977 51.0986L18.9428 63.1611C19.0935 64.1463 19.1336 65.1451 19.0623 66.1392L17.6027 86.4928L16.4741 87.0369C15.5162 87.4987 14.3664 87.0238 14.0603 86.0055Z" fill="url(#paint22_radial_12246_4628)"/>
<path d="M62.4693 15.9045C55.3164 18.1029 49.3891 21.5397 46.1157 23.8589C45.0332 24.6259 44.4434 25.8919 44.4761 27.2182C44.5663 30.8793 44.8701 34.6418 45.1704 37.078C45.3343 38.4074 46.4756 39.3221 47.8139 39.3789C54.9745 39.6831 60.5336 41.3656 63.8445 42.8163C65.3846 43.4911 67.1839 43.5108 68.6494 42.6864C73.5052 39.955 79.1869 37.2878 82.9294 35.7054C84.3796 35.0922 85.2666 33.5874 85.0656 32.0257C84.5718 28.1879 84.3153 25.0348 84.2384 22.0471C84.2078 20.8576 83.4877 19.7821 82.3651 19.3875C76.1862 17.2152 69.6002 16.1086 65.6906 15.6272C64.6092 15.494 63.5109 15.5844 62.4693 15.9045Z" fill="url(#paint23_radial_12246_4628)"/>
<path d="M62.4693 15.9045C55.3164 18.1029 49.3891 21.5397 46.1157 23.8589C45.0332 24.6259 44.4434 25.8919 44.4761 27.2182C44.5663 30.8793 44.8701 34.6418 45.1704 37.078C45.3343 38.4074 46.4756 39.3221 47.8139 39.3789C54.9745 39.6831 60.5336 41.3656 63.8445 42.8163C65.3846 43.4911 67.1839 43.5108 68.6494 42.6864C73.5052 39.955 79.1869 37.2878 82.9294 35.7054C84.3796 35.0922 85.2666 33.5874 85.0656 32.0257C84.5718 28.1879 84.3153 25.0348 84.2384 22.0471C84.2078 20.8576 83.4877 19.7821 82.3651 19.3875C76.1862 17.2152 69.6002 16.1086 65.6906 15.6272C64.6092 15.494 63.5109 15.5844 62.4693 15.9045Z" fill="url(#paint24_radial_12246_4628)"/>
<path d="M62.4693 15.9045C55.3164 18.1029 49.3891 21.5397 46.1157 23.8589C45.0332 24.6259 44.4434 25.8919 44.4761 27.2182C44.5663 30.8793 44.8701 34.6418 45.1704 37.078C45.3343 38.4074 46.4756 39.3221 47.8139 39.3789C54.9745 39.6831 60.5336 41.3656 63.8445 42.8163C65.3846 43.4911 67.1839 43.5108 68.6494 42.6864C73.5052 39.955 79.1869 37.2878 82.9294 35.7054C84.3796 35.0922 85.2666 33.5874 85.0656 32.0257C84.5718 28.1879 84.3153 25.0348 84.2384 22.0471C84.2078 20.8576 83.4877 19.7821 82.3651 19.3875C76.1862 17.2152 69.6002 16.1086 65.6906 15.6272C64.6092 15.494 63.5109 15.5844 62.4693 15.9045Z" fill="url(#paint25_radial_12246_4628)"/>
<path d="M62.4693 15.9045C55.3164 18.1029 49.3891 21.5397 46.1157 23.8589C45.0332 24.6259 44.4434 25.8919 44.4761 27.2182C44.5663 30.8793 44.8701 34.6418 45.1704 37.078C45.3343 38.4074 46.4756 39.3221 47.8139 39.3789C54.9745 39.6831 60.5336 41.3656 63.8445 42.8163C65.3846 43.4911 67.1839 43.5108 68.6494 42.6864C73.5052 39.955 79.1869 37.2878 82.9294 35.7054C84.3796 35.0922 85.2666 33.5874 85.0656 32.0257C84.5718 28.1879 84.3153 25.0348 84.2384 22.0471C84.2078 20.8576 83.4877 19.7821 82.3651 19.3875C76.1862 17.2152 69.6002 16.1086 65.6906 15.6272C64.6092 15.494 63.5109 15.5844 62.4693 15.9045Z" fill="url(#paint26_radial_12246_4628)"/>
<path d="M62.4693 15.9045C55.3164 18.1029 49.3891 21.5397 46.1157 23.8589C45.0332 24.6259 44.4434 25.8919 44.4761 27.2182C44.5663 30.8793 44.8701 34.6418 45.1704 37.078C45.3343 38.4074 46.4756 39.3221 47.8139 39.3789C54.9745 39.6831 60.5336 41.3656 63.8445 42.8163C65.3846 43.4911 67.1839 43.5108 68.6494 42.6864C73.5052 39.955 79.1869 37.2878 82.9294 35.7054C84.3796 35.0922 85.2666 33.5874 85.0656 32.0257C84.5718 28.1879 84.3153 25.0348 84.2384 22.0471C84.2078 20.8576 83.4877 19.7821 82.3651 19.3875C76.1862 17.2152 69.6002 16.1086 65.6906 15.6272C64.6092 15.494 63.5109 15.5844 62.4693 15.9045Z" fill="url(#paint27_radial_12246_4628)"/>
<path d="M62.4693 15.9045C55.3164 18.1029 49.3891 21.5397 46.1157 23.8589C45.0332 24.6259 44.4434 25.8919 44.4761 27.2182C44.5663 30.8793 44.8701 34.6418 45.1704 37.078C45.3343 38.4074 46.4756 39.3221 47.8139 39.3789C54.9745 39.6831 60.5336 41.3656 63.8445 42.8163C65.3846 43.4911 67.1839 43.5108 68.6494 42.6864C73.5052 39.955 79.1869 37.2878 82.9294 35.7054C84.3796 35.0922 85.2666 33.5874 85.0656 32.0257C84.5718 28.1879 84.3153 25.0348 84.2384 22.0471C84.2078 20.8576 83.4877 19.7821 82.3651 19.3875C76.1862 17.2152 69.6002 16.1086 65.6906 15.6272C64.6092 15.494 63.5109 15.5844 62.4693 15.9045Z" fill="url(#paint28_radial_12246_4628)"/>
<path d="M17.8211 48.2304C23.0506 38.3067 26.9557 33.6036 29.0594 31.5649C31.9976 28.4523 38.9216 26.0688 42.5419 25.6124C43.5414 25.4864 44.3062 26.2729 44.4003 27.2759L45.3523 37.422C45.4853 38.8396 44.9198 40.2234 43.9168 41.2341C38.6737 46.5175 35.3715 53.0844 33.8475 56.591C33.1735 58.142 31.9282 59.4044 30.3362 59.9746L20.6732 63.4354C19.4373 63.878 18.092 63.1613 17.8475 61.8715C17.2796 58.8761 16.863 55.2932 16.719 52.8417C16.6243 51.2291 17.068 49.6595 17.8211 48.2304Z" fill="url(#paint29_linear_12246_4628)"/>
<path d="M17.8211 48.2304C23.0506 38.3067 26.9557 33.6036 29.0594 31.5649C31.9976 28.4523 38.9216 26.0688 42.5419 25.6124C43.5414 25.4864 44.3062 26.2729 44.4003 27.2759L45.3523 37.422C45.4853 38.8396 44.9198 40.2234 43.9168 41.2341C38.6737 46.5175 35.3715 53.0844 33.8475 56.591C33.1735 58.142 31.9282 59.4044 30.3362 59.9746L20.6732 63.4354C19.4373 63.878 18.092 63.1613 17.8475 61.8715C17.2796 58.8761 16.863 55.2932 16.719 52.8417C16.6243 51.2291 17.068 49.6595 17.8211 48.2304Z" fill="url(#paint30_linear_12246_4628)"/>
<path d="M77.3198 130.035C57.2986 130.558 44.926 124.406 39.8888 120.878C39.3316 120.503 39.204 119.956 39.2272 119.764C40.0071 119.736 40.5039 119.398 40.62 119.259L62.1733 123.315L79.6527 127.668C79.8268 128.318 79.5204 129.785 77.3198 130.035Z" fill="#867CFF"/>
<path d="M77.3198 130.035C57.2986 130.558 44.926 124.406 39.8888 120.878C39.3316 120.503 39.204 119.956 39.2272 119.764C40.0071 119.736 40.5039 119.398 40.62 119.259L62.1733 123.315L79.6527 127.668C79.8268 128.318 79.5204 129.785 77.3198 130.035Z" fill="url(#paint31_radial_12246_4628)"/>
<path d="M104.805 67.4114L104.906 48.9013C104.911 47.9718 105.497 47.1465 106.36 46.8029C110.531 45.1431 113.064 43.5508 114.544 42.3415C115.337 41.6934 116.531 41.6241 117.231 42.3717C120.41 45.7676 123.501 50.4798 125.565 54.0375C126.913 56.362 127.649 58.9809 127.776 61.6652C128.076 68.0049 127.735 73.832 127.374 77.4657C127.232 78.8868 126.367 80.12 125.108 80.7944L117.377 84.9373C116.632 85.3365 115.709 84.9516 115.423 84.1563C113.116 77.7509 109.122 73.3932 106.419 70.9437C105.415 70.0346 104.797 68.7653 104.805 67.4114Z" fill="url(#paint32_radial_12246_4628)"/>
<path d="M104.805 67.4114L104.906 48.9013C104.911 47.9718 105.497 47.1465 106.36 46.8029C110.531 45.1431 113.064 43.5508 114.544 42.3415C115.337 41.6934 116.531 41.6241 117.231 42.3717C120.41 45.7676 123.501 50.4798 125.565 54.0375C126.913 56.362 127.649 58.9809 127.776 61.6652C128.076 68.0049 127.735 73.832 127.374 77.4657C127.232 78.8868 126.367 80.12 125.108 80.7944L117.377 84.9373C116.632 85.3365 115.709 84.9516 115.423 84.1563C113.116 77.7509 109.122 73.3932 106.419 70.9437C105.415 70.0346 104.797 68.7653 104.805 67.4114Z" fill="url(#paint33_radial_12246_4628)"/>
<path d="M104.805 67.4114L104.906 48.9013C104.911 47.9718 105.497 47.1465 106.36 46.8029C110.531 45.1431 113.064 43.5508 114.544 42.3415C115.337 41.6934 116.531 41.6241 117.231 42.3717C120.41 45.7676 123.501 50.4798 125.565 54.0375C126.913 56.362 127.649 58.9809 127.776 61.6652C128.076 68.0049 127.735 73.832 127.374 77.4657C127.232 78.8868 126.367 80.12 125.108 80.7944L117.377 84.9373C116.632 85.3365 115.709 84.9516 115.423 84.1563C113.116 77.7509 109.122 73.3932 106.419 70.9437C105.415 70.0346 104.797 68.7653 104.805 67.4114Z" fill="url(#paint34_radial_12246_4628)"/>
<path d="M104.805 67.4114L104.906 48.9013C104.911 47.9718 105.497 47.1465 106.36 46.8029C110.531 45.1431 113.064 43.5508 114.544 42.3415C115.337 41.6934 116.531 41.6241 117.231 42.3717C120.41 45.7676 123.501 50.4798 125.565 54.0375C126.913 56.362 127.649 58.9809 127.776 61.6652C128.076 68.0049 127.735 73.832 127.374 77.4657C127.232 78.8868 126.367 80.12 125.108 80.7944L117.377 84.9373C116.632 85.3365 115.709 84.9516 115.423 84.1563C113.116 77.7509 109.122 73.3932 106.419 70.9437C105.415 70.0346 104.797 68.7653 104.805 67.4114Z" fill="url(#paint35_radial_12246_4628)"/>
<path d="M62.4333 122.052C63.4479 118.992 63.75 115.518 63.7308 112.921C63.72 111.474 64.4923 110.095 65.8091 109.496L82.3724 101.955C83.7774 101.315 85.3997 101.479 86.7926 102.145C91.6545 104.468 97.9557 105.1 101.221 105.007C102.065 104.983 102.844 105.65 102.827 106.493C102.721 111.646 102.118 115.052 101.402 117.367C101.038 118.545 100.225 119.52 99.1898 120.192C92.7662 124.359 85.5283 127.096 81.412 128.017C80.574 128.204 79.7067 128.201 78.8579 128.071C71.9928 127.02 66.5406 125.475 63.4995 124.43C62.5399 124.101 62.1139 123.015 62.4333 122.052Z" fill="url(#paint36_radial_12246_4628)"/>
<path d="M62.4333 122.052C63.4479 118.992 63.75 115.518 63.7308 112.921C63.72 111.474 64.4923 110.095 65.8091 109.496L82.3724 101.955C83.7774 101.315 85.3997 101.479 86.7926 102.145C91.6545 104.468 97.9557 105.1 101.221 105.007C102.065 104.983 102.844 105.65 102.827 106.493C102.721 111.646 102.118 115.052 101.402 117.367C101.038 118.545 100.225 119.52 99.1898 120.192C92.7662 124.359 85.5283 127.096 81.412 128.017C80.574 128.204 79.7067 128.201 78.8579 128.071C71.9928 127.02 66.5406 125.475 63.4995 124.43C62.5399 124.101 62.1139 123.015 62.4333 122.052Z" fill="url(#paint37_radial_12246_4628)"/>
<path d="M62.4333 122.052C63.4479 118.992 63.75 115.518 63.7308 112.921C63.72 111.474 64.4923 110.095 65.8091 109.496L82.3724 101.955C83.7774 101.315 85.3997 101.479 86.7926 102.145C91.6545 104.468 97.9557 105.1 101.221 105.007C102.065 104.983 102.844 105.65 102.827 106.493C102.721 111.646 102.118 115.052 101.402 117.367C101.038 118.545 100.225 119.52 99.1898 120.192C92.7662 124.359 85.5283 127.096 81.412 128.017C80.574 128.204 79.7067 128.201 78.8579 128.071C71.9928 127.02 66.5406 125.475 63.4995 124.43C62.5399 124.101 62.1139 123.015 62.4333 122.052Z" fill="url(#paint38_radial_12246_4628)"/>
<path d="M62.4333 122.052C63.4479 118.992 63.75 115.518 63.7308 112.921C63.72 111.474 64.4923 110.095 65.8091 109.496L82.3724 101.955C83.7774 101.315 85.3997 101.479 86.7926 102.145C91.6545 104.468 97.9557 105.1 101.221 105.007C102.065 104.983 102.844 105.65 102.827 106.493C102.721 111.646 102.118 115.052 101.402 117.367C101.038 118.545 100.225 119.52 99.1898 120.192C92.7662 124.359 85.5283 127.096 81.412 128.017C80.574 128.204 79.7067 128.201 78.8579 128.071C71.9928 127.02 66.5406 125.475 63.4995 124.43C62.5399 124.101 62.1139 123.015 62.4333 122.052Z" fill="url(#paint39_radial_12246_4628)"/>
<path d="M62.4333 122.052C63.4479 118.992 63.75 115.518 63.7308 112.921C63.72 111.474 64.4923 110.095 65.8091 109.496L82.3724 101.955C83.7774 101.315 85.3997 101.479 86.7926 102.145C91.6545 104.468 97.9557 105.1 101.221 105.007C102.065 104.983 102.844 105.65 102.827 106.493C102.721 111.646 102.118 115.052 101.402 117.367C101.038 118.545 100.225 119.52 99.1898 120.192C92.7662 124.359 85.5283 127.096 81.412 128.017C80.574 128.204 79.7067 128.201 78.8579 128.071C71.9928 127.02 66.5406 125.475 63.4995 124.43C62.5399 124.101 62.1139 123.015 62.4333 122.052Z" fill="url(#paint40_radial_12246_4628)"/>
<path d="M30.0157 59.4936L20.5136 63.4035C19.3486 63.8828 18.4318 64.829 18.1637 66.06C17.2967 70.0418 16.7106 77.1187 16.9836 83.0206C17.0685 84.8565 17.4764 86.6672 18.3487 88.2849C20.6381 92.5306 24.9245 98.0735 28.0248 101.196C29.273 102.453 31.1725 102.496 32.7325 101.657C35.5294 100.152 38.0565 99.2249 42.1687 97.9752C43.5143 97.5663 44.4734 96.3699 44.5603 94.9663L45.6212 77.8293C45.716 76.298 45.0018 74.8415 43.8239 73.8585C38.8152 69.6784 35.6845 64.6328 33.8495 60.9871C33.1394 59.5764 31.4762 58.8926 30.0157 59.4936Z" fill="url(#paint41_linear_12246_4628)"/>
<path d="M30.0157 59.4936L20.5136 63.4035C19.3486 63.8828 18.4318 64.829 18.1637 66.06C17.2967 70.0418 16.7106 77.1187 16.9836 83.0206C17.0685 84.8565 17.4764 86.6672 18.3487 88.2849C20.6381 92.5306 24.9245 98.0735 28.0248 101.196C29.273 102.453 31.1725 102.496 32.7325 101.657C35.5294 100.152 38.0565 99.2249 42.1687 97.9752C43.5143 97.5663 44.4734 96.3699 44.5603 94.9663L45.6212 77.8293C45.716 76.298 45.0018 74.8415 43.8239 73.8585C38.8152 69.6784 35.6845 64.6328 33.8495 60.9871C33.1394 59.5764 31.4762 58.8926 30.0157 59.4936Z" fill="url(#paint42_radial_12246_4628)"/>
<path d="M30.0157 59.4936L20.5136 63.4035C19.3486 63.8828 18.4318 64.829 18.1637 66.06C17.2967 70.0418 16.7106 77.1187 16.9836 83.0206C17.0685 84.8565 17.4764 86.6672 18.3487 88.2849C20.6381 92.5306 24.9245 98.0735 28.0248 101.196C29.273 102.453 31.1725 102.496 32.7325 101.657C35.5294 100.152 38.0565 99.2249 42.1687 97.9752C43.5143 97.5663 44.4734 96.3699 44.5603 94.9663L45.6212 77.8293C45.716 76.298 45.0018 74.8415 43.8239 73.8585C38.8152 69.6784 35.6845 64.6328 33.8495 60.9871C33.1394 59.5764 31.4762 58.8926 30.0157 59.4936Z" fill="url(#paint43_radial_12246_4628)"/>
<path d="M30.0157 59.4936L20.5136 63.4035C19.3486 63.8828 18.4318 64.829 18.1637 66.06C17.2967 70.0418 16.7106 77.1187 16.9836 83.0206C17.0685 84.8565 17.4764 86.6672 18.3487 88.2849C20.6381 92.5306 24.9245 98.0735 28.0248 101.196C29.273 102.453 31.1725 102.496 32.7325 101.657C35.5294 100.152 38.0565 99.2249 42.1687 97.9752C43.5143 97.5663 44.4734 96.3699 44.5603 94.9663L45.6212 77.8293C45.716 76.298 45.0018 74.8415 43.8239 73.8585C38.8152 69.6784 35.6845 64.6328 33.8495 60.9871C33.1394 59.5764 31.4762 58.8926 30.0157 59.4936Z" fill="url(#paint44_radial_12246_4628)"/>
<path d="M30.0157 59.4936L20.5136 63.4035C19.3486 63.8828 18.4318 64.829 18.1637 66.06C17.2967 70.0418 16.7106 77.1187 16.9836 83.0206C17.0685 84.8565 17.4764 86.6672 18.3487 88.2849C20.6381 92.5306 24.9245 98.0735 28.0248 101.196C29.273 102.453 31.1725 102.496 32.7325 101.657C35.5294 100.152 38.0565 99.2249 42.1687 97.9752C43.5143 97.5663 44.4734 96.3699 44.5603 94.9663L45.6212 77.8293C45.716 76.298 45.0018 74.8415 43.8239 73.8585C38.8152 69.6784 35.6845 64.6328 33.8495 60.9871C33.1394 59.5764 31.4762 58.8926 30.0157 59.4936Z" fill="url(#paint45_radial_12246_4628)"/>
<path d="M114.865 86.9269C111.322 94.4219 106.425 100.966 103.621 104.236C102.991 104.971 102.581 105.868 102.483 106.831L101.431 117.146C101.379 117.66 101.634 118.181 102.147 118.234C103.423 118.366 105.928 117.732 110.921 114.54C116.945 109.352 123.526 97.9661 125.754 92.8128C127.151 89.1623 127.306 84.4379 127.08 81.4265C127.013 80.5254 126.051 80.0398 125.249 80.4557L116.909 84.7791C116.008 85.2461 115.299 86.0094 114.865 86.9269Z" fill="url(#paint46_radial_12246_4628)"/>
<path d="M114.865 86.9269C111.322 94.4219 106.425 100.966 103.621 104.236C102.991 104.971 102.581 105.868 102.483 106.831L101.431 117.146C101.379 117.66 101.634 118.181 102.147 118.234C103.423 118.366 105.928 117.732 110.921 114.54C116.945 109.352 123.526 97.9661 125.754 92.8128C127.151 89.1623 127.306 84.4379 127.08 81.4265C127.013 80.5254 126.051 80.0398 125.249 80.4557L116.909 84.7791C116.008 85.2461 115.299 86.0094 114.865 86.9269Z" fill="url(#paint47_radial_12246_4628)"/>
<path d="M114.865 86.9269C111.322 94.4219 106.425 100.966 103.621 104.236C102.991 104.971 102.581 105.868 102.483 106.831L101.431 117.146C101.379 117.66 101.634 118.181 102.147 118.234C103.423 118.366 105.928 117.732 110.921 114.54C116.945 109.352 123.526 97.9661 125.754 92.8128C127.151 89.1623 127.306 84.4379 127.08 81.4265C127.013 80.5254 126.051 80.0398 125.249 80.4557L116.909 84.7791C116.008 85.2461 115.299 86.0094 114.865 86.9269Z" fill="url(#paint48_radial_12246_4628)"/>
<path d="M102.87 70.0932C97.8709 72.1551 90.8604 75.734 87.2058 77.8119C86.0861 78.4485 85.3578 79.5796 85.1941 80.8572C84.3462 87.4736 83.9924 94.2253 84.0873 98.5155C84.121 100.041 85.0321 101.395 86.426 102.015C92.1291 104.553 96.8799 105.229 100.197 105.319C101.881 105.365 103.526 104.784 104.758 103.635C109.366 99.3322 113.215 92.3801 115.023 88.1451C115.692 86.5791 115.715 84.8256 115.09 83.242C112.882 77.6541 109.027 72.8419 106.357 70.5346C105.391 69.7003 104.05 69.6066 102.87 70.0932Z" fill="url(#paint49_radial_12246_4628)"/>
<path d="M102.87 70.0932C97.8709 72.1551 90.8604 75.734 87.2058 77.8119C86.0861 78.4485 85.3578 79.5796 85.1941 80.8572C84.3462 87.4736 83.9924 94.2253 84.0873 98.5155C84.121 100.041 85.0321 101.395 86.426 102.015C92.1291 104.553 96.8799 105.229 100.197 105.319C101.881 105.365 103.526 104.784 104.758 103.635C109.366 99.3322 113.215 92.3801 115.023 88.1451C115.692 86.5791 115.715 84.8256 115.09 83.242C112.882 77.6541 109.027 72.8419 106.357 70.5346C105.391 69.7003 104.05 69.6066 102.87 70.0932Z" fill="url(#paint50_radial_12246_4628)"/>
<path d="M102.87 70.0932C97.8709 72.1551 90.8604 75.734 87.2058 77.8119C86.0861 78.4485 85.3578 79.5796 85.1941 80.8572C84.3462 87.4736 83.9924 94.2253 84.0873 98.5155C84.121 100.041 85.0321 101.395 86.426 102.015C92.1291 104.553 96.8799 105.229 100.197 105.319C101.881 105.365 103.526 104.784 104.758 103.635C109.366 99.3322 113.215 92.3801 115.023 88.1451C115.692 86.5791 115.715 84.8256 115.09 83.242C112.882 77.6541 109.027 72.8419 106.357 70.5346C105.391 69.7003 104.05 69.6066 102.87 70.0932Z" fill="url(#paint51_radial_12246_4628)"/>
<path d="M102.87 70.0932C97.8709 72.1551 90.8604 75.734 87.2058 77.8119C86.0861 78.4485 85.3578 79.5796 85.1941 80.8572C84.3462 87.4736 83.9924 94.2253 84.0873 98.5155C84.121 100.041 85.0321 101.395 86.426 102.015C92.1291 104.553 96.8799 105.229 100.197 105.319C101.881 105.365 103.526 104.784 104.758 103.635C109.366 99.3322 113.215 92.3801 115.023 88.1451C115.692 86.5791 115.715 84.8256 115.09 83.242C112.882 77.6541 109.027 72.8419 106.357 70.5346C105.391 69.7003 104.05 69.6066 102.87 70.0932Z" fill="url(#paint52_radial_12246_4628)"/>
<path d="M42.3987 97.8102C38.5231 99.0739 34.582 100.741 31.9882 101.946C30.8555 102.472 30.2815 103.735 30.7052 104.91C32.4063 109.628 36.3833 116.924 41.6981 120.077C48.3975 123.373 55.5784 124.128 59.6764 124.064C60.6743 124.049 61.6542 123.64 62.1138 122.754C63.4551 120.169 63.8103 115.421 63.7185 111.82C63.6906 110.723 63.1014 109.727 62.1893 109.117L46.1019 98.3528C45.0096 97.622 43.6482 97.4028 42.3987 97.8102Z" fill="url(#paint53_radial_12246_4628)"/>
<path d="M42.3987 97.8102C38.5231 99.0739 34.582 100.741 31.9882 101.946C30.8555 102.472 30.2815 103.735 30.7052 104.91C32.4063 109.628 36.3833 116.924 41.6981 120.077C48.3975 123.373 55.5784 124.128 59.6764 124.064C60.6743 124.049 61.6542 123.64 62.1138 122.754C63.4551 120.169 63.8103 115.421 63.7185 111.82C63.6906 110.723 63.1014 109.727 62.1893 109.117L46.1019 98.3528C45.0096 97.622 43.6482 97.4028 42.3987 97.8102Z" fill="url(#paint54_radial_12246_4628)"/>
<path d="M42.3987 97.8102C38.5231 99.0739 34.582 100.741 31.9882 101.946C30.8555 102.472 30.2815 103.735 30.7052 104.91C32.4063 109.628 36.3833 116.924 41.6981 120.077C48.3975 123.373 55.5784 124.128 59.6764 124.064C60.6743 124.049 61.6542 123.64 62.1138 122.754C63.4551 120.169 63.8103 115.421 63.7185 111.82C63.6906 110.723 63.1014 109.727 62.1893 109.117L46.1019 98.3528C45.0096 97.622 43.6482 97.4028 42.3987 97.8102Z" fill="url(#paint55_radial_12246_4628)"/>
<path d="M42.3987 97.8102C38.5231 99.0739 34.582 100.741 31.9882 101.946C30.8555 102.472 30.2815 103.735 30.7052 104.91C32.4063 109.628 36.3833 116.924 41.6981 120.077C48.3975 123.373 55.5784 124.128 59.6764 124.064C60.6743 124.049 61.6542 123.64 62.1138 122.754C63.4551 120.169 63.8103 115.421 63.7185 111.82C63.6906 110.723 63.1014 109.727 62.1893 109.117L46.1019 98.3528C45.0096 97.622 43.6482 97.4028 42.3987 97.8102Z" fill="url(#paint56_radial_12246_4628)"/>
<path d="M63.376 67.6984C58.8012 70.3633 52.5586 72.8969 48.1718 74.4836C46.5628 75.0655 45.3826 76.4802 45.2038 78.1818C44.5201 84.687 44.3272 91.385 44.3661 95.3307C44.3787 96.6096 44.9811 97.8026 45.9973 98.5792C50.6197 102.112 56.9826 106.28 61.3834 108.807C63.0199 109.746 64.9887 109.842 66.7337 109.123C71.5629 107.135 77.4663 104.437 81.7214 102.311C83.2543 101.545 84.1605 99.9409 84.1383 98.2275C84.0495 91.3748 84.6449 85.1358 85.0726 81.468C85.2612 79.851 84.5804 78.2601 83.2305 77.3502C79.5159 74.8465 73.0748 70.6982 68.5396 67.73C66.9877 66.7143 64.9787 66.7648 63.376 67.6984Z" fill="url(#paint57_linear_12246_4628)"/>
<path d="M63.376 67.6984C58.8012 70.3633 52.5586 72.8969 48.1718 74.4836C46.5628 75.0655 45.3826 76.4802 45.2038 78.1818C44.5201 84.687 44.3272 91.385 44.3661 95.3307C44.3787 96.6096 44.9811 97.8026 45.9973 98.5792C50.6197 102.112 56.9826 106.28 61.3834 108.807C63.0199 109.746 64.9887 109.842 66.7337 109.123C71.5629 107.135 77.4663 104.437 81.7214 102.311C83.2543 101.545 84.1605 99.9409 84.1383 98.2275C84.0495 91.3748 84.6449 85.1358 85.0726 81.468C85.2612 79.851 84.5804 78.2601 83.2305 77.3502C79.5159 74.8465 73.0748 70.6982 68.5396 67.73C66.9877 66.7143 64.9787 66.7648 63.376 67.6984Z" fill="url(#paint58_radial_12246_4628)"/>
<path d="M63.376 67.6984C58.8012 70.3633 52.5586 72.8969 48.1718 74.4836C46.5628 75.0655 45.3826 76.4802 45.2038 78.1818C44.5201 84.687 44.3272 91.385 44.3661 95.3307C44.3787 96.6096 44.9811 97.8026 45.9973 98.5792C50.6197 102.112 56.9826 106.28 61.3834 108.807C63.0199 109.746 64.9887 109.842 66.7337 109.123C71.5629 107.135 77.4663 104.437 81.7214 102.311C83.2543 101.545 84.1605 99.9409 84.1383 98.2275C84.0495 91.3748 84.6449 85.1358 85.0726 81.468C85.2612 79.851 84.5804 78.2601 83.2305 77.3502C79.5159 74.8465 73.0748 70.6982 68.5396 67.73C66.9877 66.7143 64.9787 66.7648 63.376 67.6984Z" fill="url(#paint59_radial_12246_4628)"/>
<path d="M63.376 67.6984C58.8012 70.3633 52.5586 72.8969 48.1718 74.4836C46.5628 75.0655 45.3826 76.4802 45.2038 78.1818C44.5201 84.687 44.3272 91.385 44.3661 95.3307C44.3787 96.6096 44.9811 97.8026 45.9973 98.5792C50.6197 102.112 56.9826 106.28 61.3834 108.807C63.0199 109.746 64.9887 109.842 66.7337 109.123C71.5629 107.135 77.4663 104.437 81.7214 102.311C83.2543 101.545 84.1605 99.9409 84.1383 98.2275C84.0495 91.3748 84.6449 85.1358 85.0726 81.468C85.2612 79.851 84.5804 78.2601 83.2305 77.3502C79.5159 74.8465 73.0748 70.6982 68.5396 67.73C66.9877 66.7143 64.9787 66.7648 63.376 67.6984Z" fill="url(#paint60_radial_12246_4628)"/>
<path d="M63.376 67.6984C58.8012 70.3633 52.5586 72.8969 48.1718 74.4836C46.5628 75.0655 45.3826 76.4802 45.2038 78.1818C44.5201 84.687 44.3272 91.385 44.3661 95.3307C44.3787 96.6096 44.9811 97.8026 45.9973 98.5792C50.6197 102.112 56.9826 106.28 61.3834 108.807C63.0199 109.746 64.9887 109.842 66.7337 109.123C71.5629 107.135 77.4663 104.437 81.7214 102.311C83.2543 101.545 84.1605 99.9409 84.1383 98.2275C84.0495 91.3748 84.6449 85.1358 85.0726 81.468C85.2612 79.851 84.5804 78.2601 83.2305 77.3502C79.5159 74.8465 73.0748 70.6982 68.5396 67.73C66.9877 66.7143 64.9787 66.7648 63.376 67.6984Z" fill="url(#paint61_radial_12246_4628)"/>
<path d="M63.376 67.6984C58.8012 70.3633 52.5586 72.8969 48.1718 74.4836C46.5628 75.0655 45.3826 76.4802 45.2038 78.1818C44.5201 84.687 44.3272 91.385 44.3661 95.3307C44.3787 96.6096 44.9811 97.8026 45.9973 98.5792C50.6197 102.112 56.9826 106.28 61.3834 108.807C63.0199 109.746 64.9887 109.842 66.7337 109.123C71.5629 107.135 77.4663 104.437 81.7214 102.311C83.2543 101.545 84.1605 99.9409 84.1383 98.2275C84.0495 91.3748 84.6449 85.1358 85.0726 81.468C85.2612 79.851 84.5804 78.2601 83.2305 77.3502C79.5159 74.8465 73.0748 70.6982 68.5396 67.73C66.9877 66.7143 64.9787 66.7648 63.376 67.6984Z" fill="url(#paint62_radial_12246_4628)"/>
<path d="M33.3703 56.8224C36.4218 49.118 41.1087 43.3599 44.5995 40.2472C45.3426 39.5846 46.3197 39.2541 47.315 39.283C55.0241 39.507 60.6099 41.3767 63.9796 42.8233C65.3882 43.428 66.3138 44.7853 66.4476 46.3124C67.1965 54.8601 66.8692 59.9065 66.4455 63.7664C66.311 64.9918 65.6633 66.1074 64.6326 66.7838C59.5861 70.0952 53.4326 72.5485 48.3574 74.422C46.8902 74.9636 45.2368 74.8811 43.9921 73.9341C39.8274 70.7656 35.7866 64.9445 33.5852 60.8443C32.9184 59.6024 32.8512 58.133 33.3703 56.8224Z" fill="url(#paint63_radial_12246_4628)"/>
<path d="M33.3703 56.8224C36.4218 49.118 41.1087 43.3599 44.5995 40.2472C45.3426 39.5846 46.3197 39.2541 47.315 39.283C55.0241 39.507 60.6099 41.3767 63.9796 42.8233C65.3882 43.428 66.3138 44.7853 66.4476 46.3124C67.1965 54.8601 66.8692 59.9065 66.4455 63.7664C66.311 64.9918 65.6633 66.1074 64.6326 66.7838C59.5861 70.0952 53.4326 72.5485 48.3574 74.422C46.8902 74.9636 45.2368 74.8811 43.9921 73.9341C39.8274 70.7656 35.7866 64.9445 33.5852 60.8443C32.9184 59.6024 32.8512 58.133 33.3703 56.8224Z" fill="url(#paint64_radial_12246_4628)"/>
<path d="M33.3703 56.8224C36.4218 49.118 41.1087 43.3599 44.5995 40.2472C45.3426 39.5846 46.3197 39.2541 47.315 39.283C55.0241 39.507 60.6099 41.3767 63.9796 42.8233C65.3882 43.428 66.3138 44.7853 66.4476 46.3124C67.1965 54.8601 66.8692 59.9065 66.4455 63.7664C66.311 64.9918 65.6633 66.1074 64.6326 66.7838C59.5861 70.0952 53.4326 72.5485 48.3574 74.422C46.8902 74.9636 45.2368 74.8811 43.9921 73.9341C39.8274 70.7656 35.7866 64.9445 33.5852 60.8443C32.9184 59.6024 32.8512 58.133 33.3703 56.8224Z" fill="url(#paint65_radial_12246_4628)"/>
<path d="M33.3703 56.8224C36.4218 49.118 41.1087 43.3599 44.5995 40.2472C45.3426 39.5846 46.3197 39.2541 47.315 39.283C55.0241 39.507 60.6099 41.3767 63.9796 42.8233C65.3882 43.428 66.3138 44.7853 66.4476 46.3124C67.1965 54.8601 66.8692 59.9065 66.4455 63.7664C66.311 64.9918 65.6633 66.1074 64.6326 66.7838C59.5861 70.0952 53.4326 72.5485 48.3574 74.422C46.8902 74.9636 45.2368 74.8811 43.9921 73.9341C39.8274 70.7656 35.7866 64.9445 33.5852 60.8443C32.9184 59.6024 32.8512 58.133 33.3703 56.8224Z" fill="url(#paint66_radial_12246_4628)"/>
<path d="M85.1407 32.7218C84.3886 27.9889 84.3232 24.0739 84.392 21.9455C84.4282 20.8263 85.1369 20.0868 86.2558 20.0408C90.5969 19.8625 98.8589 20.9508 104.131 24.7048C109.673 28.9064 113.584 35.2247 115.273 39.1638C115.739 40.2505 115.51 41.507 114.62 42.2851C112.291 44.3209 109 45.7497 106.656 46.6918C105.642 47.0998 104.49 46.9817 103.573 46.3849L87.0583 35.6295C86.042 34.9676 85.3311 33.9196 85.1407 32.7218Z" fill="url(#paint67_radial_12246_4628)"/>
<path d="M85.1407 32.7218C84.3886 27.9889 84.3232 24.0739 84.392 21.9455C84.4282 20.8263 85.1369 20.0868 86.2558 20.0408C90.5969 19.8625 98.8589 20.9508 104.131 24.7048C109.673 28.9064 113.584 35.2247 115.273 39.1638C115.739 40.2505 115.51 41.507 114.62 42.2851C112.291 44.3209 109 45.7497 106.656 46.6918C105.642 47.0998 104.49 46.9817 103.573 46.3849L87.0583 35.6295C86.042 34.9676 85.3311 33.9196 85.1407 32.7218Z" fill="url(#paint68_radial_12246_4628)"/>
<path d="M85.1407 32.7218C84.3886 27.9889 84.3232 24.0739 84.392 21.9455C84.4282 20.8263 85.1369 20.0868 86.2558 20.0408C90.5969 19.8625 98.8589 20.9508 104.131 24.7048C109.673 28.9064 113.584 35.2247 115.273 39.1638C115.739 40.2505 115.51 41.507 114.62 42.2851C112.291 44.3209 109 45.7497 106.656 46.6918C105.642 47.0998 104.49 46.9817 103.573 46.3849L87.0583 35.6295C86.042 34.9676 85.3311 33.9196 85.1407 32.7218Z" fill="url(#paint69_radial_12246_4628)"/>
<path d="M85.1407 32.7218C84.3886 27.9889 84.3232 24.0739 84.392 21.9455C84.4282 20.8263 85.1369 20.0868 86.2558 20.0408C90.5969 19.8625 98.8589 20.9508 104.131 24.7048C109.673 28.9064 113.584 35.2247 115.273 39.1638C115.739 40.2505 115.51 41.507 114.62 42.2851C112.291 44.3209 109 45.7497 106.656 46.6918C105.642 47.0998 104.49 46.9817 103.573 46.3849L87.0583 35.6295C86.042 34.9676 85.3311 33.9196 85.1407 32.7218Z" fill="url(#paint70_radial_12246_4628)"/>
<path d="M66.5153 63.7458C66.9496 56.7747 66.7006 50.5126 66.48 46.5825C66.3859 44.9077 67.2261 43.3235 68.7071 42.5357C72.7811 40.3685 79.1783 37.2487 83.3666 35.2466C84.6432 34.6363 86.1346 34.6702 87.3563 35.3841C92.24 38.2378 98.2816 42.444 102.769 45.4158C104.094 46.2939 105.019 47.6784 105.155 49.2628C105.596 54.3785 105.398 61.5121 105.191 66.3981C105.122 68.0238 104.161 69.474 102.698 70.1862L87.5192 77.5756C86.1159 78.2588 84.4575 78.1581 83.1471 77.3102L68.5672 67.8762C67.1823 66.98 66.4127 65.3922 66.5153 63.7458Z" fill="url(#paint71_radial_12246_4628)"/>
<path d="M66.5153 63.7458C66.9496 56.7747 66.7006 50.5126 66.48 46.5825C66.3859 44.9077 67.2261 43.3235 68.7071 42.5357C72.7811 40.3685 79.1783 37.2487 83.3666 35.2466C84.6432 34.6363 86.1346 34.6702 87.3563 35.3841C92.24 38.2378 98.2816 42.444 102.769 45.4158C104.094 46.2939 105.019 47.6784 105.155 49.2628C105.596 54.3785 105.398 61.5121 105.191 66.3981C105.122 68.0238 104.161 69.474 102.698 70.1862L87.5192 77.5756C86.1159 78.2588 84.4575 78.1581 83.1471 77.3102L68.5672 67.8762C67.1823 66.98 66.4127 65.3922 66.5153 63.7458Z" fill="url(#paint72_radial_12246_4628)"/>
<path d="M66.5153 63.7458C66.9496 56.7747 66.7006 50.5126 66.48 46.5825C66.3859 44.9077 67.2261 43.3235 68.7071 42.5357C72.7811 40.3685 79.1783 37.2487 83.3666 35.2466C84.6432 34.6363 86.1346 34.6702 87.3563 35.3841C92.24 38.2378 98.2816 42.444 102.769 45.4158C104.094 46.2939 105.019 47.6784 105.155 49.2628C105.596 54.3785 105.398 61.5121 105.191 66.3981C105.122 68.0238 104.161 69.474 102.698 70.1862L87.5192 77.5756C86.1159 78.2588 84.4575 78.1581 83.1471 77.3102L68.5672 67.8762C67.1823 66.98 66.4127 65.3922 66.5153 63.7458Z" fill="url(#paint73_radial_12246_4628)"/>
<path d="M66.5153 63.7458C66.9496 56.7747 66.7006 50.5126 66.48 46.5825C66.3859 44.9077 67.2261 43.3235 68.7071 42.5357C72.7811 40.3685 79.1783 37.2487 83.3666 35.2466C84.6432 34.6363 86.1346 34.6702 87.3563 35.3841C92.24 38.2378 98.2816 42.444 102.769 45.4158C104.094 46.2939 105.019 47.6784 105.155 49.2628C105.596 54.3785 105.398 61.5121 105.191 66.3981C105.122 68.0238 104.161 69.474 102.698 70.1862L87.5192 77.5756C86.1159 78.2588 84.4575 78.1581 83.1471 77.3102L68.5672 67.8762C67.1823 66.98 66.4127 65.3922 66.5153 63.7458Z" fill="url(#paint74_radial_12246_4628)"/>
<path d="M66.5153 63.7458C66.9496 56.7747 66.7006 50.5126 66.48 46.5825C66.3859 44.9077 67.2261 43.3235 68.7071 42.5357C72.7811 40.3685 79.1783 37.2487 83.3666 35.2466C84.6432 34.6363 86.1346 34.6702 87.3563 35.3841C92.24 38.2378 98.2816 42.444 102.769 45.4158C104.094 46.2939 105.019 47.6784 105.155 49.2628C105.596 54.3785 105.398 61.5121 105.191 66.3981C105.122 68.0238 104.161 69.474 102.698 70.1862L87.5192 77.5756C86.1159 78.2588 84.4575 78.1581 83.1471 77.3102L68.5672 67.8762C67.1823 66.98 66.4127 65.3922 66.5153 63.7458Z" fill="url(#paint75_radial_12246_4628)"/>
<defs>
<linearGradient id="paint0_linear_12246_4628" x1="95.6693" y1="21.5714" x2="69.3457" y2="15.1646" gradientUnits="userSpaceOnUse">
<stop stop-color="#E6E6E6"/>
<stop offset="1" stop-color="#D9D9D9"/>
</linearGradient>
<radialGradient id="paint1_radial_12246_4628" cx="0" cy="0" r="1" gradientUnits="userSpaceOnUse" gradientTransform="translate(102.494 22.2678) rotate(-165.401) scale(15.472 56.0358)">
<stop stop-color="#EDEDED"/>
<stop offset="1" stop-color="#EDEDED" stop-opacity="0"/>
</radialGradient>
<radialGradient id="paint2_radial_12246_4628" cx="0" cy="0" r="1" gradientUnits="userSpaceOnUse" gradientTransform="translate(74.086 20.9481) rotate(103.068) scale(4.95711 18.5325)">
<stop offset="0.0808128" stop-opacity="0.7"/>
<stop offset="1" stop-opacity="0"/>
</radialGradient>
<radialGradient id="paint3_radial_12246_4628" cx="0" cy="0" r="1" gradientUnits="userSpaceOnUse" gradientTransform="translate(58.3586 14.0671) rotate(170.74) scale(6.49141 24.2685)">
<stop offset="0.0808128" stop-opacity="0.7"/>
<stop offset="1" stop-opacity="0"/>
</radialGradient>
<linearGradient id="paint4_linear_12246_4628" x1="37.2152" y1="117.224" x2="18.1159" y2="86.4414" gradientUnits="userSpaceOnUse">
<stop stop-color="#8078D1"/>
<stop offset="1" stop-color="#807AB0"/>
</linearGradient>
<radialGradient id="paint5_radial_12246_4628" cx="0" cy="0" r="1" gradientTransform="matrix(13.3707 -10.028 39.8118 55.306 34.2632 100.281)" gradientUnits="userSpaceOnUse">
<stop offset="0.240815" stop-color="white" stop-opacity="0.3"/>
<stop offset="0.501754" stop-color="white" stop-opacity="0"/>
</radialGradient>
<radialGradient id="paint6_radial_12246_4628" cx="0" cy="0" r="1" gradientTransform="matrix(-12.2429 13.308 -26.9469 -8.0734 55.1019 15.0688)" gradientUnits="userSpaceOnUse">
<stop stop-color="#091B2F"/>
<stop offset="1"/>
</radialGradient>
<radialGradient id="paint7_radial_12246_4628" cx="0" cy="0" r="1" gradientTransform="matrix(-3.86233 3.41017 -24.5628 -9.06001 40.0336 29.0934)" gradientUnits="userSpaceOnUse">
<stop offset="0.0808128"/>
<stop offset="1" stop-opacity="0"/>
</radialGradient>
<radialGradient id="paint8_radial_12246_4628" cx="0" cy="0" r="1" gradientTransform="matrix(3.26878 3.38991 -17.1479 5.38498 59.5639 31.5887)" gradientUnits="userSpaceOnUse">
<stop offset="0.0808128"/>
<stop offset="1" stop-opacity="0"/>
</radialGradient>
<radialGradient id="paint9_radial_12246_4628" cx="0" cy="0" r="1" gradientTransform="matrix(-6.85017 0.499049 -2.44613 -17.4028 25.6774 18.4471)" gradientUnits="userSpaceOnUse">
<stop offset="0.0808128"/>
<stop offset="1" stop-opacity="0"/>
</radialGradient>
<radialGradient id="paint10_radial_12246_4628" cx="0" cy="0" r="1" gradientTransform="matrix(-11.9567 13.8586 -26.3171 -8.40745 102.675 113.883)" gradientUnits="userSpaceOnUse">
<stop stop-color="#091B2F"/>
<stop offset="1"/>
</radialGradient>
<radialGradient id="paint11_radial_12246_4628" cx="0" cy="0" r="1" gradientTransform="matrix(-3.77207 3.55127 -23.9888 -9.43489 87.9591 128.488)" gradientUnits="userSpaceOnUse">
<stop offset="0.0808128"/>
<stop offset="1" stop-opacity="0"/>
</radialGradient>
<radialGradient id="paint12_radial_12246_4628" cx="0" cy="0" r="1" gradientTransform="matrix(3.19238 3.53017 -16.7471 5.6078 107.033 131.086)" gradientUnits="userSpaceOnUse">
<stop offset="0.0808128"/>
<stop offset="1" stop-opacity="0"/>
</radialGradient>
<radialGradient id="paint13_radial_12246_4628" cx="0" cy="0" r="1" gradientTransform="matrix(-6.69008 0.519698 -2.38896 -18.1229 73.9384 117.401)" gradientUnits="userSpaceOnUse">
<stop offset="0.0808128"/>
<stop offset="1" stop-opacity="0"/>
</radialGradient>
<radialGradient id="paint14_radial_12246_4628" cx="0" cy="0" r="1" gradientTransform="matrix(-1.5011 29.3729 -3.30397 -17.8193 128.879 58.7041)" gradientUnits="userSpaceOnUse">
<stop stop-color="#091B2F"/>
<stop offset="1"/>
</radialGradient>
<radialGradient id="paint15_radial_12246_4628" cx="0" cy="0" r="1" gradientTransform="matrix(-0.473562 7.5268 -3.01166 -19.9969 127.032 89.6588)" gradientUnits="userSpaceOnUse">
<stop offset="0.0808128"/>
<stop offset="1" stop-opacity="0"/>
</radialGradient>
<radialGradient id="paint16_radial_12246_4628" cx="0" cy="0" r="1" gradientTransform="matrix(0.400786 7.48208 -2.10251 11.8855 129.426 95.1662)" gradientUnits="userSpaceOnUse">
<stop offset="0.0808128"/>
<stop offset="1" stop-opacity="0"/>
</radialGradient>
<radialGradient id="paint17_radial_12246_4628" cx="0" cy="0" r="1" gradientTransform="matrix(-0.839903 1.10148 -0.299921 -38.4108 125.271 66.1605)" gradientUnits="userSpaceOnUse">
<stop offset="0.0808128"/>
<stop offset="1" stop-opacity="0"/>
</radialGradient>
<radialGradient id="paint18_radial_12246_4628" cx="0" cy="0" r="1" gradientUnits="userSpaceOnUse" gradientTransform="translate(115.686 42.1419) rotate(-36.4309) scale(2.34098 24.1589)">
<stop stop-color="#A2A4B1"/>
<stop offset="1" stop-color="#A2A4B1" stop-opacity="0"/>
</radialGradient>
<radialGradient id="paint19_radial_12246_4628" cx="0" cy="0" r="1" gradientTransform="matrix(-2.64298 30.0262 -5.81728 -18.2157 17.2974 53.7481)" gradientUnits="userSpaceOnUse">
<stop stop-color="#091B2F"/>
<stop offset="1"/>
</radialGradient>
<radialGradient id="paint20_radial_12246_4628" cx="0" cy="0" r="1" gradientTransform="matrix(-0.833799 7.69423 -5.30262 -20.4417 14.0445 85.3913)" gradientUnits="userSpaceOnUse">
<stop offset="0.0808128"/>
<stop offset="1" stop-opacity="0"/>
</radialGradient>
<radialGradient id="paint21_radial_12246_4628" cx="0" cy="0" r="1" gradientTransform="matrix(0.705663 7.64851 -3.70187 12.1499 18.2607 91.0212)" gradientUnits="userSpaceOnUse">
<stop offset="0.0808128"/>
<stop offset="1" stop-opacity="0"/>
</radialGradient>
<radialGradient id="paint22_radial_12246_4628" cx="0" cy="0" r="1" gradientTransform="matrix(-1.47881 1.12598 -0.52807 -39.2652 10.9453 61.3703)" gradientUnits="userSpaceOnUse">
<stop offset="0.0808128"/>
<stop offset="1" stop-opacity="0"/>
</radialGradient>
<radialGradient id="paint23_radial_12246_4628" cx="0" cy="0" r="1" gradientUnits="userSpaceOnUse" gradientTransform="translate(74.4985 35.6397) rotate(-155.98) scale(28.0569 40.1739)">
<stop stop-color="#DFDFE1"/>
<stop offset="1" stop-color="#BFBEC0"/>
</radialGradient>
<radialGradient id="paint24_radial_12246_4628" cx="0" cy="0" r="1" gradientUnits="userSpaceOnUse" gradientTransform="translate(55.5029 43.4556) rotate(101.659) scale(4.4797 16.1003)">
<stop offset="0.0808128"/>
<stop offset="1" stop-opacity="0"/>
</radialGradient>
<radialGradient id="paint25_radial_12246_4628" cx="0" cy="0" r="1" gradientUnits="userSpaceOnUse" gradientTransform="translate(80.2248 44.6395) rotate(62.6223) scale(8.78338 31.568)">
<stop offset="0.0808128"/>
<stop offset="1" stop-opacity="0"/>
</radialGradient>
<radialGradient id="paint26_radial_12246_4628" cx="0" cy="0" r="1" gradientUnits="userSpaceOnUse" gradientTransform="translate(39.3466 32.3133) rotate(173.723) scale(7.00592 25.1797)">
<stop offset="0.0808128"/>
<stop offset="1" stop-opacity="0"/>
</radialGradient>
<radialGradient id="paint27_radial_12246_4628" cx="0" cy="0" r="1" gradientUnits="userSpaceOnUse" gradientTransform="translate(51.2549 16.2963) rotate(-115.731) scale(6.41626 58.0918)">
<stop offset="0.0808128" stop-color="white"/>
<stop offset="1" stop-color="white" stop-opacity="0"/>
</radialGradient>
<radialGradient id="paint28_radial_12246_4628" cx="0" cy="0" r="1" gradientUnits="userSpaceOnUse" gradientTransform="translate(76.5339 13.3715) rotate(-76.9613) scale(6.7908 62.557)">
<stop offset="0.380208" stop-color="white" stop-opacity="0.7"/>
<stop offset="0.895833" stop-color="white" stop-opacity="0"/>
</radialGradient>
<linearGradient id="paint29_linear_12246_4628" x1="22.7271" y1="38.9161" x2="43.3179" y2="48.4819" gradientUnits="userSpaceOnUse">
<stop stop-color="#A09FA2"/>
<stop offset="1" stop-color="#B7B6BA"/>
</linearGradient>
<linearGradient id="paint30_linear_12246_4628" x1="26.7265" y1="61.9625" x2="25.6819" y2="59.3162" gradientUnits="userSpaceOnUse">
<stop stop-color="#847D9D"/>
<stop offset="1" stop-color="#847D9D" stop-opacity="0"/>
</linearGradient>
<radialGradient id="paint31_radial_12246_4628" cx="0" cy="0" r="1" gradientUnits="userSpaceOnUse" gradientTransform="translate(71.6442 125.056) rotate(103.671) scale(2.65178 14.4586)">
<stop offset="0.417241" stop-color="#6C5DBB"/>
<stop offset="1" stop-color="#6C5DBB" stop-opacity="0"/>
</radialGradient>
<radialGradient id="paint32_radial_12246_4628" cx="0" cy="0" r="1" gradientUnits="userSpaceOnUse" gradientTransform="translate(122.074 44.9151) rotate(97.9975) scale(41.1952 21.2999)">
<stop stop-color="#F0EFF3"/>
<stop offset="1" stop-color="#E0DEF0"/>
</radialGradient>
<radialGradient id="paint33_radial_12246_4628" cx="0" cy="0" r="1" gradientUnits="userSpaceOnUse" gradientTransform="translate(107.629 82.5574) rotate(148.18) scale(7.99078 24.5732)">
<stop offset="0.0808128"/>
<stop offset="1" stop-opacity="0"/>
</radialGradient>
<radialGradient id="paint34_radial_12246_4628" cx="0" cy="0" r="1" gradientUnits="userSpaceOnUse" gradientTransform="translate(122.358 90.2526) rotate(61.1044) scale(8.84993 30.2447)">
<stop offset="0.0808128"/>
<stop offset="1" stop-opacity="0"/>
</radialGradient>
<radialGradient id="paint35_radial_12246_4628" cx="0" cy="0" r="1" gradientUnits="userSpaceOnUse" gradientTransform="translate(101.207 61.9567) rotate(179.762) scale(5.38185 45.8107)">
<stop offset="0.0808128" stop-opacity="0.8"/>
<stop offset="1" stop-opacity="0"/>
</radialGradient>
<radialGradient id="paint36_radial_12246_4628" cx="0" cy="0" r="1" gradientUnits="userSpaceOnUse" gradientTransform="translate(84.045 103.44) rotate(90.9002) scale(22.454 49.4456)">
<stop stop-color="#B4A6F7"/>
<stop stop-color="#B2A8F8"/>
<stop offset="0.0001" stop-color="#B2A8F8"/>
<stop offset="1" stop-color="#8D7FFE"/>
</radialGradient>
<radialGradient id="paint37_radial_12246_4628" cx="0" cy="0" r="1" gradientUnits="userSpaceOnUse" gradientTransform="translate(108.864 118.86) rotate(-4.73529) scale(14.1687 30.4614)">
<stop offset="0.240815" stop-color="white" stop-opacity="0.7"/>
<stop offset="0.652481" stop-color="white" stop-opacity="0"/>
</radialGradient>
<radialGradient id="paint38_radial_12246_4628" cx="0" cy="0" r="1" gradientUnits="userSpaceOnUse" gradientTransform="translate(93.1791 99.3056) rotate(-73.0092) scale(10.4857 22.5434)">
<stop offset="0.240815" stop-color="white" stop-opacity="0.7"/>
<stop offset="0.652481" stop-color="white" stop-opacity="0"/>
</radialGradient>
<radialGradient id="paint39_radial_12246_4628" cx="0" cy="0" r="1" gradientUnits="userSpaceOnUse" gradientTransform="translate(70.0588 100.141) rotate(-112.533) scale(14.1743 49.3356)">
<stop offset="0.240815" stop-color="white" stop-opacity="0.7"/>
<stop offset="0.652481" stop-color="white" stop-opacity="0"/>
</radialGradient>
<radialGradient id="paint40_radial_12246_4628" cx="0" cy="0" r="1" gradientUnits="userSpaceOnUse" gradientTransform="translate(56.5488 116.576) rotate(-170.807) scale(12.416 43.2156)">
<stop offset="0.240815" stop-color="white" stop-opacity="0.7"/>
<stop offset="0.652481" stop-color="white" stop-opacity="0"/>
</radialGradient>
<linearGradient id="paint41_linear_12246_4628" x1="45.7735" y1="76.0299" x2="16.9211" y2="85.9186" gradientUnits="userSpaceOnUse">
<stop stop-color="#A39AC6"/>
<stop offset="1" stop-color="#8A82B2"/>
</linearGradient>
<radialGradient id="paint42_radial_12246_4628" cx="0" cy="0" r="1" gradientUnits="userSpaceOnUse" gradientTransform="translate(22.5647 57.5221) rotate(-111.489) scale(6.86454 33.7381)">
<stop offset="0.240815" stop-color="white" stop-opacity="0.7"/>
<stop offset="1" stop-color="white" stop-opacity="0"/>
</radialGradient>
<radialGradient id="paint43_radial_12246_4628" cx="0" cy="0" r="1" gradientUnits="userSpaceOnUse" gradientTransform="translate(42.203 62.6754) rotate(-38.211) scale(8.33113 40.9462)">
<stop offset="0.240815" stop-color="white" stop-opacity="0.7"/>
<stop offset="1" stop-color="white" stop-opacity="0"/>
</radialGradient>
<radialGradient id="paint44_radial_12246_4628" cx="0" cy="0" r="1" gradientUnits="userSpaceOnUse" gradientTransform="translate(50.0026 87.7456) rotate(2.97374) scale(10.7389 52.78)">
<stop offset="0.240815" stop-color="white" stop-opacity="0.7"/>
<stop offset="0.652481" stop-color="white" stop-opacity="0"/>
</radialGradient>
<radialGradient id="paint45_radial_12246_4628" cx="0" cy="0" r="1" gradientUnits="userSpaceOnUse" gradientTransform="translate(39.4174 105.852) rotate(66.9745) scale(12.1068 59.503)">
<stop offset="0.240815" stop-color="white" stop-opacity="0.7"/>
<stop offset="0.652481" stop-color="white" stop-opacity="0"/>
</radialGradient>
<radialGradient id="paint46_radial_12246_4628" cx="0" cy="0" r="1" gradientUnits="userSpaceOnUse" gradientTransform="translate(110.071 115.075) rotate(-70.0169) scale(33.5917 112.417)">
<stop offset="0.340844" stop-color="#B3ADEB"/>
<stop offset="1" stop-color="#DBD8F2"/>
</radialGradient>
<radialGradient id="paint47_radial_12246_4628" cx="0" cy="0" r="1" gradientUnits="userSpaceOnUse" gradientTransform="translate(121.785 82.0884) rotate(64.0934) scale(2.70967 23.0976)">
<stop offset="0.208079" stop-color="#E8E7EE"/>
<stop offset="1" stop-color="#E8E7EE" stop-opacity="0"/>
</radialGradient>
<radialGradient id="paint48_radial_12246_4628" cx="0" cy="0" r="1" gradientUnits="userSpaceOnUse" gradientTransform="translate(96.661 111.841) rotate(-174.508) scale(7.27588 41.7206)">
<stop offset="0.0808128" stop-opacity="0.5"/>
<stop offset="1" stop-opacity="0"/>
</radialGradient>
<radialGradient id="paint49_radial_12246_4628" cx="0" cy="0" r="1" gradientTransform="matrix(-11.8103 29.3445 -25.9947 -17.8021 107.569 71.9506)" gradientUnits="userSpaceOnUse">
<stop stop-color="#091B2F"/>
<stop offset="1"/>
</radialGradient>
<radialGradient id="paint50_radial_12246_4628" cx="0" cy="0" r="1" gradientTransform="matrix(-3.72586 7.51952 -23.6949 -19.9776 93.0335 102.875)" gradientUnits="userSpaceOnUse">
<stop offset="0.0808128"/>
<stop offset="1" stop-opacity="0"/>
</radialGradient>
<radialGradient id="paint51_radial_12246_4628" cx="0" cy="0" r="1" gradientTransform="matrix(3.15328 7.47485 -16.5419 11.874 111.874 108.377)" gradientUnits="userSpaceOnUse">
<stop offset="0.0808128"/>
<stop offset="1" stop-opacity="0"/>
</radialGradient>
<radialGradient id="paint52_radial_12246_4628" cx="0" cy="0" r="1" gradientTransform="matrix(-6.60812 1.10042 -2.3597 -38.3737 79.1846 79.3998)" gradientUnits="userSpaceOnUse">
<stop offset="0.0808128"/>
<stop offset="1" stop-opacity="0"/>
</radialGradient>
<radialGradient id="paint53_radial_12246_4628" cx="0" cy="0" r="1" gradientTransform="matrix(-12.4778 21.9197 -27.4641 -13.2978 54.8936 99.1344)" gradientUnits="userSpaceOnUse">
<stop stop-color="#091B2F"/>
<stop offset="1"/>
</radialGradient>
<radialGradient id="paint54_radial_12246_4628" cx="0" cy="0" r="1" gradientTransform="matrix(-3.93646 5.61693 -25.0343 -14.9228 39.5361 122.234)" gradientUnits="userSpaceOnUse">
<stop offset="0.0808128"/>
<stop offset="1" stop-opacity="0"/>
</radialGradient>
<radialGradient id="paint55_radial_12246_4628" cx="0" cy="0" r="1" gradientTransform="matrix(3.33151 5.58355 -17.477 8.86965 59.4412 126.344)" gradientUnits="userSpaceOnUse">
<stop offset="0.0808128"/>
<stop offset="1" stop-opacity="0"/>
</radialGradient>
<radialGradient id="paint56_radial_12246_4628" cx="0" cy="0" r="1" gradientTransform="matrix(-6.98165 0.821989 -2.49308 -28.6643 24.9044 104.699)" gradientUnits="userSpaceOnUse">
<stop offset="0.0808128"/>
<stop offset="1" stop-opacity="0"/>
</radialGradient>
<linearGradient id="paint57_linear_12246_4628" x1="74.7775" y1="79.372" x2="55.5571" y2="110.222" gradientUnits="userSpaceOnUse">
<stop stop-color="#CCC5EB"/>
<stop offset="1" stop-color="#AB9EEA"/>
</linearGradient>
<radialGradient id="paint58_radial_12246_4628" cx="0" cy="0" r="1" gradientUnits="userSpaceOnUse" gradientTransform="translate(52.1695 108.15) rotate(124.717) scale(6.65801 45.2506)">
<stop stop-opacity="0.6"/>
<stop offset="0.923959" stop-opacity="0"/>
</radialGradient>
<radialGradient id="paint59_radial_12246_4628" cx="0" cy="0" r="1" gradientUnits="userSpaceOnUse" gradientTransform="translate(79.0428 113.154) rotate(65.9261) scale(10.1043 57.5612)">
<stop offset="0.0808128"/>
<stop offset="1" stop-opacity="0"/>
</radialGradient>
<radialGradient id="paint60_radial_12246_4628" cx="0" cy="0" r="1" gradientUnits="userSpaceOnUse" gradientTransform="translate(37.9909 86.7284) rotate(-180) scale(8.24335 39.065)">
<stop offset="0.0808128" stop-opacity="0.8"/>
<stop offset="1" stop-opacity="0"/>
</radialGradient>
<radialGradient id="paint61_radial_12246_4628" cx="0" cy="0" r="1" gradientUnits="userSpaceOnUse" gradientTransform="translate(52.1607 66.4355) rotate(-113.767) scale(8.29409 56.0071)">
<stop offset="0.240815" stop-color="white"/>
<stop offset="1" stop-color="white" stop-opacity="0"/>
</radialGradient>
<radialGradient id="paint62_radial_12246_4628" cx="0" cy="0" r="1" gradientTransform="matrix(7.54267 -10.7108 66.3354 42.0189 77.3942 67.0268)" gradientUnits="userSpaceOnUse">
<stop offset="0.45955" stop-color="white" stop-opacity="0.7"/>
<stop offset="0.558891" stop-color="white" stop-opacity="0"/>
</radialGradient>
<radialGradient id="paint63_radial_12246_4628" cx="0" cy="0" r="1" gradientTransform="matrix(-12.7075 29.3727 -27.9695 -17.8192 57.8935 41.8525)" gradientUnits="userSpaceOnUse">
<stop stop-color="#091B2F"/>
<stop offset="1"/>
</radialGradient>
<radialGradient id="paint64_radial_12246_4628" cx="0" cy="0" r="1" gradientTransform="matrix(-4.00891 7.52674 -25.495 -19.9968 42.2533 72.807)" gradientUnits="userSpaceOnUse">
<stop offset="0.0808128"/>
<stop offset="1" stop-opacity="0"/>
</radialGradient>
<radialGradient id="paint65_radial_12246_4628" cx="0" cy="0" r="1" gradientTransform="matrix(3.39283 7.48203 -17.7986 11.8854 62.5248 78.3143)" gradientUnits="userSpaceOnUse">
<stop offset="0.0808128"/>
<stop offset="1" stop-opacity="0"/>
</radialGradient>
<radialGradient id="paint66_radial_12246_4628" cx="0" cy="0" r="1" gradientTransform="matrix(-7.11014 1.10147 -2.53896 -38.4105 27.3523 49.3088)" gradientUnits="userSpaceOnUse">
<stop offset="0.0808128"/>
<stop offset="1" stop-opacity="0"/>
</radialGradient>
<radialGradient id="paint67_radial_12246_4628" cx="0" cy="0" r="1" gradientUnits="userSpaceOnUse" gradientTransform="translate(107.648 21.9888) rotate(117.699) scale(25.169 29.0837)">
<stop stop-color="#091B2F"/>
<stop offset="1"/>
</radialGradient>
<radialGradient id="paint68_radial_12246_4628" cx="0" cy="0" r="1" gradientUnits="userSpaceOnUse" gradientTransform="translate(93.2482 45.4734) rotate(122.876) scale(6.79937 27.9486)">
<stop offset="0.0808128"/>
<stop offset="1" stop-opacity="0"/>
</radialGradient>
<radialGradient id="paint69_radial_12246_4628" cx="0" cy="0" r="1" gradientUnits="userSpaceOnUse" gradientTransform="translate(111.911 49.6518) rotate(61.1768) scale(6.47919 18.7038)">
<stop offset="0.0808128"/>
<stop offset="1" stop-opacity="0"/>
</radialGradient>
<radialGradient id="paint70_radial_12246_4628" cx="0" cy="0" r="1" gradientTransform="matrix(-6.54609 0.83567 -2.33754 -29.1414 79.5293 27.6458)" gradientUnits="userSpaceOnUse">
<stop offset="0.0808128"/>
<stop offset="1" stop-opacity="0"/>
</radialGradient>
<radialGradient id="paint71_radial_12246_4628" cx="0" cy="0" r="1" gradientUnits="userSpaceOnUse" gradientTransform="translate(105.42 45.8827) rotate(155.871) scale(25.9205 34.562)">
<stop stop-color="#ECEAF2"/>
<stop offset="1" stop-color="#D5CEEA"/>
</radialGradient>
<radialGradient id="paint72_radial_12246_4628" cx="0" cy="0" r="1" gradientUnits="userSpaceOnUse" gradientTransform="translate(73.7568 76.5943) rotate(123.311) scale(6.57955 28.2463)">
<stop offset="0.0808128" stop-opacity="0.6"/>
<stop offset="1" stop-opacity="0"/>
</radialGradient>
<radialGradient id="paint73_radial_12246_4628" cx="0" cy="0" r="1" gradientUnits="userSpaceOnUse" gradientTransform="translate(99.3644 81.6216) rotate(67.0362) scale(10.0668 54.4762)">
<stop offset="0.0808128"/>
<stop offset="1" stop-opacity="0"/>
</radialGradient>
<radialGradient id="paint74_radial_12246_4628" cx="0" cy="0" r="1" gradientUnits="userSpaceOnUse" gradientTransform="translate(60.2461 55.0714) rotate(-180) scale(7.85509 39.2497)">
<stop offset="0.0808128" stop-opacity="0.8"/>
<stop offset="1" stop-opacity="0"/>
</radialGradient>
<radialGradient id="paint75_radial_12246_4628" cx="0" cy="0" r="1" gradientUnits="userSpaceOnUse" gradientTransform="translate(97.7934 35.2766) rotate(-56.2617) scale(12.9409 76.0128)">
<stop offset="0.45955" stop-color="white" stop-opacity="0.7"/>
<stop offset="0.558891" stop-color="white" stop-opacity="0"/>
</radialGradient>
</defs>
</svg>
