<svg width="32" height="80" viewBox="0 0 32 80" fill="none" xmlns="http://www.w3.org/2000/svg">
<path d="M14.1664 62.4041C14.1664 62.4041 14.1664 56.1217 18.135 57.584C22.1036 59.0463 19.7008 63.3519 19.7008 63.3519C19.7008 63.3519 24.2094 72.7756 13.8695 74.8607C13.8155 74.8607 7.55215 69.851 14.1664 62.4041Z" fill="#1E1F20"/>
<path d="M19.8902 63.726C22.2021 61.8113 24.6749 60.1067 27.2799 58.6317C28.6517 58.3799 30.0668 58.6423 31.2629 59.3703L31.814 58.3515C30.3033 57.4519 28.5188 57.1525 26.804 57.5109C24.0899 59.0623 21.509 60.8431 19.0886 62.8345L19.8902 63.726Z" fill="#1E1F20"/>
<path d="M30.6475 68.4994L31.814 68.1519C31.814 67.9113 30.1172 62.2437 26.7503 62.1367C24.0873 62.3479 21.4878 63.0645 19.0886 64.2487L19.6188 65.3715C21.8328 64.2617 24.234 63.5816 26.6973 63.3665C28.7916 63.4467 30.2498 67.1092 30.6475 68.4994Z" fill="#1E1F20"/>
<path d="M29.1071 76.4503L30.2231 76.0756C29.8934 75.1263 27.002 66.7827 23.172 66.9076C19.9255 66.9076 19.1392 67.707 19.0884 68.2816L20.2298 68.4315C20.2449 68.4888 20.2449 68.549 20.2298 68.6063C20.2298 68.6063 20.6864 68.1317 23.2481 68.0568C25.8099 67.9818 27.9658 73.1778 29.1071 76.4503Z" fill="#1E1F20"/>
<path d="M25.4115 79.6319C25.4115 79.3345 26.0985 72.4942 21.7216 71.2235L17.8027 70.0879L17.4973 71.2775L21.4162 72.4401C24.8262 73.4135 24.2408 79.4427 24.2408 79.4968L25.4115 79.6319Z" fill="#1E1F20"/>
<path d="M13.1044 63.7254H14.3159C13.1572 53.3186 7.02092 51.0809 6.75757 51L6.36255 52.1863C6.59957 52.1324 12.051 54.1544 13.1044 63.7254Z" fill="#1E1F20"/>
<path d="M13.1828 65.3166L14.3159 64.7791C12.9234 62.3447 11.2369 60.0508 9.28592 57.9374C6.99203 55.9093 1.13298 59.8433 -0.000142688 60.6496L0.801276 61.5293C3.28863 59.77 7.26839 57.7664 8.40151 58.7437C10.2506 60.781 11.8531 62.984 13.1828 65.3166V65.3166Z" fill="#1E1F20"/>
<path d="M0.878024 66.9087C2.95359 65.2105 6.89179 62.766 8.5682 63.5122C10.3489 64.4062 11.9886 65.5413 13.4378 66.883L14.3159 65.9824C12.743 64.5254 10.9481 63.3105 8.99397 62.3801C6.06689 61.0678 0.611881 65.4678 -0.000142979 65.9567L0.878024 66.9087Z" fill="#1E1F20"/>
<path d="M0.843392 71.6783C1.06812 71.4285 6.46167 65.9332 12.0799 69.5863L12.7261 68.3374C6.43361 64.1223 0.0849596 70.5543 0.000685478 70.6167L0.843392 71.6783Z" fill="#1E1F20"/>
<path d="M18.1611 0.300066C18.2967 0.352537 18.444 0.400106 18.6011 0.442204V58H17.6011V0L18.1611 0.300066Z" fill="#1E1F20"/>
</svg>
